<?xml version="1.0" encoding="utf-8" standalone="no"?>
<!DOCTYPE svg PUBLIC "-//W3C//DTD SVG 1.1//EN"
  "http://www.w3.org/Graphics/SVG/1.1/DTD/svg11.dtd">
<!-- Created with matplotlib (http://matplotlib.org/) -->
<svg height="199.83375pt" version="1.1" viewBox="0 0 312.9 199.83375" width="312.9pt" xmlns="http://www.w3.org/2000/svg" xmlns:xlink="http://www.w3.org/1999/xlink">
 <defs>
  <style type="text/css">
*{stroke-linecap:butt;stroke-linejoin:round;}
  </style>
 </defs>
 <g id="figure_1">
  <g id="patch_1">
   <path d="M 0 199.83375 
L 312.9 199.83375 
L 312.9 0 
L 0 0 
z
" style="fill:none;"/>
  </g>
  <g id="axes_1">
   <g id="patch_2">
    <path d="M 23.2 59.617647 
L 302.2 59.617647 
L 302.2 10.7 
L 23.2 10.7 
z
" style="fill:none;"/>
   </g>
   <g id="matplotlib.axis_1"/>
   <g id="matplotlib.axis_2">
    <g id="text_1">
     <!-- $X(t)$ -->
     <defs>
      <path d="M 3.609375 0 
Q 2.59375 0 2.59375 1.3125 
Q 2.640625 1.5625 2.8125 2.1875 
Q 2.984375 2.828125 3.25 3.171875 
Q 3.515625 3.515625 4 3.515625 
Q 13.09375 3.515625 19.578125 10.296875 
Q 19.671875 10.40625 19.796875 10.453125 
Q 19.921875 10.5 19.921875 10.5 
L 41.796875 34.078125 
L 29.890625 62.796875 
Q 28.859375 64.109375 26.5625 64.453125 
Q 24.265625 64.796875 21.1875 64.796875 
Q 20.21875 64.796875 20.21875 66.109375 
Q 20.5625 67.390625 20.75 67.84375 
Q 20.953125 68.3125 21.921875 68.3125 
L 46.921875 68.3125 
Q 47.90625 68.3125 47.90625 67 
Q 47.859375 66.75 47.6875 66.109375 
Q 47.515625 65.484375 47.234375 65.140625 
Q 46.96875 64.796875 46.484375 64.796875 
Q 44.625 64.796875 42.640625 64.1875 
Q 40.671875 63.578125 39.890625 62.203125 
L 48.484375 41.5 
L 64.890625 59.078125 
Q 65.046875 59.421875 65.578125 60.28125 
Q 66.109375 61.140625 66.109375 61.921875 
Q 66.109375 63.375 64.84375 64.078125 
Q 63.578125 64.796875 61.8125 64.796875 
Q 60.796875 64.796875 60.796875 66.109375 
Q 61.140625 67.390625 61.328125 67.84375 
Q 61.53125 68.3125 62.5 68.3125 
L 84.1875 68.3125 
Q 84.71875 68.3125 84.953125 67.921875 
Q 85.203125 67.53125 85.203125 67 
Q 85.15625 66.75 85 66.15625 
Q 84.859375 65.578125 84.609375 65.1875 
Q 84.375 64.796875 83.890625 64.796875 
Q 79.25 64.796875 75.359375 63.109375 
Q 71.484375 61.421875 68.21875 58.015625 
Q 68.171875 57.953125 68.09375 57.921875 
Q 68.015625 57.90625 67.921875 57.8125 
L 49.8125 38.28125 
L 63.484375 5.515625 
Q 65.09375 3.515625 72.21875 3.515625 
Q 73.1875 3.515625 73.1875 2.203125 
Q 72.859375 0.875 72.625 0.4375 
Q 72.40625 0 71.484375 0 
L 46.484375 0 
Q 45.515625 0 45.515625 1.3125 
Q 45.5625 1.5625 45.703125 2.171875 
Q 45.84375 2.78125 46.109375 3.140625 
Q 46.390625 3.515625 46.78125 3.515625 
Q 48.734375 3.515625 50.734375 4.125 
Q 52.734375 4.734375 53.515625 6.109375 
L 43.109375 31 
L 22.90625 9.1875 
Q 22.75 8.84375 22.21875 8 
Q 21.6875 7.171875 21.6875 6.390625 
Q 21.6875 4.9375 23.046875 4.21875 
Q 24.421875 3.515625 25.984375 3.515625 
Q 27 3.515625 27 2.203125 
Q 26.65625 0.78125 26.453125 0.390625 
Q 26.265625 0 25.296875 0 
z
" id="Cmmi10-58"/>
      <path d="M 31 -24.8125 
Q 25.4375 -20.40625 21.40625 -14.71875 
Q 17.390625 -9.03125 14.8125 -2.578125 
Q 12.25 3.859375 10.984375 10.890625 
Q 9.71875 17.921875 9.71875 25 
Q 9.71875 32.171875 10.984375 39.203125 
Q 12.25 46.234375 14.859375 52.734375 
Q 17.484375 59.234375 21.53125 64.890625 
Q 25.59375 70.5625 31 74.8125 
Q 31 75 31.5 75 
L 32.421875 75 
Q 32.71875 75 32.953125 74.734375 
Q 33.203125 74.46875 33.203125 74.125 
Q 33.203125 73.6875 33.015625 73.484375 
Q 28.125 68.703125 24.875 63.234375 
Q 21.625 57.765625 19.640625 51.578125 
Q 17.671875 45.40625 16.796875 38.78125 
Q 15.921875 32.171875 15.921875 25 
Q 15.921875 -6.78125 32.90625 -23.296875 
Q 33.203125 -23.578125 33.203125 -24.125 
Q 33.203125 -24.359375 32.9375 -24.671875 
Q 32.671875 -25 32.421875 -25 
L 31.5 -25 
Q 31 -25 31 -24.8125 
z
" id="Cmr10-28"/>
      <path d="M 6.203125 8.109375 
Q 6.203125 9.578125 6.5 10.890625 
L 13.71875 39.59375 
L 3.21875 39.59375 
Q 2.203125 39.59375 2.203125 40.921875 
Q 2.59375 43.109375 3.515625 43.109375 
L 14.59375 43.109375 
L 18.609375 59.421875 
Q 19 60.75 20.171875 61.671875 
Q 21.34375 62.59375 22.796875 62.59375 
Q 24.078125 62.59375 24.921875 61.828125 
Q 25.78125 61.078125 25.78125 59.8125 
Q 25.78125 59.515625 25.75 59.34375 
Q 25.734375 59.1875 25.6875 58.984375 
L 21.6875 43.109375 
L 31.984375 43.109375 
Q 33.015625 43.109375 33.015625 41.796875 
Q 32.953125 41.546875 32.8125 40.953125 
Q 32.671875 40.375 32.421875 39.984375 
Q 32.171875 39.59375 31.6875 39.59375 
L 20.796875 39.59375 
L 13.625 10.6875 
Q 12.890625 7.859375 12.890625 5.8125 
Q 12.890625 1.515625 15.828125 1.515625 
Q 20.21875 1.515625 23.609375 5.640625 
Q 27 9.765625 28.8125 14.703125 
Q 29.203125 15.28125 29.59375 15.28125 
L 30.8125 15.28125 
Q 31.203125 15.28125 31.4375 15.015625 
Q 31.6875 14.75 31.6875 14.40625 
Q 31.6875 14.203125 31.59375 14.109375 
Q 29.390625 8.0625 25.1875 3.46875 
Q 21 -1.125 15.578125 -1.125 
Q 11.625 -1.125 8.90625 1.453125 
Q 6.203125 4.046875 6.203125 8.109375 
z
" id="Cmmi10-74"/>
      <path d="M 6.5 -25 
Q 5.609375 -25 5.609375 -24.125 
Q 5.609375 -23.6875 5.8125 -23.484375 
Q 22.90625 -6.78125 22.90625 25 
Q 22.90625 56.78125 6 73.296875 
Q 5.609375 73.53125 5.609375 74.125 
Q 5.609375 74.46875 5.875 74.734375 
Q 6.15625 75 6.5 75 
L 7.421875 75 
Q 7.71875 75 7.90625 74.8125 
Q 15.09375 69.140625 19.875 61.03125 
Q 24.65625 52.9375 26.875 43.75 
Q 29.109375 34.578125 29.109375 25 
Q 29.109375 17.921875 27.90625 11.0625 
Q 26.703125 4.203125 24.09375 -2.453125 
Q 21.484375 -9.125 17.484375 -14.765625 
Q 13.484375 -20.40625 7.90625 -24.8125 
Q 7.71875 -25 7.421875 -25 
z
" id="Cmr10-29"/>
     </defs>
     <g transform="translate(16.2 46.978824)rotate(-90)scale(0.12 -0.12)">
      <use xlink:href="#Cmmi10-58"/>
      <use transform="translate(82.8125 0)" xlink:href="#Cmr10-28"/>
      <use transform="translate(121.630859 0)" xlink:href="#Cmmi10-74"/>
      <use transform="translate(157.714844 0)" xlink:href="#Cmr10-29"/>
     </g>
    </g>
   </g>
   <g id="line2d_1">
    <path clip-path="url(#pab5776413c)" d="M 23.2 52.510661 
L 23.598571 53.909652 
L 23.864286 54.142945 
L 23.997143 54.011341 
L 24.262857 53.248061 
L 24.661429 51.038346 
L 26.388571 39.449076 
L 26.92 37.571972 
L 27.451429 36.406402 
L 27.982857 35.702043 
L 28.647143 35.17227 
L 30.64 33.866041 
L 31.304286 33.052914 
L 31.835714 32.07831 
L 32.367143 30.672554 
L 32.898571 28.665388 
L 33.562857 25.064708 
L 35.024286 15.668269 
L 35.29 15.279711 
L 35.422857 15.415378 
L 35.688571 16.36112 
L 36.087143 19.199432 
L 37.681429 32.668657 
L 38.212857 35.091373 
L 38.744286 36.657073 
L 39.408571 37.948708 
L 40.87 40.4559 
L 41.534286 42.150283 
L 42.198571 44.487637 
L 43.128571 48.747975 
L 43.792857 51.551547 
L 44.191429 52.429052 
L 44.457143 52.47497 
L 44.722857 52.042711 
L 45.121429 50.579056 
L 45.785714 46.857843 
L 46.715714 41.914619 
L 47.247143 40.041068 
L 47.778571 38.869464 
L 48.31 38.253609 
L 48.708571 38.070224 
L 49.107143 38.076741 
L 49.638571 38.339785 
L 50.17 38.883756 
L 50.701429 39.741868 
L 51.232857 40.987611 
L 51.897143 43.242076 
L 52.561429 46.396681 
L 53.89 53.232792 
L 54.155714 53.750454 
L 54.288571 53.790889 
L 54.421429 53.674649 
L 54.687143 52.974562 
L 55.085714 50.919042 
L 56.945714 39.313742 
L 57.477143 37.683595 
L 58.008571 36.698656 
L 58.54 36.137054 
L 59.204286 35.778546 
L 60.134286 35.575606 
L 63.987143 35.026241 
L 64.784286 34.60839 
L 65.448571 33.992862 
L 65.98 33.204094 
L 66.511429 31.999945 
L 67.042857 30.172156 
L 67.574286 27.450636 
L 68.105714 23.597559 
L 69.434286 13.116354 
L 69.567143 12.923529 
L 69.7 13.048051 
L 69.965714 14.264438 
L 70.364286 18.092797 
L 71.692857 33.183108 
L 72.224286 36.699931 
L 72.755714 38.963418 
L 73.42 40.792803 
L 76.21 47.260818 
L 76.874286 48.73153 
L 77.272857 49.260396 
L 77.538571 49.397275 
L 77.804286 49.339846 
L 78.07 49.086893 
L 78.468571 48.379572 
L 79.132857 46.632072 
L 80.195714 43.816693 
L 80.86 42.709591 
L 81.391429 42.290735 
L 81.79 42.241105 
L 82.188571 42.405387 
L 82.72 42.938201 
L 83.251429 43.806835 
L 84.048571 45.646079 
L 85.51 49.227518 
L 85.908571 49.650765 
L 86.174286 49.679852 
L 86.44 49.491675 
L 86.838571 48.827276 
L 87.37 47.412058 
L 88.831429 43.267902 
L 89.362857 42.391168 
L 89.894286 41.956094 
L 90.292857 41.905138 
L 90.691429 42.074807 
L 91.222857 42.624848 
L 91.754286 43.526107 
L 92.418571 45.098861 
L 94.145714 49.637632 
L 94.544286 50.000722 
L 94.81 49.952237 
L 95.075714 49.662358 
L 95.474286 48.820649 
L 96.138571 46.722913 
L 97.201429 43.392746 
L 97.732857 42.299865 
L 98.264286 41.68029 
L 98.662857 41.510643 
L 99.061429 41.574699 
L 99.46 41.8581 
L 99.991429 42.561872 
L 100.655714 43.945723 
L 101.452857 46.241432 
L 102.648571 49.736904 
L 103.047143 50.303862 
L 103.312857 50.371981 
L 103.578571 50.167786 
L 103.977143 49.378032 
L 104.508571 47.660634 
L 105.837143 43.04409 
L 106.368571 41.884796 
L 106.9 41.231562 
L 107.298571 41.048459 
L 107.697143 41.104129 
L 108.095714 41.38229 
L 108.627143 42.085314 
L 109.158571 43.164048 
L 109.822857 45.022215 
L 111.55 50.440975 
L 111.815714 50.763618 
L 112.081429 50.79269 
L 112.347143 50.510995 
L 112.745714 49.549577 
L 113.41 47.007173 
L 114.472857 42.92372 
L 115.004286 41.580086 
L 115.535714 40.785075 
L 115.934286 40.514854 
L 116.332857 40.492279 
L 116.731429 40.695818 
L 117.262857 41.30096 
L 117.794286 42.288569 
L 118.458571 44.079132 
L 119.255714 46.955757 
L 120.185714 50.345377 
L 120.584286 51.183805 
L 120.85 51.355923 
L 121.115714 51.171557 
L 121.381429 50.633826 
L 121.78 49.270215 
L 123.772857 41.233287 
L 124.304286 40.256899 
L 124.702857 39.874644 
L 125.101429 39.749439 
L 125.5 39.85115 
L 125.898571 40.162497 
L 126.43 40.898897 
L 126.961429 42.023993 
L 127.625714 44.031312 
L 128.422857 47.270877 
L 129.352857 51.070995 
L 129.751429 51.936064 
L 130.017143 52.037447 
L 130.282857 51.710619 
L 130.681429 50.469947 
L 131.345714 47.134438 
L 132.275714 42.480525 
L 132.94 40.310429 
L 133.471429 39.311424 
L 133.87 38.914431 
L 134.268571 38.762874 
L 134.667143 38.819536 
L 135.198571 39.184874 
L 135.73 39.878761 
L 136.261429 40.939313 
L 136.925714 42.885767 
L 137.59 45.623818 
L 139.184286 52.764273 
L 139.45 53.040426 
L 139.582857 52.982361 
L 139.848571 52.462933 
L 140.247143 50.784821 
L 141.044286 45.789377 
L 141.841429 41.359095 
L 142.372857 39.401128 
L 142.904286 38.17693 
L 143.435714 37.505033 
L 143.967143 37.220497 
L 144.498571 37.211124 
L 145.03 37.419808 
L 145.561429 37.837144 
L 146.092857 38.49512 
L 146.624286 39.464788 
L 147.155714 40.855418 
L 147.687143 42.804846 
L 148.351429 46.199203 
L 149.812857 54.511983 
L 150.078571 54.829705 
L 150.211429 54.709227 
L 150.477143 53.899264 
L 150.875714 51.470037 
L 152.602857 38.803471 
L 153.134286 36.786136 
L 153.665714 35.507688 
L 154.33 34.510179 
L 156.322857 32.006842 
L 156.987143 30.511868 
L 157.651429 28.288195 
L 158.315714 25.131383 
L 159.777143 17.364088 
L 160.042857 16.951806 
L 160.175714 16.987211 
L 160.441429 17.563896 
L 160.84 19.560971 
L 161.77 26.522352 
L 162.434286 30.672506 
L 162.965714 32.897964 
L 163.497143 34.312337 
L 164.028571 35.171332 
L 164.692857 35.798219 
L 166.021429 36.584092 
L 166.818571 37.188358 
L 167.482857 37.973558 
L 168.014286 38.912787 
L 168.545714 40.26718 
L 169.077143 42.203554 
L 169.741429 45.695512 
L 171.335714 55.613905 
L 171.468571 55.790688 
L 171.601429 55.748066 
L 171.867143 54.985844 
L 172.265714 52.355885 
L 173.992857 38.027838 
L 174.524286 35.758236 
L 175.055714 34.289868 
L 175.852857 32.844467 
L 177.048571 30.805138 
L 177.712857 29.166399 
L 178.377143 26.895583 
L 179.307143 22.675576 
L 180.104286 19.326222 
L 180.502857 18.587531 
L 180.635714 18.561917 
L 180.901429 18.873041 
L 181.167143 19.649444 
L 181.698571 22.25532 
L 183.027143 29.480363 
L 183.558571 31.269184 
L 184.09 32.369307 
L 184.621429 32.9322 
L 185.02 33.086313 
L 185.418571 33.056947 
L 185.95 32.769344 
L 186.481429 32.202943 
L 187.012857 31.320134 
L 187.544286 30.043645 
L 188.208571 27.73857 
L 188.872857 24.524884 
L 190.201429 17.724562 
L 190.467143 17.273015 
L 190.6 17.271947 
L 190.865714 17.746582 
L 191.264286 19.54891 
L 192.061429 25.197683 
L 192.858571 30.226742 
L 193.39 32.441592 
L 193.921429 33.851049 
L 194.452857 34.688984 
L 194.984286 35.166073 
L 195.648571 35.481824 
L 196.844286 35.751237 
L 198.438571 36.154047 
L 199.235714 36.57525 
L 199.9 37.174727 
L 200.431429 37.925341 
L 200.962857 39.049934 
L 201.494286 40.728508 
L 202.025714 43.193862 
L 202.557143 46.661486 
L 204.018571 57.255993 
L 204.151429 57.394118 
L 204.284286 57.246741 
L 204.55 56.089781 
L 204.948571 52.571032 
L 206.277143 38.600281 
L 206.808571 35.272424 
L 207.34 33.115511 
L 208.004286 31.363076 
L 209.997143 26.861308 
L 212.122857 20.878675 
L 212.388571 20.715006 
L 212.654286 20.822278 
L 212.92 21.200973 
L 213.318571 22.212172 
L 214.115714 25.104112 
L 215.045714 28.176863 
L 215.577143 29.300278 
L 216.108571 29.918456 
L 216.507143 30.07751 
L 216.905714 29.999616 
L 217.304286 29.700397 
L 217.835714 28.969795 
L 218.367143 27.863075 
L 219.031429 25.971241 
L 220.758571 20.583462 
L 221.024286 20.295878 
L 221.29 20.307536 
L 221.555714 20.631538 
L 221.954286 21.649532 
L 222.618571 24.242559 
L 223.681429 28.299495 
L 224.212857 29.610323 
L 224.744286 30.373347 
L 225.142857 30.622111 
L 225.541429 30.625395 
L 225.94 30.404066 
L 226.471429 29.776019 
L 227.002857 28.76474 
L 227.667143 26.942691 
L 228.597143 23.506767 
L 229.394286 20.658947 
L 229.792857 19.858883 
L 230.058571 19.721997 
L 230.324286 19.945549 
L 230.59 20.521962 
L 230.988571 21.933397 
L 232.848571 29.62921 
L 233.38 30.724083 
L 233.911429 31.27416 
L 234.31 31.384788 
L 234.708571 31.27048 
L 235.107143 30.94774 
L 235.638571 30.196567 
L 236.17 29.055512 
L 236.834286 27.024978 
L 237.631429 23.756741 
L 238.561429 19.95541 
L 238.96 19.114358 
L 239.225714 19.03729 
L 239.491429 19.39233 
L 239.89 20.67499 
L 240.554286 24.055974 
L 241.484286 28.712367 
L 242.148571 30.865489 
L 242.68 31.851386 
L 243.078571 32.240814 
L 243.477143 32.38705 
L 243.875714 32.32717 
L 244.407143 31.960302 
L 244.938571 31.267289 
L 245.47 30.209047 
L 246.134286 28.265218 
L 246.798571 25.524267 
L 248.392857 18.30501 
L 248.658571 18.010149 
L 248.791429 18.060352 
L 249.057143 18.568724 
L 249.455714 20.24444 
L 250.252857 25.275231 
L 251.05 29.751372 
L 251.581429 31.732208 
L 252.112857 32.973484 
L 252.644286 33.659665 
L 253.175714 33.958858 
L 253.707143 33.986183 
L 254.238571 33.801634 
L 254.77 33.417852 
L 255.301429 32.806779 
L 255.832857 31.902008 
L 256.364286 30.598598 
L 256.895714 28.75875 
L 257.56 25.506184 
L 259.154286 16.399861 
L 259.42 16.16468 
L 259.552857 16.335236 
L 259.818571 17.25289 
L 260.217143 19.828914 
L 261.811429 31.930551 
L 262.342857 34.141865 
L 262.874286 35.552124 
L 263.538571 36.648178 
L 265.531429 39.287011 
L 266.195714 40.825137 
L 266.86 43.091618 
L 267.524286 46.263455 
L 268.852857 53.290668 
L 269.118571 53.866326 
L 269.251429 53.93287 
L 269.384286 53.839166 
L 269.65 53.169461 
L 270.048571 51.116133 
L 271.908571 39.242569 
L 272.44 37.561016 
L 272.971429 36.536127 
L 273.502857 35.936776 
L 274.167143 35.52128 
L 275.495714 35.064671 
L 275.495714 35.064671 
" style="fill:none;stroke:#000000;stroke-linecap:square;stroke-width:1.5;"/>
   </g>
   <g id="line2d_2">
    <path clip-path="url(#pab5776413c)" d="M 275.628571 59.617647 
L 275.628571 10.7 
" style="fill:none;opacity:0.85;stroke:#000000;stroke-dasharray:3.7,1.6;stroke-dashoffset:0;"/>
   </g>
   <g id="line2d_3">
    <path clip-path="url(#pab5776413c)" d="M 288.914286 59.617647 
L 288.914286 10.7 
" style="fill:none;opacity:0.85;stroke:#000000;stroke-dasharray:3.7,1.6;stroke-dashoffset:0;"/>
   </g>
   <g id="patch_3">
    <path d="M 23.2 59.617647 
L 23.2 10.7 
" style="fill:none;stroke:#000000;stroke-linecap:square;stroke-linejoin:miter;stroke-width:0.8;"/>
   </g>
   <g id="patch_4">
    <path d="M 302.2 59.617647 
L 302.2 10.7 
" style="fill:none;stroke:#000000;stroke-linecap:square;stroke-linejoin:miter;stroke-width:0.8;"/>
   </g>
   <g id="patch_5">
    <path d="M 23.2 59.617647 
L 302.2 59.617647 
" style="fill:none;stroke:#000000;stroke-linecap:square;stroke-linejoin:miter;stroke-width:0.8;"/>
   </g>
   <g id="patch_6">
    <path d="M 23.2 10.7 
L 302.2 10.7 
" style="fill:none;stroke:#000000;stroke-linecap:square;stroke-linejoin:miter;stroke-width:0.8;"/>
   </g>
  </g>
  <g id="axes_2">
   <g id="patch_7">
    <path d="M 23.2 118.318824 
L 302.2 118.318824 
L 302.2 69.401176 
L 23.2 69.401176 
z
" style="fill:none;"/>
   </g>
   <g id="matplotlib.axis_3"/>
   <g id="matplotlib.axis_4">
    <g id="text_2">
     <!-- $X(t-\tau)$ -->
     <defs>
      <path d="M 10.203125 23 
Q 9.375 23 8.828125 23.625 
Q 8.296875 24.265625 8.296875 25 
Q 8.296875 25.734375 8.828125 26.359375 
Q 9.375 27 10.203125 27 
L 67.578125 27 
Q 68.359375 27 68.875 26.359375 
Q 69.390625 25.734375 69.390625 25 
Q 69.390625 24.265625 68.875 23.625 
Q 68.359375 23 67.578125 23 
z
" id="Cmsy10-a1"/>
      <path d="M 15.578125 1.515625 
Q 15.578125 2.203125 15.71875 2.59375 
L 26.21875 36.921875 
L 17.1875 36.921875 
Q 13.53125 36.921875 10.34375 34.625 
Q 7.171875 32.328125 5.078125 28.8125 
Q 4.890625 28.421875 4.5 28.421875 
L 3.328125 28.421875 
Q 2.390625 28.421875 2.390625 29.390625 
Q 2.390625 29.59375 2.59375 29.984375 
Q 5.859375 35.546875 9.59375 39.328125 
Q 13.328125 43.109375 18.015625 43.109375 
L 48.6875 43.109375 
Q 49.75 43.109375 50.484375 42.375 
Q 51.21875 41.65625 51.21875 40.578125 
Q 51.21875 39.109375 50.171875 38.015625 
Q 49.125 36.921875 47.609375 36.921875 
L 29.5 36.921875 
L 22.796875 2.390625 
Q 22.40625 0.78125 21.328125 -0.265625 
Q 20.265625 -1.3125 18.609375 -1.3125 
Q 17.328125 -1.3125 16.453125 -0.5 
Q 15.578125 0.296875 15.578125 1.515625 
z
" id="Cmmi10-bf"/>
     </defs>
     <g transform="translate(16.2 115.1)rotate(-90)scale(0.12 -0.12)">
      <use xlink:href="#Cmmi10-58"/>
      <use transform="translate(82.8125 0)" xlink:href="#Cmr10-28"/>
      <use transform="translate(121.630859 0)" xlink:href="#Cmmi10-74"/>
      <use transform="translate(175.273438 0)" xlink:href="#Cmsy10-a1"/>
      <use transform="translate(270.517578 0)" xlink:href="#Cmmi10-bf"/>
      <use transform="translate(314.21875 0)" xlink:href="#Cmr10-29"/>
     </g>
    </g>
   </g>
   <g id="line2d_4">
    <path clip-path="url(#p98d8b70781)" d="M 36.485714 81.672271 
L 37.415714 89.726591 
L 37.947143 92.711864 
L 38.478571 94.658931 
L 39.142857 96.188228 
L 41.268571 100.105109 
L 41.932857 102.169642 
L 42.73 105.534931 
L 43.792857 110.252723 
L 44.191429 111.130229 
L 44.457143 111.176146 
L 44.722857 110.743888 
L 45.121429 109.280233 
L 45.785714 105.559019 
L 46.715714 100.615796 
L 47.247143 98.742245 
L 47.778571 97.570641 
L 48.31 96.954785 
L 48.708571 96.7714 
L 49.107143 96.777917 
L 49.638571 97.040962 
L 50.17 97.584932 
L 50.701429 98.443044 
L 51.232857 99.688788 
L 51.897143 101.943252 
L 52.561429 105.097858 
L 53.89 111.933968 
L 54.155714 112.45163 
L 54.288571 112.492065 
L 54.421429 112.375826 
L 54.687143 111.675739 
L 55.085714 109.620219 
L 56.945714 98.014918 
L 57.477143 96.384772 
L 58.008571 95.399833 
L 58.54 94.83823 
L 59.204286 94.479722 
L 60.134286 94.276782 
L 63.987143 93.727417 
L 64.784286 93.309566 
L 65.448571 92.694038 
L 65.98 91.90527 
L 66.511429 90.701122 
L 67.042857 88.873333 
L 67.574286 86.151812 
L 68.105714 82.298735 
L 69.434286 71.817531 
L 69.567143 71.624706 
L 69.7 71.749227 
L 69.965714 72.965614 
L 70.364286 76.793974 
L 71.692857 91.884285 
L 72.224286 95.401107 
L 72.755714 97.664594 
L 73.42 99.493979 
L 76.21 105.961995 
L 76.874286 107.432706 
L 77.272857 107.961572 
L 77.538571 108.098451 
L 77.804286 108.041022 
L 78.07 107.78807 
L 78.468571 107.080749 
L 79.132857 105.333248 
L 80.195714 102.51787 
L 80.86 101.410767 
L 81.391429 100.991911 
L 81.79 100.942281 
L 82.188571 101.106564 
L 82.72 101.639378 
L 83.251429 102.508011 
L 84.048571 104.347256 
L 85.51 107.928694 
L 85.908571 108.351941 
L 86.174286 108.381029 
L 86.44 108.192851 
L 86.838571 107.528453 
L 87.37 106.113234 
L 88.831429 101.969078 
L 89.362857 101.092345 
L 89.894286 100.65727 
L 90.292857 100.606314 
L 90.691429 100.775984 
L 91.222857 101.326024 
L 91.754286 102.227284 
L 92.418571 103.800038 
L 94.145714 108.338808 
L 94.544286 108.701898 
L 94.81 108.653414 
L 95.075714 108.363535 
L 95.474286 107.521826 
L 96.138571 105.42409 
L 97.201429 102.093922 
L 97.732857 101.001042 
L 98.264286 100.381466 
L 98.662857 100.21182 
L 99.061429 100.275875 
L 99.46 100.559276 
L 99.991429 101.263048 
L 100.655714 102.6469 
L 101.452857 104.942609 
L 102.648571 108.43808 
L 103.047143 109.005038 
L 103.312857 109.073157 
L 103.578571 108.868962 
L 103.977143 108.079208 
L 104.508571 106.361811 
L 105.837143 101.745266 
L 106.368571 100.585973 
L 106.9 99.932738 
L 107.298571 99.749635 
L 107.697143 99.805305 
L 108.095714 100.083466 
L 108.627143 100.786491 
L 109.158571 101.865224 
L 109.822857 103.723392 
L 111.55 109.142151 
L 111.815714 109.464794 
L 112.081429 109.493867 
L 112.347143 109.212172 
L 112.745714 108.250754 
L 113.41 105.708349 
L 114.472857 101.624896 
L 115.004286 100.281262 
L 115.535714 99.486251 
L 115.934286 99.216031 
L 116.332857 99.193456 
L 116.731429 99.396995 
L 117.262857 100.002136 
L 117.794286 100.989745 
L 118.458571 102.780308 
L 119.255714 105.656934 
L 120.185714 109.046553 
L 120.584286 109.884981 
L 120.85 110.057099 
L 121.115714 109.872734 
L 121.381429 109.335003 
L 121.78 107.971392 
L 123.772857 99.934463 
L 124.304286 98.958076 
L 124.702857 98.575821 
L 125.101429 98.450616 
L 125.5 98.552326 
L 125.898571 98.863674 
L 126.43 99.600074 
L 126.961429 100.725169 
L 127.625714 102.732488 
L 128.422857 105.972054 
L 129.352857 109.772171 
L 129.751429 110.637241 
L 130.017143 110.738623 
L 130.282857 110.411795 
L 130.681429 109.171124 
L 131.345714 105.835614 
L 132.275714 101.181702 
L 132.94 99.011605 
L 133.471429 98.012601 
L 133.87 97.615608 
L 134.268571 97.464051 
L 134.667143 97.520712 
L 135.198571 97.886051 
L 135.73 98.579938 
L 136.261429 99.640489 
L 136.925714 101.586943 
L 137.59 104.324994 
L 139.184286 111.46545 
L 139.45 111.741602 
L 139.582857 111.683537 
L 139.848571 111.164109 
L 140.247143 109.485997 
L 141.044286 104.490553 
L 141.841429 100.060272 
L 142.372857 98.102304 
L 142.904286 96.878107 
L 143.435714 96.20621 
L 143.967143 95.921673 
L 144.498571 95.912301 
L 145.03 96.120985 
L 145.561429 96.538321 
L 146.092857 97.196297 
L 146.624286 98.165964 
L 147.155714 99.556594 
L 147.687143 101.506022 
L 148.351429 104.90038 
L 149.812857 113.213159 
L 150.078571 113.530882 
L 150.211429 113.410404 
L 150.477143 112.600441 
L 150.875714 110.171214 
L 152.602857 97.504648 
L 153.134286 95.487312 
L 153.665714 94.208865 
L 154.33 93.211356 
L 156.322857 90.708018 
L 156.987143 89.213045 
L 157.651429 86.989371 
L 158.315714 83.83256 
L 159.777143 76.065264 
L 160.042857 75.652982 
L 160.175714 75.688388 
L 160.441429 76.265072 
L 160.84 78.262148 
L 161.77 85.223528 
L 162.434286 89.373683 
L 162.965714 91.59914 
L 163.497143 93.013513 
L 164.028571 93.872508 
L 164.692857 94.499396 
L 166.021429 95.285268 
L 166.818571 95.889534 
L 167.482857 96.674734 
L 168.014286 97.613963 
L 168.545714 98.968357 
L 169.077143 100.904731 
L 169.741429 104.396689 
L 171.335714 114.315081 
L 171.468571 114.491864 
L 171.601429 114.449243 
L 171.867143 113.68702 
L 172.265714 111.057062 
L 173.992857 96.729014 
L 174.524286 94.459412 
L 175.055714 92.991044 
L 175.852857 91.545644 
L 177.048571 89.506314 
L 177.712857 87.867576 
L 178.377143 85.596759 
L 179.307143 81.376752 
L 180.104286 78.027399 
L 180.502857 77.288707 
L 180.635714 77.263093 
L 180.901429 77.574218 
L 181.167143 78.350621 
L 181.698571 80.956497 
L 183.027143 88.18154 
L 183.558571 89.970361 
L 184.09 91.070483 
L 184.621429 91.633377 
L 185.02 91.787489 
L 185.418571 91.758124 
L 185.95 91.470521 
L 186.481429 90.90412 
L 187.012857 90.02131 
L 187.544286 88.744822 
L 188.208571 86.439746 
L 188.872857 83.22606 
L 190.201429 76.425738 
L 190.467143 75.974191 
L 190.6 75.973124 
L 190.865714 76.447758 
L 191.264286 78.250087 
L 192.061429 83.89886 
L 192.858571 88.927919 
L 193.39 91.142769 
L 193.921429 92.552225 
L 194.452857 93.390161 
L 194.984286 93.86725 
L 195.648571 94.183 
L 196.844286 94.452413 
L 198.438571 94.855223 
L 199.235714 95.276426 
L 199.9 95.875903 
L 200.431429 96.626517 
L 200.962857 97.75111 
L 201.494286 99.429684 
L 202.025714 101.895039 
L 202.557143 105.362662 
L 204.018571 115.95717 
L 204.151429 116.095294 
L 204.284286 115.947917 
L 204.55 114.790958 
L 204.948571 111.272208 
L 206.277143 97.301457 
L 206.808571 93.9736 
L 207.34 91.816688 
L 208.004286 90.064252 
L 209.997143 85.562484 
L 212.122857 79.579851 
L 212.388571 79.416183 
L 212.654286 79.523455 
L 212.92 79.902149 
L 213.318571 80.913349 
L 214.115714 83.805288 
L 215.045714 86.878039 
L 215.577143 88.001455 
L 216.108571 88.619633 
L 216.507143 88.778687 
L 216.905714 88.700792 
L 217.304286 88.401574 
L 217.835714 87.670972 
L 218.367143 86.564252 
L 219.031429 84.672418 
L 220.758571 79.284638 
L 221.024286 78.997054 
L 221.29 79.008713 
L 221.555714 79.332714 
L 221.954286 80.350709 
L 222.618571 82.943736 
L 223.681429 87.000672 
L 224.212857 88.3115 
L 224.744286 89.074524 
L 225.142857 89.323287 
L 225.541429 89.326571 
L 225.94 89.105243 
L 226.471429 88.477195 
L 227.002857 87.465916 
L 227.667143 85.643867 
L 228.597143 82.207943 
L 229.394286 79.360123 
L 229.792857 78.56006 
L 230.058571 78.423174 
L 230.324286 78.646725 
L 230.59 79.223139 
L 230.988571 80.634574 
L 232.848571 88.330387 
L 233.38 89.425259 
L 233.911429 89.975336 
L 234.31 90.085965 
L 234.708571 89.971656 
L 235.107143 89.648917 
L 235.638571 88.897744 
L 236.17 87.756688 
L 236.834286 85.726155 
L 237.631429 82.457917 
L 238.561429 78.656586 
L 238.96 77.815534 
L 239.225714 77.738467 
L 239.491429 78.093507 
L 239.89 79.376166 
L 240.554286 82.757151 
L 241.484286 87.413543 
L 242.148571 89.566666 
L 242.68 90.552563 
L 243.078571 90.941991 
L 243.477143 91.088226 
L 243.875714 91.028346 
L 244.407143 90.661479 
L 244.938571 89.968466 
L 245.47 88.910224 
L 246.134286 86.966394 
L 246.798571 84.225443 
L 248.392857 77.006187 
L 248.658571 76.711326 
L 248.791429 76.761528 
L 249.057143 77.2699 
L 249.455714 78.945617 
L 250.252857 83.976407 
L 251.05 88.452548 
L 251.581429 90.433384 
L 252.112857 91.67466 
L 252.644286 92.360842 
L 253.175714 92.660035 
L 253.707143 92.68736 
L 254.238571 92.502811 
L 254.77 92.119029 
L 255.301429 91.507955 
L 255.832857 90.603184 
L 256.364286 89.299774 
L 256.895714 87.459927 
L 257.56 84.20736 
L 259.154286 75.101038 
L 259.42 74.865856 
L 259.552857 75.036413 
L 259.818571 75.954067 
L 260.217143 78.53009 
L 261.811429 90.631727 
L 262.342857 92.843041 
L 262.874286 94.253301 
L 263.538571 95.349354 
L 265.531429 97.988188 
L 266.195714 99.526313 
L 266.86 101.792795 
L 267.524286 104.964632 
L 268.852857 111.991844 
L 269.118571 112.567503 
L 269.251429 112.634046 
L 269.384286 112.540342 
L 269.65 111.870637 
L 270.048571 109.817309 
L 271.908571 97.943745 
L 272.44 96.262193 
L 272.971429 95.237303 
L 273.502857 94.637952 
L 274.167143 94.222456 
L 275.495714 93.765848 
L 276.558571 93.306513 
L 277.222857 92.816083 
L 277.887143 92.02916 
L 278.418571 91.058776 
L 278.95 89.62838 
L 279.481429 87.541573 
L 280.012857 84.589344 
L 280.81 78.553256 
L 281.474286 73.914974 
L 281.74 73.108191 
L 281.872857 73.064604 
L 282.005714 73.283309 
L 282.271429 74.495245 
L 282.67 77.87496 
L 283.998571 90.85922 
L 284.53 93.957915 
L 285.061429 95.970989 
L 285.725714 97.605546 
L 287.585714 101.557895 
L 288.382857 104.131951 
L 288.781429 105.641642 
L 288.781429 105.641642 
" style="fill:none;stroke:#481467;stroke-linecap:square;stroke-width:1.5;"/>
   </g>
   <g id="line2d_5">
    <path clip-path="url(#p98d8b70781)" d="M 36.485714 118.318824 
L 36.485714 69.401176 
" style="fill:none;opacity:0.85;stroke:#000000;stroke-dasharray:3.7,1.6;stroke-dashoffset:0;"/>
   </g>
   <g id="line2d_6">
    <path clip-path="url(#p98d8b70781)" d="M 288.914286 118.318824 
L 288.914286 69.401176 
" style="fill:none;opacity:0.85;stroke:#000000;stroke-dasharray:3.7,1.6;stroke-dashoffset:0;"/>
   </g>
   <g id="patch_8">
    <path d="M 23.2 118.318824 
L 23.2 69.401176 
" style="fill:none;stroke:#000000;stroke-linecap:square;stroke-linejoin:miter;stroke-width:0.8;"/>
   </g>
   <g id="patch_9">
    <path d="M 302.2 118.318824 
L 302.2 69.401176 
" style="fill:none;stroke:#000000;stroke-linecap:square;stroke-linejoin:miter;stroke-width:0.8;"/>
   </g>
   <g id="patch_10">
    <path d="M 23.2 118.318824 
L 302.2 118.318824 
" style="fill:none;stroke:#000000;stroke-linecap:square;stroke-linejoin:miter;stroke-width:0.8;"/>
   </g>
   <g id="patch_11">
    <path d="M 23.2 69.401176 
L 302.2 69.401176 
" style="fill:none;stroke:#000000;stroke-linecap:square;stroke-linejoin:miter;stroke-width:0.8;"/>
   </g>
  </g>
  <g id="axes_3">
   <g id="patch_12">
    <path d="M 23.2 177.02 
L 302.2 177.02 
L 302.2 128.102353 
L 23.2 128.102353 
z
" style="fill:none;"/>
   </g>
   <g id="matplotlib.axis_5">
    <g id="text_3">
     <!-- $t$ -->
     <g transform="translate(160.48 190.138125)scale(0.12 -0.12)">
      <use transform="translate(0 0.40625)" xlink:href="#Cmmi10-74"/>
     </g>
    </g>
   </g>
   <g id="matplotlib.axis_6">
    <g id="text_4">
     <!-- $X(t-2\tau)$ -->
     <defs>
      <path d="M 4.984375 0 
L 4.984375 2.6875 
Q 4.984375 2.9375 5.171875 3.21875 
L 20.703125 20.40625 
Q 24.21875 24.21875 26.40625 26.796875 
Q 28.609375 29.390625 30.75 32.765625 
Q 32.90625 36.140625 34.15625 39.625 
Q 35.40625 43.109375 35.40625 47.015625 
Q 35.40625 51.125 33.890625 54.859375 
Q 32.375 58.59375 29.375 60.84375 
Q 26.375 63.09375 22.125 63.09375 
Q 17.78125 63.09375 14.3125 60.46875 
Q 10.84375 57.859375 9.421875 53.71875 
Q 9.8125 53.8125 10.5 53.8125 
Q 12.75 53.8125 14.328125 52.296875 
Q 15.921875 50.78125 15.921875 48.390625 
Q 15.921875 46.09375 14.328125 44.5 
Q 12.75 42.921875 10.5 42.921875 
Q 8.15625 42.921875 6.5625 44.546875 
Q 4.984375 46.1875 4.984375 48.390625 
Q 4.984375 52.15625 6.390625 55.4375 
Q 7.8125 58.734375 10.46875 61.296875 
Q 13.140625 63.875 16.484375 65.234375 
Q 19.828125 66.609375 23.578125 66.609375 
Q 29.296875 66.609375 34.21875 64.1875 
Q 39.15625 61.765625 42.03125 57.34375 
Q 44.921875 52.9375 44.921875 47.015625 
Q 44.921875 42.671875 43.015625 38.765625 
Q 41.109375 34.859375 38.125 31.65625 
Q 35.15625 28.46875 30.515625 24.40625 
Q 25.875 20.359375 24.421875 19 
L 13.09375 8.109375 
L 22.703125 8.109375 
Q 29.78125 8.109375 34.546875 8.21875 
Q 39.3125 8.34375 39.59375 8.59375 
Q 40.765625 9.859375 42 17.828125 
L 44.921875 17.828125 
L 42.09375 0 
z
" id="Cmr10-32"/>
     </defs>
     <g transform="translate(16.2 176.801176)rotate(-90)scale(0.12 -0.12)">
      <use xlink:href="#Cmmi10-58"/>
      <use transform="translate(82.8125 0)" xlink:href="#Cmr10-28"/>
      <use transform="translate(121.630859 0)" xlink:href="#Cmmi10-74"/>
      <use transform="translate(175.273438 0)" xlink:href="#Cmsy10-a1"/>
      <use transform="translate(270.517578 0)" xlink:href="#Cmr10-32"/>
      <use transform="translate(320.517578 0)" xlink:href="#Cmmi10-bf"/>
      <use transform="translate(364.21875 0)" xlink:href="#Cmr10-29"/>
     </g>
    </g>
   </g>
   <g id="line2d_7">
    <path clip-path="url(#pe8f86fec00)" d="M 49.771429 155.851254 
L 50.302857 156.468941 
L 50.834286 157.415694 
L 51.365714 158.773488 
L 52.03 161.202659 
L 52.827143 165.279106 
L 53.757143 170.186504 
L 54.155714 171.152807 
L 54.288571 171.193242 
L 54.421429 171.077002 
L 54.687143 170.376915 
L 55.085714 168.321395 
L 56.945714 156.716095 
L 57.477143 155.085948 
L 58.008571 154.101009 
L 58.54 153.539407 
L 59.204286 153.180899 
L 60.134286 152.977959 
L 63.987143 152.428594 
L 64.784286 152.010743 
L 65.448571 151.395215 
L 65.98 150.606447 
L 66.511429 149.402298 
L 67.042857 147.574509 
L 67.574286 144.852989 
L 68.105714 140.999912 
L 69.434286 130.518707 
L 69.567143 130.325882 
L 69.7 130.450404 
L 69.965714 131.666791 
L 70.364286 135.49515 
L 71.692857 150.585461 
L 72.224286 154.102284 
L 72.755714 156.365771 
L 73.42 158.195155 
L 76.21 164.663171 
L 76.874286 166.133883 
L 77.272857 166.662749 
L 77.538571 166.799628 
L 77.804286 166.742199 
L 78.07 166.489246 
L 78.468571 165.781925 
L 79.132857 164.034425 
L 80.195714 161.219046 
L 80.86 160.111944 
L 81.391429 159.693088 
L 81.79 159.643458 
L 82.188571 159.80774 
L 82.72 160.340554 
L 83.251429 161.209188 
L 84.048571 163.048432 
L 85.51 166.629871 
L 85.908571 167.053118 
L 86.174286 167.082205 
L 86.44 166.894028 
L 86.838571 166.229629 
L 87.37 164.814411 
L 88.831429 160.670255 
L 89.362857 159.793521 
L 89.894286 159.358447 
L 90.292857 159.307491 
L 90.691429 159.47716 
L 91.222857 160.027201 
L 91.754286 160.92846 
L 92.418571 162.501214 
L 94.145714 167.039984 
L 94.544286 167.403075 
L 94.81 167.35459 
L 95.075714 167.064711 
L 95.474286 166.223002 
L 96.138571 164.125266 
L 97.201429 160.795099 
L 97.732857 159.702218 
L 98.264286 159.082643 
L 98.662857 158.912996 
L 99.061429 158.977052 
L 99.46 159.260453 
L 99.991429 159.964225 
L 100.655714 161.348076 
L 101.452857 163.643785 
L 102.648571 167.139257 
L 103.047143 167.706215 
L 103.312857 167.774333 
L 103.578571 167.570139 
L 103.977143 166.780385 
L 104.508571 165.062987 
L 105.837143 160.446442 
L 106.368571 159.287149 
L 106.9 158.633915 
L 107.298571 158.450812 
L 107.697143 158.506482 
L 108.095714 158.784643 
L 108.627143 159.487667 
L 109.158571 160.566401 
L 109.822857 162.424568 
L 111.55 167.843328 
L 111.815714 168.165971 
L 112.081429 168.195043 
L 112.347143 167.913348 
L 112.745714 166.95193 
L 113.41 164.409526 
L 114.472857 160.326073 
L 115.004286 158.982439 
L 115.535714 158.187428 
L 115.934286 157.917207 
L 116.332857 157.894632 
L 116.731429 158.098171 
L 117.262857 158.703312 
L 117.794286 159.690922 
L 118.458571 161.481484 
L 119.255714 164.35811 
L 120.185714 167.74773 
L 120.584286 168.586158 
L 120.85 168.758276 
L 121.115714 168.57391 
L 121.381429 168.036179 
L 121.78 166.672568 
L 123.772857 158.63564 
L 124.304286 157.659252 
L 124.702857 157.276997 
L 125.101429 157.151792 
L 125.5 157.253503 
L 125.898571 157.56485 
L 126.43 158.30125 
L 126.961429 159.426346 
L 127.625714 161.433665 
L 128.422857 164.67323 
L 129.352857 168.473348 
L 129.751429 169.338417 
L 130.017143 169.4398 
L 130.282857 169.112972 
L 130.681429 167.8723 
L 131.345714 164.536791 
L 132.275714 159.882878 
L 132.94 157.712782 
L 133.471429 156.713777 
L 133.87 156.316784 
L 134.268571 156.165227 
L 134.667143 156.221889 
L 135.198571 156.587227 
L 135.73 157.281114 
L 136.261429 158.341666 
L 136.925714 160.28812 
L 137.59 163.026171 
L 139.184286 170.166626 
L 139.45 170.442779 
L 139.582857 170.384714 
L 139.848571 169.865285 
L 140.247143 168.187174 
L 141.044286 163.19173 
L 141.841429 158.761448 
L 142.372857 156.80348 
L 142.904286 155.579283 
L 143.435714 154.907386 
L 143.967143 154.62285 
L 144.498571 154.613477 
L 145.03 154.822161 
L 145.561429 155.239497 
L 146.092857 155.897473 
L 146.624286 156.867141 
L 147.155714 158.257771 
L 147.687143 160.207198 
L 148.351429 163.601556 
L 149.812857 171.914336 
L 150.078571 172.232058 
L 150.211429 172.11158 
L 150.477143 171.301617 
L 150.875714 168.87239 
L 152.602857 156.205824 
L 153.134286 154.188489 
L 153.665714 152.910041 
L 154.33 151.912532 
L 156.322857 149.409195 
L 156.987143 147.914221 
L 157.651429 145.690548 
L 158.315714 142.533736 
L 159.777143 134.766441 
L 160.042857 134.354159 
L 160.175714 134.389564 
L 160.441429 134.966249 
L 160.84 136.963324 
L 161.77 143.924705 
L 162.434286 148.074859 
L 162.965714 150.300317 
L 163.497143 151.71469 
L 164.028571 152.573684 
L 164.692857 153.200572 
L 166.021429 153.986445 
L 166.818571 154.590711 
L 167.482857 155.375911 
L 168.014286 156.31514 
L 168.545714 157.669533 
L 169.077143 159.605907 
L 169.741429 163.097865 
L 171.335714 173.016258 
L 171.468571 173.193041 
L 171.601429 173.150419 
L 171.867143 172.388197 
L 172.265714 169.758238 
L 173.992857 155.430191 
L 174.524286 153.160588 
L 175.055714 151.692221 
L 175.852857 150.24682 
L 177.048571 148.207491 
L 177.712857 146.568752 
L 178.377143 144.297936 
L 179.307143 140.077929 
L 180.104286 136.728575 
L 180.502857 135.989884 
L 180.635714 135.96427 
L 180.901429 136.275394 
L 181.167143 137.051797 
L 181.698571 139.657673 
L 183.027143 146.882716 
L 183.558571 148.671537 
L 184.09 149.771659 
L 184.621429 150.334553 
L 185.02 150.488666 
L 185.418571 150.4593 
L 185.95 150.171697 
L 186.481429 149.605296 
L 187.012857 148.722487 
L 187.544286 147.445998 
L 188.208571 145.140923 
L 188.872857 141.927237 
L 190.201429 135.126915 
L 190.467143 134.675368 
L 190.6 134.6743 
L 190.865714 135.148935 
L 191.264286 136.951263 
L 192.061429 142.600036 
L 192.858571 147.629095 
L 193.39 149.843945 
L 193.921429 151.253402 
L 194.452857 152.091337 
L 194.984286 152.568426 
L 195.648571 152.884177 
L 196.844286 153.15359 
L 198.438571 153.5564 
L 199.235714 153.977603 
L 199.9 154.57708 
L 200.431429 155.327694 
L 200.962857 156.452287 
L 201.494286 158.130861 
L 202.025714 160.596215 
L 202.557143 164.063838 
L 204.018571 174.658346 
L 204.151429 174.796471 
L 204.284286 174.649093 
L 204.55 173.492134 
L 204.948571 169.973385 
L 206.277143 156.002633 
L 206.808571 152.674777 
L 207.34 150.517864 
L 208.004286 148.765429 
L 209.997143 144.263661 
L 212.122857 138.281028 
L 212.388571 138.117359 
L 212.654286 138.224631 
L 212.92 138.603326 
L 213.318571 139.614525 
L 214.115714 142.506465 
L 215.045714 145.579215 
L 215.577143 146.702631 
L 216.108571 147.320809 
L 216.507143 147.479863 
L 216.905714 147.401969 
L 217.304286 147.10275 
L 217.835714 146.372148 
L 218.367143 145.265428 
L 219.031429 143.373594 
L 220.758571 137.985815 
L 221.024286 137.698231 
L 221.29 137.709889 
L 221.555714 138.033891 
L 221.954286 139.051885 
L 222.618571 141.644912 
L 223.681429 145.701848 
L 224.212857 147.012676 
L 224.744286 147.7757 
L 225.142857 148.024464 
L 225.541429 148.027748 
L 225.94 147.806419 
L 226.471429 147.178372 
L 227.002857 146.167092 
L 227.667143 144.345043 
L 228.597143 140.90912 
L 229.394286 138.0613 
L 229.792857 137.261236 
L 230.058571 137.12435 
L 230.324286 137.347901 
L 230.59 137.924315 
L 230.988571 139.33575 
L 232.848571 147.031563 
L 233.38 148.126436 
L 233.911429 148.676513 
L 234.31 148.787141 
L 234.708571 148.672833 
L 235.107143 148.350093 
L 235.638571 147.59892 
L 236.17 146.457865 
L 236.834286 144.427331 
L 237.631429 141.159094 
L 238.561429 137.357763 
L 238.96 136.516711 
L 239.225714 136.439643 
L 239.491429 136.794683 
L 239.89 138.077342 
L 240.554286 141.458327 
L 241.484286 146.11472 
L 242.148571 148.267842 
L 242.68 149.253739 
L 243.078571 149.643167 
L 243.477143 149.789403 
L 243.875714 149.729523 
L 244.407143 149.362655 
L 244.938571 148.669642 
L 245.47 147.6114 
L 246.134286 145.667571 
L 246.798571 142.92662 
L 248.392857 135.707363 
L 248.658571 135.412502 
L 248.791429 135.462705 
L 249.057143 135.971077 
L 249.455714 137.646793 
L 250.252857 142.677583 
L 251.05 147.153724 
L 251.581429 149.134561 
L 252.112857 150.375837 
L 252.644286 151.062018 
L 253.175714 151.361211 
L 253.707143 151.388536 
L 254.238571 151.203987 
L 254.77 150.820205 
L 255.301429 150.209132 
L 255.832857 149.304361 
L 256.364286 148.000951 
L 256.895714 146.161103 
L 257.56 142.908537 
L 259.154286 133.802214 
L 259.42 133.567033 
L 259.552857 133.737589 
L 259.818571 134.655243 
L 260.217143 137.231267 
L 261.811429 149.332904 
L 262.342857 151.544218 
L 262.874286 152.954477 
L 263.538571 154.050531 
L 265.531429 156.689364 
L 266.195714 158.22749 
L 266.86 160.493971 
L 267.524286 163.665808 
L 268.852857 170.693021 
L 269.118571 171.268679 
L 269.251429 171.335223 
L 269.384286 171.241519 
L 269.65 170.571813 
L 270.048571 168.518486 
L 271.908571 156.644921 
L 272.44 154.963369 
L 272.971429 153.93848 
L 273.502857 153.339129 
L 274.167143 152.923633 
L 275.495714 152.467024 
L 276.558571 152.007689 
L 277.222857 151.51726 
L 277.887143 150.730337 
L 278.418571 149.759953 
L 278.95 148.329557 
L 279.481429 146.24275 
L 280.012857 143.290521 
L 280.81 137.254433 
L 281.474286 132.616151 
L 281.74 131.809367 
L 281.872857 131.76578 
L 282.005714 131.984485 
L 282.271429 133.196421 
L 282.67 136.576136 
L 283.998571 149.560396 
L 284.53 152.659091 
L 285.061429 154.672165 
L 285.725714 156.306723 
L 287.585714 160.259072 
L 288.382857 162.833127 
L 289.844286 167.991748 
L 290.242857 168.585459 
L 290.508571 168.574807 
L 290.774286 168.215815 
L 291.172857 167.08672 
L 291.837143 164.233828 
L 292.767143 160.300089 
L 293.431429 158.465897 
L 293.962857 157.652713 
L 294.361429 157.374532 
L 294.76 157.342081 
L 295.158571 157.530805 
L 295.69 158.107873 
L 296.221429 159.06349 
L 296.885714 160.834317 
L 297.682857 163.809321 
L 298.878571 168.527436 
L 299.277143 169.234282 
L 299.542857 169.230603 
L 299.808571 168.815246 
L 300.207143 167.496885 
L 301.004286 163.490975 
L 301.801429 159.767224 
L 302.067143 158.832442 
L 302.067143 158.832442 
" style="fill:none;stroke:#238a8d;stroke-linecap:square;stroke-width:1.5;"/>
   </g>
   <g id="line2d_8">
    <path clip-path="url(#pe8f86fec00)" d="M 36.485714 177.02 
L 36.485714 128.102353 
" style="fill:none;opacity:0.85;stroke:#000000;stroke-dasharray:3.7,1.6;stroke-dashoffset:0;"/>
   </g>
   <g id="line2d_9">
    <path clip-path="url(#pe8f86fec00)" d="M 49.771429 177.02 
L 49.771429 128.102353 
" style="fill:none;opacity:0.85;stroke:#000000;stroke-dasharray:3.7,1.6;stroke-dashoffset:0;"/>
   </g>
   <g id="patch_13">
    <path d="M 23.2 177.02 
L 23.2 128.102353 
" style="fill:none;stroke:#000000;stroke-linecap:square;stroke-linejoin:miter;stroke-width:0.8;"/>
   </g>
   <g id="patch_14">
    <path d="M 302.2 177.02 
L 302.2 128.102353 
" style="fill:none;stroke:#000000;stroke-linecap:square;stroke-linejoin:miter;stroke-width:0.8;"/>
   </g>
   <g id="patch_15">
    <path d="M 23.2 177.02 
L 302.2 177.02 
" style="fill:none;stroke:#000000;stroke-linecap:square;stroke-linejoin:miter;stroke-width:0.8;"/>
   </g>
   <g id="patch_16">
    <path d="M 23.2 128.102353 
L 302.2 128.102353 
" style="fill:none;stroke:#000000;stroke-linecap:square;stroke-linejoin:miter;stroke-width:0.8;"/>
   </g>
  </g>
 </g>
 <defs>
  <clipPath id="pab5776413c">
   <rect height="48.917647" width="279" x="23.2" y="10.7"/>
  </clipPath>
  <clipPath id="p98d8b70781">
   <rect height="48.917647" width="279" x="23.2" y="69.401176"/>
  </clipPath>
  <clipPath id="pe8f86fec00">
   <rect height="48.917647" width="279" x="23.2" y="128.102353"/>
  </clipPath>
 </defs>
</svg>
