<?xml version="1.0" encoding="utf-8" standalone="no"?>
<!DOCTYPE svg PUBLIC "-//W3C//DTD SVG 1.1//EN"
  "http://www.w3.org/Graphics/SVG/1.1/DTD/svg11.dtd">
<!-- Created with matplotlib (http://matplotlib.org/) -->
<svg height="377.831875pt" version="1.1" viewBox="0 0 333.772344 377.831875" width="333.772344pt" xmlns="http://www.w3.org/2000/svg" xmlns:xlink="http://www.w3.org/1999/xlink">
 <defs>
  <style type="text/css">
*{stroke-linecap:butt;stroke-linejoin:round;}
  </style>
 </defs>
 <g id="figure_1">
  <g id="patch_1">
   <path d="M -0 377.831875 
L 333.772344 377.831875 
L 333.772344 0 
L -0 0 
z
" style="fill:none;"/>
  </g>
  <g id="axes_1">
   <g id="patch_2">
    <path d="M 41.055937 46.16 
L 320.055938 46.16 
L 320.055938 9.2 
L 41.055937 9.2 
z
" style="fill:none;"/>
   </g>
   <g id="matplotlib.axis_1">
    <g id="xtick_1">
     <g id="line2d_1">
      <defs>
       <path d="M 0 0 
L 0 -3.5 
" id="m8d8d704b8f" style="stroke:#000000;stroke-width:0.4;"/>
      </defs>
      <g>
       <use style="stroke:#000000;stroke-width:0.4;" x="41.055937" xlink:href="#m8d8d704b8f" y="46.16"/>
      </g>
     </g>
    </g>
    <g id="xtick_2">
     <g id="line2d_2">
      <g>
       <use style="stroke:#000000;stroke-width:0.4;" x="134.055937" xlink:href="#m8d8d704b8f" y="46.16"/>
      </g>
     </g>
    </g>
    <g id="xtick_3">
     <g id="line2d_3">
      <g>
       <use style="stroke:#000000;stroke-width:0.4;" x="227.055937" xlink:href="#m8d8d704b8f" y="46.16"/>
      </g>
     </g>
    </g>
    <g id="xtick_4">
     <g id="line2d_4">
      <g>
       <use style="stroke:#000000;stroke-width:0.4;" x="320.055938" xlink:href="#m8d8d704b8f" y="46.16"/>
      </g>
     </g>
    </g>
   </g>
   <g id="matplotlib.axis_2">
    <g id="ytick_1">
     <g id="line2d_5">
      <defs>
       <path d="M 0 0 
L 3.5 0 
" id="m6d5a4c243a" style="stroke:#000000;stroke-width:0.4;"/>
      </defs>
      <g>
       <use style="stroke:#000000;stroke-width:0.4;" x="41.055937" xlink:href="#m6d5a4c243a" y="37.946667"/>
      </g>
     </g>
     <g id="text_1">
      <!-- −1 -->
      <defs>
       <path d="M 10.59375 35.296875 
L 73.1875 35.296875 
L 73.1875 27.390625 
L 10.59375 27.390625 
z
" id="DejaVuSerif-2212"/>
       <path d="M 14.203125 0 
L 14.203125 5.171875 
L 26.90625 5.171875 
L 26.90625 65.828125 
L 12.203125 56.296875 
L 12.203125 62.703125 
L 29.984375 74.21875 
L 36.71875 74.21875 
L 36.71875 5.171875 
L 49.421875 5.171875 
L 49.421875 0 
z
" id="DejaVuSerif-31"/>
      </defs>
      <g transform="translate(22.81375 41.745885)scale(0.1 -0.1)">
       <use xlink:href="#DejaVuSerif-2212"/>
       <use x="83.789062" xlink:href="#DejaVuSerif-31"/>
      </g>
     </g>
    </g>
    <g id="ytick_2">
     <g id="line2d_6">
      <g>
       <use style="stroke:#000000;stroke-width:0.4;" x="41.055937" xlink:href="#m6d5a4c243a" y="27.68"/>
      </g>
     </g>
     <g id="text_2">
      <!-- 0 -->
      <defs>
       <path d="M 31.78125 3.421875 
Q 39.265625 3.421875 42.96875 11.625 
Q 46.6875 19.828125 46.6875 36.375 
Q 46.6875 52.984375 42.96875 61.1875 
Q 39.265625 69.390625 31.78125 69.390625 
Q 24.3125 69.390625 20.59375 61.1875 
Q 16.890625 52.984375 16.890625 36.375 
Q 16.890625 19.828125 20.59375 11.625 
Q 24.3125 3.421875 31.78125 3.421875 
z
M 31.78125 -1.421875 
Q 19.921875 -1.421875 13.25 8.53125 
Q 6.59375 18.5 6.59375 36.375 
Q 6.59375 54.296875 13.25 64.25 
Q 19.921875 74.21875 31.78125 74.21875 
Q 43.703125 74.21875 50.34375 64.25 
Q 56.984375 54.296875 56.984375 36.375 
Q 56.984375 18.5 50.34375 8.53125 
Q 43.703125 -1.421875 31.78125 -1.421875 
z
" id="DejaVuSerif-30"/>
      </defs>
      <g transform="translate(31.193437 31.479219)scale(0.1 -0.1)">
       <use xlink:href="#DejaVuSerif-30"/>
      </g>
     </g>
    </g>
    <g id="ytick_3">
     <g id="line2d_7">
      <g>
       <use style="stroke:#000000;stroke-width:0.4;" x="41.055937" xlink:href="#m6d5a4c243a" y="17.413333"/>
      </g>
     </g>
     <g id="text_3">
      <!-- 1 -->
      <g transform="translate(31.193437 21.212552)scale(0.1 -0.1)">
       <use xlink:href="#DejaVuSerif-31"/>
      </g>
     </g>
    </g>
   </g>
   <g id="line2d_8">
    <path clip-path="url(#pdb4eb63eec)" d="M 41.055937 27.68 
L 42.870572 22.902886 
L 44.004718 20.554959 
L 44.912035 19.224908 
L 45.592523 18.57777 
L 46.273011 18.22322 
L 46.953498 18.13285 
L 47.633986 18.261927 
L 48.541303 18.676869 
L 51.490084 20.297325 
L 52.397401 20.478736 
L 53.304718 20.43979 
L 54.438864 20.135887 
L 57.841303 18.978463 
L 58.97545 18.958452 
L 60.109596 19.177297 
L 64.192523 20.247684 
L 65.326669 20.153577 
L 66.687645 19.783848 
L 69.182767 19.020757 
L 70.316913 18.939225 
L 71.451059 19.112456 
L 72.812035 19.586893 
L 74.853498 20.346606 
L 75.760816 20.485705 
L 76.668133 20.415932 
L 77.57545 20.126115 
L 78.709596 19.517662 
L 80.751059 18.344202 
L 81.658377 18.13285 
L 82.338864 18.22322 
L 83.019352 18.57777 
L 83.69984 19.224908 
L 84.380328 20.173387 
L 85.287645 21.88196 
L 86.421791 24.597264 
L 90.051059 33.949371 
L 90.958377 35.535924 
L 91.638864 36.384285 
L 92.319352 36.931899 
L 92.99984 37.194344 
L 93.680328 37.205912 
L 94.360816 37.015798 
L 95.494962 36.413473 
L 97.536425 35.233885 
L 98.443742 34.944068 
L 99.351059 34.874295 
L 100.258377 35.013394 
L 101.619352 35.489866 
L 103.660816 36.247544 
L 104.794962 36.420775 
L 105.929108 36.339243 
L 107.290084 35.971165 
L 109.785206 35.206423 
L 110.919352 35.112316 
L 112.053498 35.251788 
L 113.641303 35.733513 
L 115.682767 36.339243 
L 116.816913 36.420775 
L 117.951059 36.247544 
L 119.312035 35.773107 
L 121.353498 35.013394 
L 122.260816 34.874295 
L 123.168133 34.944068 
L 124.07545 35.233885 
L 125.209596 35.842338 
L 127.251059 37.015798 
L 128.158377 37.22715 
L 128.838864 37.13678 
L 129.519352 36.78223 
L 130.19984 36.135092 
L 130.880328 35.186613 
L 131.787645 33.47804 
L 132.921791 30.762736 
L 136.551059 21.410629 
L 137.458377 19.824076 
L 138.138864 18.975715 
L 138.819352 18.428101 
L 139.49984 18.165656 
L 140.180328 18.154088 
L 140.860816 18.344202 
L 141.994962 18.946527 
L 144.036425 20.126115 
L 144.943742 20.415932 
L 145.851059 20.485705 
L 146.758377 20.346606 
L 148.119352 19.870134 
L 150.160816 19.112456 
L 151.294962 18.939225 
L 152.429108 19.020757 
L 153.790084 19.388835 
L 156.285206 20.153577 
L 157.419352 20.247684 
L 158.553498 20.108212 
L 160.141303 19.626487 
L 162.182767 19.020757 
L 163.316913 18.939225 
L 164.451059 19.112456 
L 165.812035 19.586893 
L 167.853498 20.346606 
L 168.760816 20.485705 
L 169.668133 20.415932 
L 170.57545 20.126115 
L 171.709596 19.517662 
L 173.751059 18.344202 
L 174.658377 18.13285 
L 175.338864 18.22322 
L 176.019352 18.57777 
L 176.69984 19.224908 
L 177.380328 20.173387 
L 178.287645 21.88196 
L 179.421791 24.597264 
L 183.051059 33.949371 
L 183.958377 35.535924 
L 184.638864 36.384285 
L 185.319352 36.931899 
L 185.99984 37.194344 
L 186.680328 37.205912 
L 187.360816 37.015798 
L 188.494962 36.413473 
L 190.536425 35.233885 
L 191.443742 34.944068 
L 192.351059 34.874295 
L 193.258377 35.013394 
L 194.619352 35.489866 
L 196.660816 36.247544 
L 197.794962 36.420775 
L 198.929108 36.339243 
L 200.290084 35.971165 
L 202.785206 35.206423 
L 203.919352 35.112316 
L 205.053498 35.251788 
L 206.641303 35.733513 
L 208.682767 36.339243 
L 209.816913 36.420775 
L 210.951059 36.247544 
L 212.312035 35.773107 
L 214.353498 35.013394 
L 215.260816 34.874295 
L 216.168133 34.944068 
L 217.07545 35.233885 
L 218.209596 35.842338 
L 220.251059 37.015798 
L 221.158377 37.22715 
L 221.838864 37.13678 
L 222.519352 36.78223 
L 223.19984 36.135092 
L 223.880328 35.186613 
L 224.787645 33.47804 
L 225.921791 30.762736 
L 229.551059 21.410629 
L 230.458377 19.824076 
L 231.138864 18.975715 
L 231.819352 18.428101 
L 232.49984 18.165656 
L 233.180328 18.154088 
L 233.860816 18.344202 
L 234.994962 18.946527 
L 237.036425 20.126115 
L 237.943742 20.415932 
L 238.851059 20.485705 
L 239.758377 20.346606 
L 241.119352 19.870134 
L 243.160816 19.112456 
L 244.294962 18.939225 
L 245.429108 19.020757 
L 246.790084 19.388835 
L 249.285206 20.153577 
L 250.419352 20.247684 
L 251.553498 20.108212 
L 253.141303 19.626487 
L 255.182767 19.020757 
L 256.316913 18.939225 
L 257.451059 19.112456 
L 258.812035 19.586893 
L 260.853498 20.346606 
L 261.760816 20.485705 
L 262.668133 20.415932 
L 263.57545 20.126115 
L 264.709596 19.517662 
L 266.751059 18.344202 
L 267.658377 18.13285 
L 268.338864 18.22322 
L 269.019352 18.57777 
L 269.69984 19.224908 
L 270.380328 20.173387 
L 271.287645 21.88196 
L 272.421791 24.597264 
L 276.051059 33.949371 
L 276.958377 35.535924 
L 277.638864 36.384285 
L 278.319352 36.931899 
L 278.99984 37.194344 
L 279.680328 37.205912 
L 280.360816 37.015798 
L 281.494962 36.413473 
L 283.536425 35.233885 
L 284.443742 34.944068 
L 285.351059 34.874295 
L 286.258377 35.013394 
L 287.619352 35.489866 
L 289.660816 36.247544 
L 290.794962 36.420775 
L 291.929108 36.339243 
L 293.290084 35.971165 
L 295.785206 35.206423 
L 296.919352 35.112316 
L 298.053498 35.251788 
L 299.641303 35.733513 
L 301.682767 36.339243 
L 302.816913 36.420775 
L 303.951059 36.247544 
L 305.312035 35.773107 
L 307.353498 35.013394 
L 308.260816 34.874295 
L 309.168133 34.944068 
L 310.07545 35.233885 
L 311.209596 35.842338 
L 313.251059 37.015798 
L 314.158377 37.22715 
L 314.838864 37.13678 
L 315.519352 36.78223 
L 316.19984 36.135092 
L 316.880328 35.186613 
L 317.787645 33.47804 
L 318.921791 30.762736 
L 319.829108 28.308823 
L 319.829108 28.308823 
" style="fill:none;stroke:#c6383a;stroke-linecap:square;stroke-width:1.5;"/>
   </g>
   <g id="patch_3">
    <path d="M 41.055937 46.16 
L 41.055937 9.2 
" style="fill:none;stroke:#000000;stroke-linecap:square;stroke-linejoin:miter;stroke-width:0.8;"/>
   </g>
   <g id="patch_4">
    <path d="M 41.055937 46.16 
L 320.055938 46.16 
" style="fill:none;stroke:#000000;stroke-linecap:square;stroke-linejoin:miter;stroke-width:0.8;"/>
   </g>
  </g>
  <g id="axes_2">
   <g id="patch_5">
    <path d="M 41.055937 194 
L 320.055938 194 
L 320.055938 157.04 
L 41.055937 157.04 
z
" style="fill:none;"/>
   </g>
   <g id="matplotlib.axis_3">
    <g id="xtick_5">
     <g id="line2d_9">
      <g>
       <use style="stroke:#000000;stroke-width:0.4;" x="41.055937" xlink:href="#m8d8d704b8f" y="194"/>
      </g>
     </g>
    </g>
    <g id="xtick_6">
     <g id="line2d_10">
      <g>
       <use style="stroke:#000000;stroke-width:0.4;" x="134.055937" xlink:href="#m8d8d704b8f" y="194"/>
      </g>
     </g>
    </g>
    <g id="xtick_7">
     <g id="line2d_11">
      <g>
       <use style="stroke:#000000;stroke-width:0.4;" x="227.055937" xlink:href="#m8d8d704b8f" y="194"/>
      </g>
     </g>
    </g>
    <g id="xtick_8">
     <g id="line2d_12">
      <g>
       <use style="stroke:#000000;stroke-width:0.4;" x="320.055938" xlink:href="#m8d8d704b8f" y="194"/>
      </g>
     </g>
    </g>
   </g>
   <g id="matplotlib.axis_4">
    <g id="ytick_4">
     <g id="line2d_13">
      <g>
       <use style="stroke:#000000;stroke-width:0.4;" x="41.055937" xlink:href="#m6d5a4c243a" y="185.786667"/>
      </g>
     </g>
     <g id="text_4">
      <!-- −1 -->
      <g transform="translate(22.81375 189.585885)scale(0.1 -0.1)">
       <use xlink:href="#DejaVuSerif-2212"/>
       <use x="83.789062" xlink:href="#DejaVuSerif-31"/>
      </g>
     </g>
    </g>
    <g id="ytick_5">
     <g id="line2d_14">
      <g>
       <use style="stroke:#000000;stroke-width:0.4;" x="41.055937" xlink:href="#m6d5a4c243a" y="175.52"/>
      </g>
     </g>
     <g id="text_5">
      <!-- 0 -->
      <g transform="translate(31.193437 179.319219)scale(0.1 -0.1)">
       <use xlink:href="#DejaVuSerif-30"/>
      </g>
     </g>
    </g>
    <g id="ytick_6">
     <g id="line2d_15">
      <g>
       <use style="stroke:#000000;stroke-width:0.4;" x="41.055937" xlink:href="#m6d5a4c243a" y="165.253333"/>
      </g>
     </g>
     <g id="text_6">
      <!-- 1 -->
      <g transform="translate(31.193437 169.052552)scale(0.1 -0.1)">
       <use xlink:href="#DejaVuSerif-31"/>
      </g>
     </g>
    </g>
    <g id="text_7">
     <!-- Amplitude -->
     <defs>
      <path d="M 20.015625 26.421875 
L 46.78125 26.421875 
L 33.40625 61.078125 
z
M -0.59375 0 
L -0.59375 5.171875 
L 5.8125 5.171875 
L 31.78125 72.90625 
L 39.984375 72.90625 
L 66.015625 5.171875 
L 73.1875 5.171875 
L 73.1875 0 
L 46.6875 0 
L 46.6875 5.171875 
L 54.78125 5.171875 
L 48.6875 21.1875 
L 18.015625 21.1875 
L 11.921875 5.171875 
L 19.921875 5.171875 
L 19.921875 0 
z
" id="DejaVuSerif-41"/>
      <path d="M 51.8125 41.796875 
Q 54.390625 47.515625 58.421875 50.421875 
Q 62.453125 53.328125 67.828125 53.328125 
Q 75.984375 53.328125 79.984375 48.265625 
Q 83.984375 43.21875 83.984375 33.015625 
L 83.984375 5.171875 
L 92.09375 5.171875 
L 92.09375 0 
L 67.1875 0 
L 67.1875 5.171875 
L 75 5.171875 
L 75 31.984375 
Q 75 39.9375 72.65625 43.3125 
Q 70.3125 46.6875 64.890625 46.6875 
Q 58.890625 46.6875 55.734375 42.140625 
Q 52.59375 37.59375 52.59375 28.90625 
L 52.59375 5.171875 
L 60.40625 5.171875 
L 60.40625 0 
L 35.796875 0 
L 35.796875 5.171875 
L 43.609375 5.171875 
L 43.609375 32.328125 
Q 43.609375 40.09375 41.265625 43.390625 
Q 38.921875 46.6875 33.5 46.6875 
Q 27.484375 46.6875 24.328125 42.140625 
Q 21.1875 37.59375 21.1875 28.90625 
L 21.1875 5.171875 
L 29 5.171875 
L 29 0 
L 4.109375 0 
L 4.109375 5.171875 
L 12.203125 5.171875 
L 12.203125 46.78125 
L 3.609375 46.78125 
L 3.609375 51.90625 
L 21.1875 51.90625 
L 21.1875 42.671875 
Q 23.6875 47.859375 27.53125 50.59375 
Q 31.390625 53.328125 36.28125 53.328125 
Q 42.328125 53.328125 46.375 50.3125 
Q 50.4375 47.3125 51.8125 41.796875 
z
" id="DejaVuSerif-6d"/>
      <path d="M 20.515625 28.515625 
L 20.515625 23.390625 
Q 20.515625 14.015625 24.09375 9.109375 
Q 27.6875 4.203125 34.515625 4.203125 
Q 41.40625 4.203125 44.9375 9.71875 
Q 48.484375 15.234375 48.484375 25.984375 
Q 48.484375 36.765625 44.9375 42.234375 
Q 41.40625 47.703125 34.515625 47.703125 
Q 27.6875 47.703125 24.09375 42.765625 
Q 20.515625 37.84375 20.515625 28.515625 
z
M 11.53125 46.6875 
L 2.875 46.6875 
L 2.875 51.90625 
L 20.515625 51.90625 
L 20.515625 43.796875 
Q 23.140625 48.6875 27.21875 51 
Q 31.296875 53.328125 37.3125 53.328125 
Q 46.875 53.328125 52.921875 45.75 
Q 58.984375 38.1875 58.984375 25.984375 
Q 58.984375 13.765625 52.921875 6.171875 
Q 46.875 -1.421875 37.3125 -1.421875 
Q 31.296875 -1.421875 27.21875 0.890625 
Q 23.140625 3.21875 20.515625 8.109375 
L 20.515625 -15.578125 
L 29 -15.578125 
L 29 -20.796875 
L 2.875 -20.796875 
L 2.875 -15.578125 
L 11.53125 -15.578125 
z
" id="DejaVuSerif-70"/>
      <path d="M 20.515625 5.171875 
L 29 5.171875 
L 29 0 
L 2.875 0 
L 2.875 5.171875 
L 11.53125 5.171875 
L 11.53125 70.796875 
L 2.875 70.796875 
L 2.875 75.984375 
L 20.515625 75.984375 
z
" id="DejaVuSerif-6c"/>
      <path d="M 9.71875 68.015625 
Q 9.71875 70.265625 11.34375 71.921875 
Q 12.984375 73.578125 15.28125 73.578125 
Q 17.53125 73.578125 19.15625 71.921875 
Q 20.796875 70.265625 20.796875 68.015625 
Q 20.796875 65.71875 19.1875 64.109375 
Q 17.578125 62.5 15.28125 62.5 
Q 12.984375 62.5 11.34375 64.109375 
Q 9.71875 65.71875 9.71875 68.015625 
z
M 21.1875 5.171875 
L 29.6875 5.171875 
L 29.6875 0 
L 3.609375 0 
L 3.609375 5.171875 
L 12.203125 5.171875 
L 12.203125 46.6875 
L 3.609375 46.6875 
L 3.609375 51.90625 
L 21.1875 51.90625 
z
" id="DejaVuSerif-69"/>
      <path d="M 10.796875 46.6875 
L 2.875 46.6875 
L 2.875 51.90625 
L 10.796875 51.90625 
L 10.796875 68.015625 
L 19.828125 68.015625 
L 19.828125 51.90625 
L 36.71875 51.90625 
L 36.71875 46.6875 
L 19.828125 46.6875 
L 19.828125 13.71875 
Q 19.828125 7.125 21.09375 5.265625 
Q 22.359375 3.421875 25.78125 3.421875 
Q 29.296875 3.421875 30.90625 5.484375 
Q 32.515625 7.5625 32.625 12.203125 
L 39.40625 12.203125 
Q 39.015625 5.125 35.546875 1.84375 
Q 32.078125 -1.421875 25 -1.421875 
Q 17.234375 -1.421875 14.015625 2.015625 
Q 10.796875 5.46875 10.796875 13.71875 
z
" id="DejaVuSerif-74"/>
      <path d="M 35.40625 51.90625 
L 52.203125 51.90625 
L 52.203125 5.171875 
L 60.6875 5.171875 
L 60.6875 0 
L 43.21875 0 
L 43.21875 9.1875 
Q 40.71875 4 36.765625 1.28125 
Q 32.8125 -1.421875 27.59375 -1.421875 
Q 18.953125 -1.421875 14.875 3.484375 
Q 10.796875 8.40625 10.796875 18.890625 
L 10.796875 46.6875 
L 2.6875 46.6875 
L 2.6875 51.90625 
L 19.828125 51.90625 
L 19.828125 21.6875 
Q 19.828125 12.203125 22.140625 8.6875 
Q 24.46875 5.171875 30.421875 5.171875 
Q 36.671875 5.171875 39.9375 9.765625 
Q 43.21875 14.359375 43.21875 23.09375 
L 43.21875 46.6875 
L 35.40625 46.6875 
z
" id="DejaVuSerif-75"/>
      <path d="M 52.484375 5.171875 
L 61.078125 5.171875 
L 61.078125 0 
L 43.5 0 
L 43.5 8.109375 
Q 40.875 3.21875 36.796875 0.890625 
Q 32.71875 -1.421875 26.703125 -1.421875 
Q 17.140625 -1.421875 11.0625 6.171875 
Q 4.984375 13.765625 4.984375 25.984375 
Q 4.984375 38.1875 11.03125 45.75 
Q 17.09375 53.328125 26.703125 53.328125 
Q 32.71875 53.328125 36.796875 51 
Q 40.875 48.6875 43.5 43.796875 
L 43.5 70.796875 
L 35.015625 70.796875 
L 35.015625 75.984375 
L 52.484375 75.984375 
z
M 43.5 23.390625 
L 43.5 28.515625 
Q 43.5 37.84375 39.90625 42.765625 
Q 36.328125 47.703125 29.5 47.703125 
Q 22.5625 47.703125 19.015625 42.234375 
Q 15.484375 36.765625 15.484375 25.984375 
Q 15.484375 15.234375 19.015625 9.71875 
Q 22.5625 4.203125 29.5 4.203125 
Q 36.328125 4.203125 39.90625 9.109375 
Q 43.5 14.015625 43.5 23.390625 
z
" id="DejaVuSerif-64"/>
      <path d="M 54.203125 25 
L 15.484375 25 
L 15.484375 24.609375 
Q 15.484375 14.109375 19.4375 8.765625 
Q 23.390625 3.421875 31.109375 3.421875 
Q 37.015625 3.421875 40.796875 6.515625 
Q 44.578125 9.625 46.09375 15.71875 
L 53.328125 15.71875 
Q 51.171875 7.171875 45.375 2.875 
Q 39.59375 -1.421875 30.171875 -1.421875 
Q 18.796875 -1.421875 11.890625 6.078125 
Q 4.984375 13.578125 4.984375 25.984375 
Q 4.984375 38.28125 11.765625 45.796875 
Q 18.5625 53.328125 29.59375 53.328125 
Q 41.359375 53.328125 47.65625 46.0625 
Q 53.953125 38.8125 54.203125 25 
z
M 43.609375 30.171875 
Q 43.3125 39.265625 39.765625 43.875 
Q 36.234375 48.484375 29.59375 48.484375 
Q 23.390625 48.484375 19.828125 43.84375 
Q 16.265625 39.203125 15.484375 30.171875 
z
" id="DejaVuSerif-65"/>
     </defs>
     <g transform="translate(16.318125 206.889687)rotate(-90)scale(0.12 -0.12)">
      <use xlink:href="#DejaVuSerif-41"/>
      <use x="72.216797" xlink:href="#DejaVuSerif-6d"/>
      <use x="167.041016" xlink:href="#DejaVuSerif-70"/>
      <use x="231.054688" xlink:href="#DejaVuSerif-6c"/>
      <use x="263.037109" xlink:href="#DejaVuSerif-69"/>
      <use x="295.019531" xlink:href="#DejaVuSerif-74"/>
      <use x="335.205078" xlink:href="#DejaVuSerif-75"/>
      <use x="399.609375" xlink:href="#DejaVuSerif-64"/>
      <use x="463.623047" xlink:href="#DejaVuSerif-65"/>
     </g>
    </g>
   </g>
   <g id="line2d_16">
    <path clip-path="url(#p54fd554d49)" d="M 41.055937 163.2 
L 42.190084 161.849727 
L 42.870572 161.310648 
L 43.551059 161.018778 
L 44.231547 160.990898 
L 44.912035 161.225065 
L 45.592523 161.700411 
L 46.49984 162.641114 
L 48.087645 164.751909 
L 49.67545 166.755554 
L 50.582767 167.587557 
L 51.490084 168.107332 
L 52.397401 168.318328 
L 53.304718 168.284127 
L 56.026669 167.962671 
L 56.707157 168.147195 
L 57.387645 168.534566 
L 58.068133 169.147962 
L 58.97545 170.321361 
L 60.109596 172.286423 
L 61.92423 176.057366 
L 63.512035 179.168007 
L 64.419352 180.563191 
L 65.326669 181.569823 
L 66.007157 182.051367 
L 66.687645 182.306104 
L 67.368133 182.357216 
L 68.27545 182.170355 
L 69.409596 181.673451 
L 72.131547 180.384018 
L 73.492523 180.059634 
L 75.080328 179.949156 
L 80.070572 179.973812 
L 81.204718 180.252537 
L 82.112035 180.713029 
L 83.019352 181.434113 
L 83.926669 182.426093 
L 85.060816 183.993326 
L 88.236425 188.70955 
L 89.143742 189.575787 
L 89.82423 189.952809 
L 90.504718 190.069416 
L 91.185206 189.921199 
L 91.865694 189.522803 
L 92.773011 188.661325 
L 93.907157 187.227043 
L 96.17545 184.284446 
L 97.082767 183.452443 
L 97.990084 182.932668 
L 98.897401 182.721672 
L 99.804718 182.755873 
L 102.526669 183.077329 
L 103.207157 182.892805 
L 103.887645 182.505434 
L 104.568133 181.892038 
L 105.47545 180.718639 
L 106.609596 178.753577 
L 108.42423 174.982634 
L 110.012035 171.871993 
L 110.919352 170.476809 
L 111.826669 169.470177 
L 112.507157 168.988633 
L 113.187645 168.733896 
L 113.868133 168.682784 
L 114.77545 168.869645 
L 115.909596 169.366549 
L 118.631547 170.655982 
L 119.992523 170.980366 
L 121.580328 171.090844 
L 126.570572 171.066188 
L 127.704718 170.787463 
L 128.612035 170.326971 
L 129.519352 169.605887 
L 130.426669 168.613907 
L 131.560816 167.046674 
L 134.736425 162.33045 
L 135.643742 161.464213 
L 136.32423 161.087191 
L 137.004718 160.970584 
L 137.685206 161.118801 
L 138.365694 161.517197 
L 139.273011 162.378675 
L 140.407157 163.812957 
L 142.67545 166.755554 
L 143.582767 167.587557 
L 144.490084 168.107332 
L 145.397401 168.318328 
L 146.304718 168.284127 
L 149.026669 167.962671 
L 149.707157 168.147195 
L 150.387645 168.534566 
L 151.068133 169.147962 
L 151.97545 170.321361 
L 153.109596 172.286423 
L 154.92423 176.057366 
L 156.512035 179.168007 
L 157.419352 180.563191 
L 158.326669 181.569823 
L 159.007157 182.051367 
L 159.687645 182.306104 
L 160.368133 182.357216 
L 161.27545 182.170355 
L 162.409596 181.673451 
L 165.131547 180.384018 
L 166.492523 180.059634 
L 168.080328 179.949156 
L 173.070572 179.973812 
L 174.204718 180.252537 
L 175.112035 180.713029 
L 176.019352 181.434113 
L 176.926669 182.426093 
L 178.060816 183.993326 
L 181.236425 188.70955 
L 182.143742 189.575787 
L 182.82423 189.952809 
L 183.504718 190.069416 
L 184.185206 189.921199 
L 184.865694 189.522803 
L 185.773011 188.661325 
L 186.907157 187.227043 
L 189.17545 184.284446 
L 190.082767 183.452443 
L 190.990084 182.932668 
L 191.897401 182.721672 
L 192.804718 182.755873 
L 195.526669 183.077329 
L 196.207157 182.892805 
L 196.887645 182.505434 
L 197.568133 181.892038 
L 198.47545 180.718639 
L 199.609596 178.753577 
L 201.42423 174.982634 
L 203.012035 171.871993 
L 203.919352 170.476809 
L 204.826669 169.470177 
L 205.507157 168.988633 
L 206.187645 168.733896 
L 206.868133 168.682784 
L 207.77545 168.869645 
L 208.909596 169.366549 
L 211.631547 170.655982 
L 212.992523 170.980366 
L 214.580328 171.090844 
L 219.570572 171.066188 
L 220.704718 170.787463 
L 221.612035 170.326971 
L 222.519352 169.605887 
L 223.426669 168.613907 
L 224.560816 167.046674 
L 227.736425 162.33045 
L 228.643742 161.464213 
L 229.32423 161.087191 
L 230.004718 160.970584 
L 230.685206 161.118801 
L 231.365694 161.517197 
L 232.273011 162.378675 
L 233.407157 163.812957 
L 235.67545 166.755554 
L 236.582767 167.587557 
L 237.490084 168.107332 
L 238.397401 168.318328 
L 239.304718 168.284127 
L 242.026669 167.962671 
L 242.707157 168.147195 
L 243.387645 168.534566 
L 244.068133 169.147962 
L 244.97545 170.321361 
L 246.109596 172.286423 
L 247.92423 176.057366 
L 249.512035 179.168007 
L 250.419352 180.563191 
L 251.326669 181.569823 
L 252.007157 182.051367 
L 252.687645 182.306104 
L 253.368133 182.357216 
L 254.27545 182.170355 
L 255.409596 181.673451 
L 258.131547 180.384018 
L 259.492523 180.059634 
L 261.080328 179.949156 
L 266.070572 179.973812 
L 267.204718 180.252537 
L 268.112035 180.713029 
L 269.019352 181.434113 
L 269.926669 182.426093 
L 271.060816 183.993326 
L 274.236425 188.70955 
L 275.143742 189.575787 
L 275.82423 189.952809 
L 276.504718 190.069416 
L 277.185206 189.921199 
L 277.865694 189.522803 
L 278.773011 188.661325 
L 279.907157 187.227043 
L 282.17545 184.284446 
L 283.082767 183.452443 
L 283.990084 182.932668 
L 284.897401 182.721672 
L 285.804718 182.755873 
L 288.526669 183.077329 
L 289.207157 182.892805 
L 289.887645 182.505434 
L 290.568133 181.892038 
L 291.47545 180.718639 
L 292.609596 178.753577 
L 294.42423 174.982634 
L 296.012035 171.871993 
L 296.919352 170.476809 
L 297.826669 169.470177 
L 298.507157 168.988633 
L 299.187645 168.733896 
L 299.868133 168.682784 
L 300.77545 168.869645 
L 301.909596 169.366549 
L 304.631547 170.655982 
L 305.992523 170.980366 
L 307.580328 171.090844 
L 312.570572 171.066188 
L 313.704718 170.787463 
L 314.612035 170.326971 
L 315.519352 169.605887 
L 316.426669 168.613907 
L 317.560816 167.046674 
L 319.829108 163.521544 
L 319.829108 163.521544 
" style="fill:none;stroke:#4a7ca5;stroke-linecap:square;stroke-width:1.5;"/>
   </g>
   <g id="patch_6">
    <path d="M 41.055937 194 
L 41.055937 157.04 
" style="fill:none;stroke:#000000;stroke-linecap:square;stroke-linejoin:miter;stroke-width:0.8;"/>
   </g>
   <g id="patch_7">
    <path d="M 41.055937 194 
L 320.055938 194 
" style="fill:none;stroke:#000000;stroke-linecap:square;stroke-linejoin:miter;stroke-width:0.8;"/>
   </g>
  </g>
  <g id="axes_3">
   <g id="patch_8">
    <path d="M 41.055937 341.84 
L 320.055938 341.84 
L 320.055938 304.88 
L 41.055937 304.88 
z
" style="fill:none;"/>
   </g>
   <g id="matplotlib.axis_5">
    <g id="xtick_9">
     <g id="line2d_17">
      <g>
       <use style="stroke:#000000;stroke-width:0.4;" x="41.055937" xlink:href="#m8d8d704b8f" y="341.84"/>
      </g>
     </g>
     <g id="text_8">
      <!-- 0 -->
      <g transform="translate(37.874688 352.938438)scale(0.1 -0.1)">
       <use xlink:href="#DejaVuSerif-30"/>
      </g>
     </g>
    </g>
    <g id="xtick_10">
     <g id="line2d_18">
      <g>
       <use style="stroke:#000000;stroke-width:0.4;" x="134.055937" xlink:href="#m8d8d704b8f" y="341.84"/>
      </g>
     </g>
     <g id="text_9">
      <!-- T -->
      <defs>
       <path d="M 19.09375 0 
L 19.09375 5.171875 
L 28.421875 5.171875 
L 28.421875 67.09375 
L 6.984375 67.09375 
L 6.984375 55.71875 
L 0.984375 55.71875 
L 0.984375 72.90625 
L 65.71875 72.90625 
L 65.71875 55.71875 
L 59.71875 55.71875 
L 59.71875 67.09375 
L 38.28125 67.09375 
L 38.28125 5.171875 
L 47.609375 5.171875 
L 47.609375 0 
z
" id="DejaVuSerif-54"/>
      </defs>
      <g transform="translate(130.720781 352.938438)scale(0.1 -0.1)">
       <use xlink:href="#DejaVuSerif-54"/>
      </g>
     </g>
    </g>
    <g id="xtick_11">
     <g id="line2d_19">
      <g>
       <use style="stroke:#000000;stroke-width:0.4;" x="227.055937" xlink:href="#m8d8d704b8f" y="341.84"/>
      </g>
     </g>
     <g id="text_10">
      <!-- 2T -->
      <defs>
       <path d="M 12.796875 55.515625 
L 7.328125 55.515625 
L 7.328125 68.5 
Q 12.546875 71.296875 17.84375 72.75 
Q 23.140625 74.21875 28.21875 74.21875 
Q 39.59375 74.21875 46.1875 68.703125 
Q 52.78125 63.1875 52.78125 53.71875 
Q 52.78125 43.015625 37.84375 28.125 
Q 36.671875 27 36.078125 26.421875 
L 17.671875 8.015625 
L 48.09375 8.015625 
L 48.09375 17 
L 53.8125 17 
L 53.8125 0 
L 6.78125 0 
L 6.78125 5.328125 
L 28.90625 27.390625 
Q 36.234375 34.71875 39.359375 40.84375 
Q 42.484375 46.96875 42.484375 53.71875 
Q 42.484375 61.078125 38.640625 65.234375 
Q 34.8125 69.390625 28.078125 69.390625 
Q 21.09375 69.390625 17.28125 65.921875 
Q 13.484375 62.453125 12.796875 55.515625 
z
" id="DejaVuSerif-32"/>
      </defs>
      <g transform="translate(220.539531 352.938438)scale(0.1 -0.1)">
       <use xlink:href="#DejaVuSerif-32"/>
       <use x="63.623047" xlink:href="#DejaVuSerif-54"/>
      </g>
     </g>
    </g>
    <g id="xtick_12">
     <g id="line2d_20">
      <g>
       <use style="stroke:#000000;stroke-width:0.4;" x="320.055938" xlink:href="#m8d8d704b8f" y="341.84"/>
      </g>
     </g>
     <g id="text_11">
      <!-- 3T -->
      <defs>
       <path d="M 9.71875 69.828125 
Q 15.4375 71.96875 20.671875 73.09375 
Q 25.921875 74.21875 30.515625 74.21875 
Q 41.21875 74.21875 47.21875 69.59375 
Q 53.21875 64.984375 53.21875 56.78125 
Q 53.21875 50.203125 49.0625 45.78125 
Q 44.921875 41.359375 37.3125 39.796875 
Q 46.296875 38.53125 51.25 33.28125 
Q 56.203125 28.03125 56.203125 19.671875 
Q 56.203125 9.46875 49.34375 4.015625 
Q 42.484375 -1.421875 29.59375 -1.421875 
Q 23.875 -1.421875 18.421875 -0.1875 
Q 12.984375 1.03125 7.625 3.515625 
L 7.625 17.671875 
L 13.09375 17.671875 
Q 13.578125 10.640625 17.828125 7.03125 
Q 22.078125 3.421875 29.78125 3.421875 
Q 37.25 3.421875 41.578125 7.734375 
Q 45.90625 12.0625 45.90625 19.578125 
Q 45.90625 28.171875 41.453125 32.59375 
Q 37.015625 37.015625 28.421875 37.015625 
L 23.78125 37.015625 
L 23.78125 42 
L 26.21875 42 
Q 34.765625 42 39.03125 45.53125 
Q 43.3125 49.078125 43.3125 56.203125 
Q 43.3125 62.59375 39.796875 65.984375 
Q 36.28125 69.390625 29.6875 69.390625 
Q 23.09375 69.390625 19.453125 66.265625 
Q 15.828125 63.140625 15.1875 56.984375 
L 9.71875 56.984375 
z
" id="DejaVuSerif-33"/>
      </defs>
      <g transform="translate(313.539531 352.938438)scale(0.1 -0.1)">
       <use xlink:href="#DejaVuSerif-33"/>
       <use x="63.623047" xlink:href="#DejaVuSerif-54"/>
      </g>
     </g>
    </g>
    <g id="text_12">
     <!-- t -->
     <g transform="translate(178.144688 368.13625)scale(0.12 -0.12)">
      <use xlink:href="#DejaVuSerif-74"/>
     </g>
    </g>
   </g>
   <g id="matplotlib.axis_6">
    <g id="ytick_7">
     <g id="line2d_21">
      <g>
       <use style="stroke:#000000;stroke-width:0.4;" x="41.055937" xlink:href="#m6d5a4c243a" y="333.626667"/>
      </g>
     </g>
     <g id="text_13">
      <!-- −1 -->
      <g transform="translate(22.81375 337.425885)scale(0.1 -0.1)">
       <use xlink:href="#DejaVuSerif-2212"/>
       <use x="83.789062" xlink:href="#DejaVuSerif-31"/>
      </g>
     </g>
    </g>
    <g id="ytick_8">
     <g id="line2d_22">
      <g>
       <use style="stroke:#000000;stroke-width:0.4;" x="41.055937" xlink:href="#m6d5a4c243a" y="323.36"/>
      </g>
     </g>
     <g id="text_14">
      <!-- 0 -->
      <g transform="translate(31.193437 327.159219)scale(0.1 -0.1)">
       <use xlink:href="#DejaVuSerif-30"/>
      </g>
     </g>
    </g>
    <g id="ytick_9">
     <g id="line2d_23">
      <g>
       <use style="stroke:#000000;stroke-width:0.4;" x="41.055937" xlink:href="#m6d5a4c243a" y="313.093333"/>
      </g>
     </g>
     <g id="text_15">
      <!-- 1 -->
      <g transform="translate(31.193437 316.892552)scale(0.1 -0.1)">
       <use xlink:href="#DejaVuSerif-31"/>
      </g>
     </g>
    </g>
   </g>
   <g id="line2d_24">
    <path clip-path="url(#p7842f300a7)" d="M 41.055937 336.660775 
L 41.736425 336.073195 
L 42.416913 335.17361 
L 43.32423 333.521603 
L 44.458377 330.877181 
L 48.087645 321.843353 
L 48.994962 320.339513 
L 49.67545 319.542106 
L 50.355937 319.030694 
L 51.036425 318.785544 
L 51.716913 318.769178 
L 52.62423 319.013578 
L 56.026669 320.366735 
L 56.933986 320.361498 
L 57.841303 320.132806 
L 58.97545 319.597958 
L 62.377889 317.789283 
L 63.512035 317.525961 
L 64.873011 317.464449 
L 67.368133 317.457535 
L 68.502279 317.207397 
L 69.636425 316.715308 
L 70.997401 315.864839 
L 73.492523 314.241174 
L 74.626669 313.788274 
L 75.760816 313.606792 
L 77.121791 313.678408 
L 79.390084 313.864528 
L 80.297401 313.714256 
L 81.204718 313.349418 
L 82.338864 312.594194 
L 85.741303 309.920759 
L 86.421791 309.751971 
L 87.102279 309.839524 
L 87.782767 310.220251 
L 88.463255 310.912402 
L 89.143742 311.913235 
L 90.051059 313.682779 
L 91.185206 316.425628 
L 94.133986 323.951727 
L 95.041303 325.68945 
L 95.94862 326.944272 
L 96.629108 327.549792 
L 97.309596 327.880336 
L 97.990084 327.967859 
L 98.897401 327.789512 
L 100.258377 327.17504 
L 101.846181 326.495823 
L 102.753498 326.332976 
L 103.660816 326.395639 
L 104.568133 326.675322 
L 105.929108 327.384466 
L 108.42423 328.761291 
L 109.558377 329.115849 
L 110.692523 329.251709 
L 114.77545 329.443449 
L 115.909596 329.887596 
L 117.270572 330.700302 
L 120.219352 332.590143 
L 121.353498 332.989642 
L 122.487645 333.119269 
L 123.84862 333.012445 
L 125.663255 332.846811 
L 126.570572 332.949188 
L 127.477889 333.258319 
L 128.385206 333.787841 
L 129.746181 334.901325 
L 131.560816 336.425581 
L 132.468133 336.881058 
L 133.14862 336.969491 
L 133.829108 336.787455 
L 134.509596 336.303945 
L 135.190084 335.507523 
L 136.097401 333.979216 
L 137.231547 331.44559 
L 141.314474 321.422238 
L 142.221791 320.041537 
L 142.902279 319.340431 
L 143.582767 318.920912 
L 144.263255 318.756958 
L 144.943742 318.806028 
L 145.851059 319.107487 
L 148.79984 320.332442 
L 149.707157 320.384449 
L 150.614474 320.209357 
L 151.74862 319.721374 
L 155.604718 317.718293 
L 156.738864 317.499393 
L 158.09984 317.470716 
L 160.368133 317.457535 
L 161.502279 317.207397 
L 162.636425 316.715308 
L 163.997401 315.864839 
L 166.492523 314.241174 
L 167.626669 313.788274 
L 168.760816 313.606792 
L 170.121791 313.678408 
L 172.390084 313.864528 
L 173.297401 313.714256 
L 174.204718 313.349418 
L 175.338864 312.594194 
L 178.741303 309.920759 
L 179.421791 309.751971 
L 180.102279 309.839524 
L 180.782767 310.220251 
L 181.463255 310.912402 
L 182.143742 311.913235 
L 183.051059 313.682779 
L 184.185206 316.425628 
L 187.133986 323.951727 
L 188.041303 325.68945 
L 188.94862 326.944272 
L 189.629108 327.549792 
L 190.309596 327.880336 
L 190.990084 327.967859 
L 191.897401 327.789512 
L 193.258377 327.17504 
L 194.846181 326.495823 
L 195.753498 326.332976 
L 196.660816 326.395639 
L 197.568133 326.675322 
L 198.929108 327.384466 
L 201.42423 328.761291 
L 202.558377 329.115849 
L 203.692523 329.251709 
L 207.77545 329.443449 
L 208.909596 329.887596 
L 210.270572 330.700302 
L 213.219352 332.590143 
L 214.353498 332.989642 
L 215.487645 333.119269 
L 216.84862 333.012445 
L 218.663255 332.846811 
L 219.570572 332.949188 
L 220.477889 333.258319 
L 221.385206 333.787841 
L 222.746181 334.901325 
L 224.560816 336.425581 
L 225.468133 336.881058 
L 226.14862 336.969491 
L 226.829108 336.787455 
L 227.509596 336.303945 
L 228.190084 335.507523 
L 229.097401 333.979216 
L 230.231547 331.44559 
L 234.314474 321.422238 
L 235.221791 320.041537 
L 235.902279 319.340431 
L 236.582767 318.920912 
L 237.263255 318.756958 
L 237.943742 318.806028 
L 238.851059 319.107487 
L 241.79984 320.332442 
L 242.707157 320.384449 
L 243.614474 320.209357 
L 244.74862 319.721374 
L 248.604718 317.718293 
L 249.738864 317.499393 
L 251.09984 317.470716 
L 253.368133 317.457535 
L 254.502279 317.207397 
L 255.636425 316.715308 
L 256.997401 315.864839 
L 259.492523 314.241174 
L 260.626669 313.788274 
L 261.760816 313.606792 
L 263.121791 313.678408 
L 265.390084 313.864528 
L 266.297401 313.714256 
L 267.204718 313.349418 
L 268.338864 312.594194 
L 271.741303 309.920759 
L 272.421791 309.751971 
L 273.102279 309.839524 
L 273.782767 310.220251 
L 274.463255 310.912402 
L 275.143742 311.913235 
L 276.051059 313.682779 
L 277.185206 316.425628 
L 280.133986 323.951727 
L 281.041303 325.68945 
L 281.94862 326.944272 
L 282.629108 327.549792 
L 283.309596 327.880336 
L 283.990084 327.967859 
L 284.897401 327.789512 
L 286.258377 327.17504 
L 287.846181 326.495823 
L 288.753498 326.332976 
L 289.660816 326.395639 
L 290.568133 326.675322 
L 291.929108 327.384466 
L 294.42423 328.761291 
L 295.558377 329.115849 
L 296.692523 329.251709 
L 300.77545 329.443449 
L 301.909596 329.887596 
L 303.270572 330.700302 
L 306.219352 332.590143 
L 307.353498 332.989642 
L 308.487645 333.119269 
L 309.84862 333.012445 
L 311.663255 332.846811 
L 312.570572 332.949188 
L 313.477889 333.258319 
L 314.385206 333.787841 
L 315.746181 334.901325 
L 317.560816 336.425581 
L 318.468133 336.881058 
L 319.14862 336.969491 
L 319.829108 336.787455 
L 319.829108 336.787455 
" style="fill:none;stroke:#5ba059;stroke-linecap:square;stroke-width:1.5;"/>
   </g>
   <g id="patch_9">
    <path d="M 41.055937 341.84 
L 41.055937 304.88 
" style="fill:none;stroke:#000000;stroke-linecap:square;stroke-linejoin:miter;stroke-width:0.8;"/>
   </g>
   <g id="patch_10">
    <path d="M 41.055937 341.84 
L 320.055938 341.84 
" style="fill:none;stroke:#000000;stroke-linecap:square;stroke-linejoin:miter;stroke-width:0.8;"/>
   </g>
  </g>
 </g>
 <defs>
  <clipPath id="pdb4eb63eec">
   <rect height="36.96" width="279" x="41.055937" y="9.2"/>
  </clipPath>
  <clipPath id="p54fd554d49">
   <rect height="36.96" width="279" x="41.055937" y="157.04"/>
  </clipPath>
  <clipPath id="p7842f300a7">
   <rect height="36.96" width="279" x="41.055937" y="304.88"/>
  </clipPath>
 </defs>
</svg>
