<?xml version="1.0" encoding="utf-8" standalone="no"?>
<!DOCTYPE svg PUBLIC "-//W3C//DTD SVG 1.1//EN"
  "http://www.w3.org/Graphics/SVG/1.1/DTD/svg11.dtd">
<!-- Created with matplotlib (http://matplotlib.org/) -->
<svg height="576pt" version="1.1" viewBox="0 0 360 576" width="360pt" xmlns="http://www.w3.org/2000/svg" xmlns:xlink="http://www.w3.org/1999/xlink">
 <defs>
  <style type="text/css">
*{stroke-linecap:butt;stroke-linejoin:round;}
  </style>
 </defs>
 <g id="figure_1">
  <g id="patch_1">
   <path d="M 0 576 
L 360 576 
L 360 0 
L 0 0 
z
" style="fill:none;"/>
  </g>
  <g id="patch_2">
   <path d="M 54 280.32 
L 324 280.32 
L 324 69.12 
L 54 69.12 
z
" style="fill:none;"/>
  </g>
  <g id="pane3d_1">
   <g id="patch_3">
    <path d="M 87.030737 226.761673 
L 192.648649 196.808897 
L 192.648649 91.370013 
L 83.199631 114.978972 
" style="fill:#f2f2f2;opacity:0.5;stroke:#d3d3d3;stroke-linejoin:miter;"/>
   </g>
  </g>
  <g id="pane3d_2">
   <g id="patch_4">
    <path d="M 192.648649 196.808897 
L 298.266561 226.761673 
L 302.097666 114.978972 
L 192.648649 91.370013 
" style="fill:#ebebeb;opacity:0.92;stroke:#d3d3d3;stroke-linejoin:miter;"/>
   </g>
  </g>
  <g id="pane3d_3">
   <g id="patch_5">
    <path d="M 87.030737 226.761673 
L 192.648649 261.085484 
L 298.266561 226.761673 
L 192.648649 196.808897 
" style="fill:#f5f5f5;opacity:0.96;stroke:#d3d3d3;stroke-linejoin:miter;"/>
   </g>
  </g>
  <g id="axis3d_1">
   <g id="line2d_1">
    <path d="M 87.030737 226.761673 
L 192.648649 261.085484 
" style="fill:none;stroke:#d3d3d3;stroke-linecap:square;stroke-width:0.8;"/>
   </g>
   <g id="text_1">
    <!-- $X(t)$ -->
    <defs>
     <path d="M 3.609375 0 
Q 2.59375 0 2.59375 1.3125 
Q 2.640625 1.5625 2.8125 2.1875 
Q 2.984375 2.828125 3.25 3.171875 
Q 3.515625 3.515625 4 3.515625 
Q 13.09375 3.515625 19.578125 10.296875 
Q 19.671875 10.40625 19.796875 10.453125 
Q 19.921875 10.5 19.921875 10.5 
L 41.796875 34.078125 
L 29.890625 62.796875 
Q 28.859375 64.109375 26.5625 64.453125 
Q 24.265625 64.796875 21.1875 64.796875 
Q 20.21875 64.796875 20.21875 66.109375 
Q 20.5625 67.390625 20.75 67.84375 
Q 20.953125 68.3125 21.921875 68.3125 
L 46.921875 68.3125 
Q 47.90625 68.3125 47.90625 67 
Q 47.859375 66.75 47.6875 66.109375 
Q 47.515625 65.484375 47.234375 65.140625 
Q 46.96875 64.796875 46.484375 64.796875 
Q 44.625 64.796875 42.640625 64.1875 
Q 40.671875 63.578125 39.890625 62.203125 
L 48.484375 41.5 
L 64.890625 59.078125 
Q 65.046875 59.421875 65.578125 60.28125 
Q 66.109375 61.140625 66.109375 61.921875 
Q 66.109375 63.375 64.84375 64.078125 
Q 63.578125 64.796875 61.8125 64.796875 
Q 60.796875 64.796875 60.796875 66.109375 
Q 61.140625 67.390625 61.328125 67.84375 
Q 61.53125 68.3125 62.5 68.3125 
L 84.1875 68.3125 
Q 84.71875 68.3125 84.953125 67.921875 
Q 85.203125 67.53125 85.203125 67 
Q 85.15625 66.75 85 66.15625 
Q 84.859375 65.578125 84.609375 65.1875 
Q 84.375 64.796875 83.890625 64.796875 
Q 79.25 64.796875 75.359375 63.109375 
Q 71.484375 61.421875 68.21875 58.015625 
Q 68.171875 57.953125 68.09375 57.921875 
Q 68.015625 57.90625 67.921875 57.8125 
L 49.8125 38.28125 
L 63.484375 5.515625 
Q 65.09375 3.515625 72.21875 3.515625 
Q 73.1875 3.515625 73.1875 2.203125 
Q 72.859375 0.875 72.625 0.4375 
Q 72.40625 0 71.484375 0 
L 46.484375 0 
Q 45.515625 0 45.515625 1.3125 
Q 45.5625 1.5625 45.703125 2.171875 
Q 45.84375 2.78125 46.109375 3.140625 
Q 46.390625 3.515625 46.78125 3.515625 
Q 48.734375 3.515625 50.734375 4.125 
Q 52.734375 4.734375 53.515625 6.109375 
L 43.109375 31 
L 22.90625 9.1875 
Q 22.75 8.84375 22.21875 8 
Q 21.6875 7.171875 21.6875 6.390625 
Q 21.6875 4.9375 23.046875 4.21875 
Q 24.421875 3.515625 25.984375 3.515625 
Q 27 3.515625 27 2.203125 
Q 26.65625 0.78125 26.453125 0.390625 
Q 26.265625 0 25.296875 0 
z
" id="Cmmi10-58"/>
     <path d="M 31 -24.8125 
Q 25.4375 -20.40625 21.40625 -14.71875 
Q 17.390625 -9.03125 14.8125 -2.578125 
Q 12.25 3.859375 10.984375 10.890625 
Q 9.71875 17.921875 9.71875 25 
Q 9.71875 32.171875 10.984375 39.203125 
Q 12.25 46.234375 14.859375 52.734375 
Q 17.484375 59.234375 21.53125 64.890625 
Q 25.59375 70.5625 31 74.8125 
Q 31 75 31.5 75 
L 32.421875 75 
Q 32.71875 75 32.953125 74.734375 
Q 33.203125 74.46875 33.203125 74.125 
Q 33.203125 73.6875 33.015625 73.484375 
Q 28.125 68.703125 24.875 63.234375 
Q 21.625 57.765625 19.640625 51.578125 
Q 17.671875 45.40625 16.796875 38.78125 
Q 15.921875 32.171875 15.921875 25 
Q 15.921875 -6.78125 32.90625 -23.296875 
Q 33.203125 -23.578125 33.203125 -24.125 
Q 33.203125 -24.359375 32.9375 -24.671875 
Q 32.671875 -25 32.421875 -25 
L 31.5 -25 
Q 31 -25 31 -24.8125 
z
" id="Cmr10-28"/>
     <path d="M 6.203125 8.109375 
Q 6.203125 9.578125 6.5 10.890625 
L 13.71875 39.59375 
L 3.21875 39.59375 
Q 2.203125 39.59375 2.203125 40.921875 
Q 2.59375 43.109375 3.515625 43.109375 
L 14.59375 43.109375 
L 18.609375 59.421875 
Q 19 60.75 20.171875 61.671875 
Q 21.34375 62.59375 22.796875 62.59375 
Q 24.078125 62.59375 24.921875 61.828125 
Q 25.78125 61.078125 25.78125 59.8125 
Q 25.78125 59.515625 25.75 59.34375 
Q 25.734375 59.1875 25.6875 58.984375 
L 21.6875 43.109375 
L 31.984375 43.109375 
Q 33.015625 43.109375 33.015625 41.796875 
Q 32.953125 41.546875 32.8125 40.953125 
Q 32.671875 40.375 32.421875 39.984375 
Q 32.171875 39.59375 31.6875 39.59375 
L 20.796875 39.59375 
L 13.625 10.6875 
Q 12.890625 7.859375 12.890625 5.8125 
Q 12.890625 1.515625 15.828125 1.515625 
Q 20.21875 1.515625 23.609375 5.640625 
Q 27 9.765625 28.8125 14.703125 
Q 29.203125 15.28125 29.59375 15.28125 
L 30.8125 15.28125 
Q 31.203125 15.28125 31.4375 15.015625 
Q 31.6875 14.75 31.6875 14.40625 
Q 31.6875 14.203125 31.59375 14.109375 
Q 29.390625 8.0625 25.1875 3.46875 
Q 21 -1.125 15.578125 -1.125 
Q 11.625 -1.125 8.90625 1.453125 
Q 6.203125 4.046875 6.203125 8.109375 
z
" id="Cmmi10-74"/>
     <path d="M 6.5 -25 
Q 5.609375 -25 5.609375 -24.125 
Q 5.609375 -23.6875 5.8125 -23.484375 
Q 22.90625 -6.78125 22.90625 25 
Q 22.90625 56.78125 6 73.296875 
Q 5.609375 73.53125 5.609375 74.125 
Q 5.609375 74.46875 5.875 74.734375 
Q 6.15625 75 6.5 75 
L 7.421875 75 
Q 7.71875 75 7.90625 74.8125 
Q 15.09375 69.140625 19.875 61.03125 
Q 24.65625 52.9375 26.875 43.75 
Q 29.109375 34.578125 29.109375 25 
Q 29.109375 17.921875 27.90625 11.0625 
Q 26.703125 4.203125 24.09375 -2.453125 
Q 21.484375 -9.125 17.484375 -14.765625 
Q 13.484375 -20.40625 7.90625 -24.8125 
Q 7.71875 -25 7.421875 -25 
z
" id="Cmr10-29"/>
    </defs>
    <g transform="translate(103.475017 271.71552)rotate(-341.996825)scale(0.12 -0.12)">
     <use xlink:href="#Cmmi10-58"/>
     <use transform="translate(82.8125 0)" xlink:href="#Cmr10-28"/>
     <use transform="translate(121.630859 0)" xlink:href="#Cmmi10-74"/>
     <use transform="translate(157.714844 0)" xlink:href="#Cmr10-29"/>
    </g>
   </g>
   <g id="xtick_1">
    <g id="line2d_2">
     <path d="M 97.572874 227.98523 
L 93.969014 229.016481 
" style="fill:none;stroke:#000000;stroke-linecap:square;stroke-width:0.8;"/>
    </g>
    <g id="text_2">
     <!-- -3000 -->
     <defs>
      <path d="M 4.390625 30.609375 
L 29.390625 30.609375 
L 29.390625 23 
L 4.390625 23 
z
" id="DejaVuSerif-2d"/>
      <path d="M 9.71875 69.828125 
Q 15.4375 71.96875 20.671875 73.09375 
Q 25.921875 74.21875 30.515625 74.21875 
Q 41.21875 74.21875 47.21875 69.59375 
Q 53.21875 64.984375 53.21875 56.78125 
Q 53.21875 50.203125 49.0625 45.78125 
Q 44.921875 41.359375 37.3125 39.796875 
Q 46.296875 38.53125 51.25 33.28125 
Q 56.203125 28.03125 56.203125 19.671875 
Q 56.203125 9.46875 49.34375 4.015625 
Q 42.484375 -1.421875 29.59375 -1.421875 
Q 23.875 -1.421875 18.421875 -0.1875 
Q 12.984375 1.03125 7.625 3.515625 
L 7.625 17.671875 
L 13.09375 17.671875 
Q 13.578125 10.640625 17.828125 7.03125 
Q 22.078125 3.421875 29.78125 3.421875 
Q 37.25 3.421875 41.578125 7.734375 
Q 45.90625 12.0625 45.90625 19.578125 
Q 45.90625 28.171875 41.453125 32.59375 
Q 37.015625 37.015625 28.421875 37.015625 
L 23.78125 37.015625 
L 23.78125 42 
L 26.21875 42 
Q 34.765625 42 39.03125 45.53125 
Q 43.3125 49.078125 43.3125 56.203125 
Q 43.3125 62.59375 39.796875 65.984375 
Q 36.28125 69.390625 29.6875 69.390625 
Q 23.09375 69.390625 19.453125 66.265625 
Q 15.828125 63.140625 15.1875 56.984375 
L 9.71875 56.984375 
z
" id="DejaVuSerif-33"/>
      <path d="M 31.78125 3.421875 
Q 39.265625 3.421875 42.96875 11.625 
Q 46.6875 19.828125 46.6875 36.375 
Q 46.6875 52.984375 42.96875 61.1875 
Q 39.265625 69.390625 31.78125 69.390625 
Q 24.3125 69.390625 20.59375 61.1875 
Q 16.890625 52.984375 16.890625 36.375 
Q 16.890625 19.828125 20.59375 11.625 
Q 24.3125 3.421875 31.78125 3.421875 
z
M 31.78125 -1.421875 
Q 19.921875 -1.421875 13.25 8.53125 
Q 6.59375 18.5 6.59375 36.375 
Q 6.59375 54.296875 13.25 64.25 
Q 19.921875 74.21875 31.78125 74.21875 
Q 43.703125 74.21875 50.34375 64.25 
Q 56.984375 54.296875 56.984375 36.375 
Q 56.984375 18.5 50.34375 8.53125 
Q 43.703125 -1.421875 31.78125 -1.421875 
z
" id="DejaVuSerif-30"/>
     </defs>
     <g transform="translate(69.484176 249.557679)scale(0.1 -0.1)">
      <use xlink:href="#DejaVuSerif-2d"/>
      <use x="33.789062" xlink:href="#DejaVuSerif-33"/>
      <use x="97.412109" xlink:href="#DejaVuSerif-30"/>
      <use x="161.035156" xlink:href="#DejaVuSerif-30"/>
      <use x="224.658203" xlink:href="#DejaVuSerif-30"/>
     </g>
    </g>
   </g>
   <g id="xtick_2">
    <g id="line2d_3">
     <path d="M 141.594639 242.224969 
L 137.980893 243.319504 
" style="fill:none;stroke:#000000;stroke-linecap:square;stroke-width:0.8;"/>
    </g>
    <g id="text_3">
     <!-- 0 -->
     <g transform="translate(124.562382 264.298566)scale(0.1 -0.1)">
      <use xlink:href="#DejaVuSerif-30"/>
     </g>
    </g>
   </g>
   <g id="xtick_3">
    <g id="line2d_4">
     <path d="M 188.357393 257.351336 
L 184.739512 258.515165 
" style="fill:none;stroke:#000000;stroke-linecap:square;stroke-width:0.8;"/>
    </g>
    <g id="text_4">
     <!-- 3000 -->
     <g transform="translate(161.608419 279.962402)scale(0.1 -0.1)">
      <use xlink:href="#DejaVuSerif-33"/>
      <use x="63.623047" xlink:href="#DejaVuSerif-30"/>
      <use x="127.246094" xlink:href="#DejaVuSerif-30"/>
      <use x="190.869141" xlink:href="#DejaVuSerif-30"/>
     </g>
    </g>
   </g>
  </g>
  <g id="axis3d_2">
   <g id="line2d_5">
    <path d="M 298.266561 226.761673 
L 192.648649 261.085484 
" style="fill:none;stroke:#d3d3d3;stroke-linecap:square;stroke-width:0.8;"/>
   </g>
   <g id="text_5">
    <!-- $X(t-\tau)$ -->
    <defs>
     <path d="M 10.203125 23 
Q 9.375 23 8.828125 23.625 
Q 8.296875 24.265625 8.296875 25 
Q 8.296875 25.734375 8.828125 26.359375 
Q 9.375 27 10.203125 27 
L 67.578125 27 
Q 68.359375 27 68.875 26.359375 
Q 69.390625 25.734375 69.390625 25 
Q 69.390625 24.265625 68.875 23.625 
Q 68.359375 23 67.578125 23 
z
" id="Cmsy10-a1"/>
     <path d="M 15.578125 1.515625 
Q 15.578125 2.203125 15.71875 2.59375 
L 26.21875 36.921875 
L 17.1875 36.921875 
Q 13.53125 36.921875 10.34375 34.625 
Q 7.171875 32.328125 5.078125 28.8125 
Q 4.890625 28.421875 4.5 28.421875 
L 3.328125 28.421875 
Q 2.390625 28.421875 2.390625 29.390625 
Q 2.390625 29.59375 2.59375 29.984375 
Q 5.859375 35.546875 9.59375 39.328125 
Q 13.328125 43.109375 18.015625 43.109375 
L 48.6875 43.109375 
Q 49.75 43.109375 50.484375 42.375 
Q 51.21875 41.65625 51.21875 40.578125 
Q 51.21875 39.109375 50.171875 38.015625 
Q 49.125 36.921875 47.609375 36.921875 
L 29.5 36.921875 
L 22.796875 2.390625 
Q 22.40625 0.78125 21.328125 -0.265625 
Q 20.265625 -1.3125 18.609375 -1.3125 
Q 17.328125 -1.3125 16.453125 -0.5 
Q 15.578125 0.296875 15.578125 1.515625 
z
" id="Cmmi10-bf"/>
    </defs>
    <g transform="translate(250.380918 281.933364)rotate(-18.003175)scale(0.12 -0.12)">
     <use xlink:href="#Cmmi10-58"/>
     <use transform="translate(82.8125 0)" xlink:href="#Cmr10-28"/>
     <use transform="translate(121.630859 0)" xlink:href="#Cmmi10-74"/>
     <use transform="translate(175.273438 0)" xlink:href="#Cmsy10-a1"/>
     <use transform="translate(270.517578 0)" xlink:href="#Cmmi10-bf"/>
     <use transform="translate(314.21875 0)" xlink:href="#Cmr10-29"/>
    </g>
   </g>
   <g id="xtick_4">
    <g id="line2d_6">
     <path d="M 196.939904 257.351336 
L 200.557786 258.515165 
" style="fill:none;stroke:#000000;stroke-linecap:square;stroke-width:0.8;"/>
    </g>
    <g id="text_6">
     <!-- -3000 -->
     <g transform="translate(196.549034 279.962402)scale(0.1 -0.1)">
      <use xlink:href="#DejaVuSerif-2d"/>
      <use x="33.789062" xlink:href="#DejaVuSerif-33"/>
      <use x="97.412109" xlink:href="#DejaVuSerif-30"/>
      <use x="161.035156" xlink:href="#DejaVuSerif-30"/>
      <use x="224.658203" xlink:href="#DejaVuSerif-30"/>
     </g>
    </g>
   </g>
   <g id="xtick_5">
    <g id="line2d_7">
     <path d="M 243.702658 242.224969 
L 247.316404 243.319504 
" style="fill:none;stroke:#000000;stroke-linecap:square;stroke-width:0.8;"/>
    </g>
    <g id="text_7">
     <!-- 0 -->
     <g transform="translate(254.372416 264.298566)scale(0.1 -0.1)">
      <use xlink:href="#DejaVuSerif-30"/>
     </g>
    </g>
   </g>
   <g id="xtick_6">
    <g id="line2d_8">
     <path d="M 287.724423 227.98523 
L 291.328284 229.016481 
" style="fill:none;stroke:#000000;stroke-linecap:square;stroke-width:0.8;"/>
    </g>
    <g id="text_8">
     <!-- 3000 -->
     <g transform="translate(288.673278 249.557679)scale(0.1 -0.1)">
      <use xlink:href="#DejaVuSerif-33"/>
      <use x="63.623047" xlink:href="#DejaVuSerif-30"/>
      <use x="127.246094" xlink:href="#DejaVuSerif-30"/>
      <use x="190.869141" xlink:href="#DejaVuSerif-30"/>
     </g>
    </g>
   </g>
  </g>
  <g id="axis3d_3">
   <g id="line2d_9">
    <path d="M 298.266561 226.761673 
L 302.097666 114.978972 
" style="fill:none;stroke:#d3d3d3;stroke-linecap:square;stroke-width:0.8;"/>
   </g>
   <g id="text_9">
    <!-- $X(t-2\tau)$ -->
    <defs>
     <path d="M 4.984375 0 
L 4.984375 2.6875 
Q 4.984375 2.9375 5.171875 3.21875 
L 20.703125 20.40625 
Q 24.21875 24.21875 26.40625 26.796875 
Q 28.609375 29.390625 30.75 32.765625 
Q 32.90625 36.140625 34.15625 39.625 
Q 35.40625 43.109375 35.40625 47.015625 
Q 35.40625 51.125 33.890625 54.859375 
Q 32.375 58.59375 29.375 60.84375 
Q 26.375 63.09375 22.125 63.09375 
Q 17.78125 63.09375 14.3125 60.46875 
Q 10.84375 57.859375 9.421875 53.71875 
Q 9.8125 53.8125 10.5 53.8125 
Q 12.75 53.8125 14.328125 52.296875 
Q 15.921875 50.78125 15.921875 48.390625 
Q 15.921875 46.09375 14.328125 44.5 
Q 12.75 42.921875 10.5 42.921875 
Q 8.15625 42.921875 6.5625 44.546875 
Q 4.984375 46.1875 4.984375 48.390625 
Q 4.984375 52.15625 6.390625 55.4375 
Q 7.8125 58.734375 10.46875 61.296875 
Q 13.140625 63.875 16.484375 65.234375 
Q 19.828125 66.609375 23.578125 66.609375 
Q 29.296875 66.609375 34.21875 64.1875 
Q 39.15625 61.765625 42.03125 57.34375 
Q 44.921875 52.9375 44.921875 47.015625 
Q 44.921875 42.671875 43.015625 38.765625 
Q 41.109375 34.859375 38.125 31.65625 
Q 35.15625 28.46875 30.515625 24.40625 
Q 25.875 20.359375 24.421875 19 
L 13.09375 8.109375 
L 22.703125 8.109375 
Q 29.78125 8.109375 34.546875 8.21875 
Q 39.3125 8.34375 39.59375 8.59375 
Q 40.765625 9.859375 42 17.828125 
L 44.921875 17.828125 
L 42.09375 0 
z
" id="Cmr10-32"/>
    </defs>
    <g transform="translate(345.20845 196.19448)rotate(-88.037082)scale(0.12 -0.12)">
     <use xlink:href="#Cmmi10-58"/>
     <use transform="translate(82.8125 0)" xlink:href="#Cmr10-28"/>
     <use transform="translate(121.630859 0)" xlink:href="#Cmmi10-74"/>
     <use transform="translate(175.273438 0)" xlink:href="#Cmsy10-a1"/>
     <use transform="translate(270.517578 0)" xlink:href="#Cmr10-32"/>
     <use transform="translate(320.517578 0)" xlink:href="#Cmmi10-bf"/>
     <use transform="translate(364.21875 0)" xlink:href="#Cmr10-29"/>
    </g>
   </g>
   <g id="xtick_7">
    <g id="line2d_10">
     <path d="M 294.915357 218.16861 
L 298.526541 219.176054 
" style="fill:none;stroke:#000000;stroke-linecap:square;stroke-width:0.8;"/>
    </g>
    <g id="text_10">
     <!-- -3000 -->
     <g transform="translate(303.544647 226.774491)scale(0.1 -0.1)">
      <use xlink:href="#DejaVuSerif-2d"/>
      <use x="33.789062" xlink:href="#DejaVuSerif-33"/>
      <use x="97.412109" xlink:href="#DejaVuSerif-30"/>
      <use x="161.035156" xlink:href="#DejaVuSerif-30"/>
      <use x="224.658203" xlink:href="#DejaVuSerif-30"/>
     </g>
    </g>
   </g>
   <g id="xtick_8">
    <g id="line2d_11">
     <path d="M 296.478042 170.947662 
L 300.14799 171.865946 
" style="fill:none;stroke:#000000;stroke-linecap:square;stroke-width:0.8;"/>
    </g>
    <g id="text_11">
     <!-- 0 -->
     <g transform="translate(316.697293 179.464383)scale(0.1 -0.1)">
      <use xlink:href="#DejaVuSerif-30"/>
     </g>
    </g>
   </g>
   <g id="xtick_9">
    <g id="line2d_12">
     <path d="M 298.089226 122.261203 
L 301.819875 123.084256 
" style="fill:none;stroke:#000000;stroke-linecap:square;stroke-width:0.8;"/>
    </g>
    <g id="text_12">
     <!-- 3000 -->
     <g transform="translate(309.132287 130.682694)scale(0.1 -0.1)">
      <use xlink:href="#DejaVuSerif-33"/>
      <use x="63.623047" xlink:href="#DejaVuSerif-30"/>
      <use x="127.246094" xlink:href="#DejaVuSerif-30"/>
      <use x="190.869141" xlink:href="#DejaVuSerif-30"/>
     </g>
    </g>
   </g>
  </g>
  <g id="axes_1">
   <g id="Path3DCollection_1">
    <defs>
     <path d="M 0 2.236068 
C 0.593012 2.236068 1.161816 2.000462 1.581139 1.581139 
C 2.000462 1.161816 2.236068 0.593012 2.236068 0 
C 2.236068 -0.593012 2.000462 -1.161816 1.581139 -1.581139 
C 1.161816 -2.000462 0.593012 -2.236068 0 -2.236068 
C -0.593012 -2.236068 -1.161816 -2.000462 -1.581139 -1.581139 
C -2.000462 -1.161816 -2.236068 -0.593012 -2.236068 0 
C -2.236068 0.593012 -2.000462 1.161816 -1.581139 1.581139 
C -1.161816 2.000462 -0.593012 2.236068 0 2.236068 
z
" id="C0_0_8f7c980b68"/>
    </defs>
    <g clip-path="url(#p28c4a1fc07)">
     <use style="fill:#440154;" x="129.466423" xlink:href="#C0_0_8f7c980b68" y="141.581923"/>
    </g>
    <g clip-path="url(#p28c4a1fc07)">
     <use style="fill:#440154;" x="160.25655" xlink:href="#C0_0_8f7c980b68" y="136.176731"/>
    </g>
    <g clip-path="url(#p28c4a1fc07)">
     <use style="fill:#440154;" x="196.491186" xlink:href="#C0_0_8f7c980b68" y="147.508113"/>
    </g>
    <g clip-path="url(#p28c4a1fc07)">
     <use style="fill:#440154;" x="222.382768" xlink:href="#C0_0_8f7c980b68" y="165.786513"/>
    </g>
    <g clip-path="url(#p28c4a1fc07)">
     <use style="fill:#440154;" x="228.752688" xlink:href="#C0_0_8f7c980b68" y="178.448565"/>
    </g>
    <g clip-path="url(#p28c4a1fc07)">
     <use style="fill:#440154;" x="217.762311" xlink:href="#C0_0_8f7c980b68" y="177.079133"/>
    </g>
    <g clip-path="url(#p28c4a1fc07)">
     <use style="fill:#482878;" x="202.196132" xlink:href="#C0_0_8f7c980b68" y="166.424261"/>
    </g>
    <g clip-path="url(#p28c4a1fc07)">
     <use style="fill:#482878;" x="194.969414" xlink:href="#C0_0_8f7c980b68" y="160.883307"/>
    </g>
    <g clip-path="url(#p28c4a1fc07)">
     <use style="fill:#482878;" x="198.287503" xlink:href="#C0_0_8f7c980b68" y="165.945338"/>
    </g>
    <g clip-path="url(#p28c4a1fc07)">
     <use style="fill:#482878;" x="203.886166" xlink:href="#C0_0_8f7c980b68" y="180.009648"/>
    </g>
    <g clip-path="url(#p28c4a1fc07)">
     <use style="fill:#482878;" x="204.486863" xlink:href="#C0_0_8f7c980b68" y="194.424393"/>
    </g>
    <g clip-path="url(#p28c4a1fc07)">
     <use style="fill:#482878;" x="192.928125" xlink:href="#C0_0_8f7c980b68" y="196.12848"/>
    </g>
    <g clip-path="url(#p28c4a1fc07)">
     <use style="fill:#3e4989;" x="174.818734" xlink:href="#C0_0_8f7c980b68" y="180.37975"/>
    </g>
    <g clip-path="url(#p28c4a1fc07)">
     <use style="fill:#3e4989;" x="164.13393" xlink:href="#C0_0_8f7c980b68" y="155.198651"/>
    </g>
    <g clip-path="url(#p28c4a1fc07)">
     <use style="fill:#3e4989;" x="170.431722" xlink:href="#C0_0_8f7c980b68" y="135.466738"/>
    </g>
    <g clip-path="url(#p28c4a1fc07)">
     <use style="fill:#3e4989;" x="192.694228" xlink:href="#C0_0_8f7c980b68" y="134.891013"/>
    </g>
    <g clip-path="url(#p28c4a1fc07)">
     <use style="fill:#3e4989;" x="220.339563" xlink:href="#C0_0_8f7c980b68" y="151.35114"/>
    </g>
    <g clip-path="url(#p28c4a1fc07)">
     <use style="fill:#3e4989;" x="236.94313" xlink:href="#C0_0_8f7c980b68" y="175.976598"/>
    </g>
    <g clip-path="url(#p28c4a1fc07)">
     <use style="fill:#31688e;" x="235.070456" xlink:href="#C0_0_8f7c980b68" y="195.853543"/>
    </g>
    <g clip-path="url(#p28c4a1fc07)">
     <use style="fill:#31688e;" x="213.595508" xlink:href="#C0_0_8f7c980b68" y="195.646936"/>
    </g>
    <g clip-path="url(#p28c4a1fc07)">
     <use style="fill:#31688e;" x="186.063439" xlink:href="#C0_0_8f7c980b68" y="177.198995"/>
    </g>
    <g clip-path="url(#p28c4a1fc07)">
     <use style="fill:#31688e;" x="172.128715" xlink:href="#C0_0_8f7c980b68" y="153.059412"/>
    </g>
    <g clip-path="url(#p28c4a1fc07)">
     <use style="fill:#31688e;" x="177.265609" xlink:href="#C0_0_8f7c980b68" y="138.23996"/>
    </g>
    <g clip-path="url(#p28c4a1fc07)">
     <use style="fill:#31688e;" x="198.473013" xlink:href="#C0_0_8f7c980b68" y="143.806551"/>
    </g>
    <g clip-path="url(#p28c4a1fc07)">
     <use style="fill:#26828e;" x="221.929227" xlink:href="#C0_0_8f7c980b68" y="168.567118"/>
    </g>
    <g clip-path="url(#p28c4a1fc07)">
     <use style="fill:#26828e;" x="230.887796" xlink:href="#C0_0_8f7c980b68" y="199.916157"/>
    </g>
    <g clip-path="url(#p28c4a1fc07)">
     <use style="fill:#26828e;" x="216.880778" xlink:href="#C0_0_8f7c980b68" y="221.032124"/>
    </g>
    <g clip-path="url(#p28c4a1fc07)">
     <use style="fill:#26828e;" x="184.29863" xlink:href="#C0_0_8f7c980b68" y="218.673069"/>
    </g>
    <g clip-path="url(#p28c4a1fc07)">
     <use style="fill:#26828e;" x="149.563646" xlink:href="#C0_0_8f7c980b68" y="197.493439"/>
    </g>
    <g clip-path="url(#p28c4a1fc07)">
     <use style="fill:#26828e;" x="133.047219" xlink:href="#C0_0_8f7c980b68" y="171.916376"/>
    </g>
    <g clip-path="url(#p28c4a1fc07)">
     <use style="fill:#1f9e89;" x="139.239725" xlink:href="#C0_0_8f7c980b68" y="157.69189"/>
    </g>
    <g clip-path="url(#p28c4a1fc07)">
     <use style="fill:#1f9e89;" x="162.224973" xlink:href="#C0_0_8f7c980b68" y="161.158022"/>
    </g>
    <g clip-path="url(#p28c4a1fc07)">
     <use style="fill:#1f9e89;" x="185.424838" xlink:href="#C0_0_8f7c980b68" y="173.999132"/>
    </g>
    <g clip-path="url(#p28c4a1fc07)">
     <use style="fill:#1f9e89;" x="195.826125" xlink:href="#C0_0_8f7c980b68" y="181.592133"/>
    </g>
    <g clip-path="url(#p28c4a1fc07)">
     <use style="fill:#1f9e89;" x="192.33746" xlink:href="#C0_0_8f7c980b68" y="175.648789"/>
    </g>
    <g clip-path="url(#p28c4a1fc07)">
     <use style="fill:#1f9e89;" x="184.8614" xlink:href="#C0_0_8f7c980b68" y="156.798017"/>
    </g>
    <g clip-path="url(#p28c4a1fc07)">
     <use style="fill:#35b779;" x="185.118202" xlink:href="#C0_0_8f7c980b68" y="140.719591"/>
    </g>
    <g clip-path="url(#p28c4a1fc07)">
     <use style="fill:#35b779;" x="200.291459" xlink:href="#C0_0_8f7c980b68" y="141.426191"/>
    </g>
    <g clip-path="url(#p28c4a1fc07)">
     <use style="fill:#35b779;" x="220.315536" xlink:href="#C0_0_8f7c980b68" y="158.036446"/>
    </g>
    <g clip-path="url(#p28c4a1fc07)">
     <use style="fill:#35b779;" x="232.277022" xlink:href="#C0_0_8f7c980b68" y="181.494939"/>
    </g>
    <g clip-path="url(#p28c4a1fc07)">
     <use style="fill:#35b779;" x="227.09682" xlink:href="#C0_0_8f7c980b68" y="197.564274"/>
    </g>
    <g clip-path="url(#p28c4a1fc07)">
     <use style="fill:#35b779;" x="204.797249" xlink:href="#C0_0_8f7c980b68" y="198.140127"/>
    </g>
    <g clip-path="url(#p28c4a1fc07)">
     <use style="fill:#6ece58;" x="179.860747" xlink:href="#C0_0_8f7c980b68" y="184.260698"/>
    </g>
    <g clip-path="url(#p28c4a1fc07)">
     <use style="fill:#6ece58;" x="165.505294" xlink:href="#C0_0_8f7c980b68" y="168.073684"/>
    </g>
    <g clip-path="url(#p28c4a1fc07)">
     <use style="fill:#6ece58;" x="168.535514" xlink:href="#C0_0_8f7c980b68" y="157.212638"/>
    </g>
    <g clip-path="url(#p28c4a1fc07)">
     <use style="fill:#6ece58;" x="181.54473" xlink:href="#C0_0_8f7c980b68" y="154.184149"/>
    </g>
    <g clip-path="url(#p28c4a1fc07)">
     <use style="fill:#6ece58;" x="198.033975" xlink:href="#C0_0_8f7c980b68" y="157.146321"/>
    </g>
    <g clip-path="url(#p28c4a1fc07)">
     <use style="fill:#6ece58;" x="209.366047" xlink:href="#C0_0_8f7c980b68" y="161.491513"/>
    </g>
    <g clip-path="url(#p28c4a1fc07)">
     <use style="fill:#b5de2b;" x="213.488457" xlink:href="#C0_0_8f7c980b68" y="165.859458"/>
    </g>
    <g clip-path="url(#p28c4a1fc07)">
     <use style="fill:#b5de2b;" x="212.707434" xlink:href="#C0_0_8f7c980b68" y="166.92845"/>
    </g>
    <g clip-path="url(#p28c4a1fc07)">
     <use style="fill:#b5de2b;" x="208.795707" xlink:href="#C0_0_8f7c980b68" y="165.836175"/>
    </g>
    <g clip-path="url(#p28c4a1fc07)">
     <use style="fill:#b5de2b;" x="206.607687" xlink:href="#C0_0_8f7c980b68" y="163.20753"/>
    </g>
    <g clip-path="url(#p28c4a1fc07)">
     <use style="fill:#b5de2b;" x="205.448751" xlink:href="#C0_0_8f7c980b68" y="158.094236"/>
    </g>
    <g clip-path="url(#p28c4a1fc07)">
     <use style="fill:#b5de2b;" x="207.273375" xlink:href="#C0_0_8f7c980b68" y="155.919027"/>
    </g>
    <g clip-path="url(#p28c4a1fc07)">
     <use style="fill:#fde725;" x="212.42598" xlink:href="#C0_0_8f7c980b68" y="165.362119"/>
    </g>
    <g clip-path="url(#p28c4a1fc07)">
     <use style="fill:#fde725;" x="215.858119" xlink:href="#C0_0_8f7c980b68" y="186.689403"/>
    </g>
    <g clip-path="url(#p28c4a1fc07)">
     <use style="fill:#fde725;" x="210.188479" xlink:href="#C0_0_8f7c980b68" y="210.438819"/>
    </g>
    <g clip-path="url(#p28c4a1fc07)">
     <use style="fill:#fde725;" x="191.286654" xlink:href="#C0_0_8f7c980b68" y="226.180967"/>
    </g>
    <g clip-path="url(#p28c4a1fc07)">
     <use style="fill:#fde725;" x="161.722599" xlink:href="#C0_0_8f7c980b68" y="222.000596"/>
    </g>
    <g clip-path="url(#p28c4a1fc07)">
     <use style="fill:#fde725;" x="131.86817" xlink:href="#C0_0_8f7c980b68" y="197.442064"/>
    </g>
    <g clip-path="url(#p28c4a1fc07)">
     <use style="fill:#fde725;" x="129.466423" xlink:href="#C0_0_8f7c980b68" y="141.581923"/>
    </g>
   </g>
   <g id="line2d_13">
    <path clip-path="url(#p28c4a1fc07)" d="M 129.466423 141.581923 
L 133.024201 139.563003 
L 137.081811 137.983029 
L 141.550259 136.833274 
L 146.342755 136.104853 
L 151.374879 135.789025 
L 156.564611 135.877487 
L 161.832428 136.362466 
L 167.114246 137.222595 
L 172.369359 138.412716 
L 177.558694 139.885977 
L 182.642419 141.595978 
L 187.579838 143.49654 
L 192.329321 145.541505 
L 196.848245 147.684562 
L 201.106083 149.892847 
L 205.112818 152.176484 
L 208.88633 154.554228 
L 212.444406 157.045088 
L 215.804762 159.668374 
L 218.985072 162.443744 
L 222.00299 165.391249 
L 224.839643 168.503065 
L 227.258785 171.603266 
L 228.9412 174.451949 
L 229.562964 176.80585 
L 228.795192 178.418082 
L 226.434679 179.077507 
L 222.845137 178.741878 
L 218.554465 177.416392 
L 214.067995 175.145998 
L 209.655231 172.225381 
L 205.485026 169.057295 
L 196.238565 161.770766 
L 194.989421 160.894728 
L 194.955157 161.057898 
L 195.867829 162.239013 
L 197.354286 164.37633 
L 199.054317 167.410716 
L 200.746001 171.18388 
L 202.359708 175.420387 
L 203.83328 179.840228 
L 205.067688 184.172611 
L 205.802009 188.188182 
L 205.72642 191.665563 
L 204.525805 194.378049 
L 202.002996 196.126598 
L 198.485724 196.849281 
L 194.449636 196.520046 
L 190.36178 195.123603 
L 186.443249 192.775043 
L 182.735754 189.683231 
L 179.275354 186.06145 
L 176.09628 182.123921 
L 173.2308 178.077894 
L 170.705715 174.015547 
L 168.543868 169.933395 
L 166.76769 165.825376 
L 165.399182 161.685825 
L 164.45977 157.50949 
L 163.97073 153.29408 
L 163.969032 149.111519 
L 164.509358 145.116792 
L 165.646191 141.467478 
L 167.432858 138.318895 
L 169.921638 135.82393 
L 173.143659 134.112699 
L 176.992168 133.175189 
L 181.305466 132.943479 
L 185.925207 133.350191 
L 190.696761 134.329293 
L 195.472569 135.81644 
L 200.163829 137.747162 
L 204.727222 140.056745 
L 209.120157 142.681391 
L 213.299364 145.557931 
L 217.220789 148.623541 
L 220.83954 151.81551 
L 224.123826 155.088689 
L 227.077741 158.444079 
L 229.710671 161.890137 
L 232.031431 165.435309 
L 234.048326 169.088042 
L 235.769205 172.856789 
L 237.201328 176.749797 
L 238.31094 180.727268 
L 238.971612 184.640143 
L 239.042655 188.32253 
L 238.381614 191.606294 
L 236.844337 194.320989 
L 234.286443 196.294649 
L 230.698276 197.432541 
L 226.325285 197.787234 
L 221.44498 197.428396 
L 216.33949 196.427186 
L 211.290746 194.856472 
L 206.459052 192.786624 
L 201.866949 190.284528 
L 197.52891 187.417802 
L 193.45848 184.254724 
L 189.668292 180.863917 
L 186.1701 177.314086 
L 182.977718 173.666689 
L 180.117067 169.95189 
L 177.61719 166.191551 
L 175.506648 162.407838 
L 173.813369 158.623167 
L 172.56448 154.86013 
L 171.787416 151.145009 
L 171.535523 147.579602 
L 171.886356 144.335632 
L 172.916891 141.584107 
L 174.70299 139.492555 
L 177.320054 138.22551 
L 180.784215 137.8939 
L 184.887845 138.413621 
L 189.373909 139.656624 
L 193.989359 141.497446 
L 198.484469 143.813162 
L 202.657777 146.4959 
L 206.49032 149.489737 
L 210.006894 152.751704 
L 213.230902 156.238892 
L 216.184578 159.9082 
L 218.889174 163.716121 
L 221.365135 167.618576 
L 223.628176 171.573437 
L 225.659258 175.560471 
L 227.421947 179.57079 
L 228.879491 183.595829 
L 229.994859 187.627256 
L 230.730635 191.656963 
L 231.048901 195.677052 
L 230.911102 199.679824 
L 230.282928 203.64525 
L 229.153326 207.493153 
L 227.517961 211.124117 
L 225.372286 214.437077 
L 222.711746 217.329303 
L 219.53199 219.696457 
L 215.829409 221.433291 
L 211.632484 222.487526 
L 207.02873 222.906304 
L 202.113605 222.748239 
L 196.984357 222.072934 
L 191.739974 220.941091 
L 186.481061 219.414585 
L 181.307023 217.555367 
L 176.276144 215.408557 
L 171.412602 213.005454 
L 166.739108 210.37736 
L 162.277834 207.555875 
L 158.050376 204.57278 
L 154.077724 201.45993 
L 150.38024 198.249157 
L 146.977605 194.970659 
L 143.888578 191.642084 
L 141.131287 188.275031 
L 138.723374 184.881132 
L 136.681938 181.472066 
L 135.023475 178.059535 
L 133.763819 174.655232 
L 132.918201 171.27098 
L 132.528077 167.957105 
L 132.69528 164.850619 
L 133.528464 162.097648 
L 135.13503 159.841244 
L 137.621909 158.221896 
L 141.088239 157.373131 
L 145.441234 157.306816 
L 150.39687 157.914419 
L 155.666923 159.084511 
L 160.96659 160.707933 
L 166.034361 162.679685 
L 170.788383 164.914934 
L 175.236419 167.339177 
L 179.386022 169.87848 
L 183.243875 172.459036 
L 190.026675 177.390751 
L 194.702233 180.8863 
L 195.80637 181.58446 
L 195.906635 181.343344 
L 192.177009 175.36023 
L 190.402501 171.879336 
L 188.631557 167.874723 
L 186.958095 163.517396 
L 185.475411 158.979393 
L 184.277439 154.433972 
L 183.494858 150.086681 
L 183.292208 146.172159 
L 183.832426 142.922291 
L 185.275086 140.564243 
L 187.68958 139.249765 
L 190.873232 138.907014 
L 194.574772 139.421187 
L 198.54882 140.679369 
L 202.561922 142.572019 
L 206.48452 144.996954 
L 210.271126 147.857689 
L 213.878308 151.059476 
L 217.26194 154.508637 
L 220.377053 158.112053 
L 223.183931 161.790133 
L 225.665242 165.513569 
L 227.808185 169.264685 
L 229.599021 173.02553 
L 231.023072 176.777803 
L 232.06474 180.502796 
L 232.700456 184.175153 
L 232.840187 187.711394 
L 232.356722 190.994823 
L 231.120717 193.90579 
L 229.001518 196.322135 
L 225.870887 198.120547 
L 221.759464 199.229339 
L 216.93452 199.655016 
L 211.687116 199.411419 
L 206.313 198.513957 
L 201.09342 196.985851 
L 196.132436 194.909473 
L 191.431412 192.401048 
L 186.988766 189.577859 
L 182.801278 186.557179 
L 178.864575 183.455344 
L 175.208796 180.3479 
L 171.930953 177.234539 
L 169.134691 174.106832 
L 166.922389 170.956703 
L 165.394778 167.776472 
L 164.678164 164.598587 
L 164.979699 161.574527 
L 166.519152 158.874421 
L 169.512103 156.664298 
L 173.893753 155.09169 
L 179.095488 154.274542 
L 184.520892 154.316751 
L 189.836256 155.098115 
L 194.928908 156.301111 
L 199.688024 157.606417 
L 204.069646 158.97285 
L 208.133105 160.767899 
L 211.805701 163.315785 
L 213.49234 166.09054 
L 210.177612 166.516155 
L 206.609652 163.211071 
L 205.237561 159.0472 
L 207.605329 155.758362 
L 210.054051 157.211177 
L 211.678106 162.029397 
L 214.778923 176.238125 
L 215.400385 179.913657 
L 215.76821 183.470493 
L 215.852048 187.164381 
L 215.624367 191.163258 
L 215.065934 195.392827 
L 214.158396 199.737745 
L 212.882669 204.082956 
L 211.218846 208.313312 
L 209.146457 212.31396 
L 206.653395 215.989152 
L 203.737133 219.262479 
L 200.395964 222.056248 
L 196.628915 224.290666 
L 192.436126 225.884206 
L 187.827032 226.764485 
L 182.882426 226.951484 
L 177.721388 226.514828 
L 172.464856 225.525771 
L 167.235107 224.056764 
L 162.155504 222.181424 
L 157.334251 219.966898 
L 152.796746 217.441805 
L 148.540806 214.622393 
L 144.563472 211.52514 
L 140.861086 208.166669 
L 137.429355 204.563655 
L 134.263413 200.732749 
L 131.357912 196.690527 
L 128.715844 192.461907 
L 126.360433 188.091602 
L 124.317511 183.627059 
L 122.61255 179.115543 
L 121.270645 174.60408 
L 120.316495 170.139406 
L 119.774389 165.767914 
L 119.668194 161.535608 
L 120.021344 157.488061 
L 120.856836 153.670374 
L 122.197217 150.127144 
L 124.064585 146.902429 
L 126.480589 144.039722 
L 129.466423 141.581923 
L 129.466423 141.581923 
" style="fill:none;opacity:0.8;stroke:#808080;stroke-linecap:square;"/>
   </g>
  </g>
 </g>
 <defs>
  <clipPath id="p28c4a1fc07">
   <rect height="211.2" width="270" x="54" y="69.12"/>
  </clipPath>
 </defs>
</svg>
