<?xml version="1.0" encoding="utf-8" standalone="no"?>
<!DOCTYPE svg PUBLIC "-//W3C//DTD SVG 1.1//EN"
  "http://www.w3.org/Graphics/SVG/1.1/DTD/svg11.dtd">
<!-- Created with matplotlib (http://matplotlib.org/) -->
<svg height="360pt" version="1.1" viewBox="0 0 360 360" width="360pt" xmlns="http://www.w3.org/2000/svg" xmlns:xlink="http://www.w3.org/1999/xlink">
 <defs>
  <style type="text/css">
*{stroke-linecap:butt;stroke-linejoin:round;}
  </style>
 </defs>
 <g id="figure_1">
  <g id="patch_1">
   <path d="M 0 360 
L 360 360 
L 360 0 
L 0 0 
z
" style="fill:none;"/>
  </g>
  <g id="patch_2">
   <path d="M 54 320.4 
L 324 320.4 
L 324 43.2 
L 54 43.2 
z
" style="fill:none;"/>
  </g>
  <g id="pane3d_1">
   <g id="patch_3">
    <path d="M 87.030737 250.104696 
L 192.648649 210.791678 
L 192.648649 72.403141 
L 83.199631 103.3899 
" style="fill:#f2f2f2;opacity:0.5;stroke:#d3d3d3;stroke-linejoin:miter;"/>
   </g>
  </g>
  <g id="pane3d_2">
   <g id="patch_4">
    <path d="M 192.648649 210.791678 
L 298.266561 250.104696 
L 302.097666 103.3899 
L 192.648649 72.403141 
" style="fill:#ebebeb;opacity:0.92;stroke:#d3d3d3;stroke-linejoin:miter;"/>
   </g>
  </g>
  <g id="pane3d_3">
   <g id="patch_5">
    <path d="M 87.030737 250.104696 
L 192.648649 295.154697 
L 298.266561 250.104696 
L 192.648649 210.791678 
" style="fill:#f5f5f5;opacity:0.96;stroke:#d3d3d3;stroke-linejoin:miter;"/>
   </g>
  </g>
  <g id="axis3d_1">
   <g id="line2d_1">
    <path d="M 87.030737 250.104696 
L 192.648649 295.154697 
" style="fill:none;stroke:#d3d3d3;stroke-linecap:square;stroke-width:0.8;"/>
   </g>
   <g id="text_1">
    <!-- $X(t)$ -->
    <defs>
     <path d="M 3.609375 0 
Q 2.59375 0 2.59375 1.3125 
Q 2.640625 1.5625 2.8125 2.1875 
Q 2.984375 2.828125 3.25 3.171875 
Q 3.515625 3.515625 4 3.515625 
Q 13.09375 3.515625 19.578125 10.296875 
Q 19.671875 10.40625 19.796875 10.453125 
Q 19.921875 10.5 19.921875 10.5 
L 41.796875 34.078125 
L 29.890625 62.796875 
Q 28.859375 64.109375 26.5625 64.453125 
Q 24.265625 64.796875 21.1875 64.796875 
Q 20.21875 64.796875 20.21875 66.109375 
Q 20.5625 67.390625 20.75 67.84375 
Q 20.953125 68.3125 21.921875 68.3125 
L 46.921875 68.3125 
Q 47.90625 68.3125 47.90625 67 
Q 47.859375 66.75 47.6875 66.109375 
Q 47.515625 65.484375 47.234375 65.140625 
Q 46.96875 64.796875 46.484375 64.796875 
Q 44.625 64.796875 42.640625 64.1875 
Q 40.671875 63.578125 39.890625 62.203125 
L 48.484375 41.5 
L 64.890625 59.078125 
Q 65.046875 59.421875 65.578125 60.28125 
Q 66.109375 61.140625 66.109375 61.921875 
Q 66.109375 63.375 64.84375 64.078125 
Q 63.578125 64.796875 61.8125 64.796875 
Q 60.796875 64.796875 60.796875 66.109375 
Q 61.140625 67.390625 61.328125 67.84375 
Q 61.53125 68.3125 62.5 68.3125 
L 84.1875 68.3125 
Q 84.71875 68.3125 84.953125 67.921875 
Q 85.203125 67.53125 85.203125 67 
Q 85.15625 66.75 85 66.15625 
Q 84.859375 65.578125 84.609375 65.1875 
Q 84.375 64.796875 83.890625 64.796875 
Q 79.25 64.796875 75.359375 63.109375 
Q 71.484375 61.421875 68.21875 58.015625 
Q 68.171875 57.953125 68.09375 57.921875 
Q 68.015625 57.90625 67.921875 57.8125 
L 49.8125 38.28125 
L 63.484375 5.515625 
Q 65.09375 3.515625 72.21875 3.515625 
Q 73.1875 3.515625 73.1875 2.203125 
Q 72.859375 0.875 72.625 0.4375 
Q 72.40625 0 71.484375 0 
L 46.484375 0 
Q 45.515625 0 45.515625 1.3125 
Q 45.5625 1.5625 45.703125 2.171875 
Q 45.84375 2.78125 46.109375 3.140625 
Q 46.390625 3.515625 46.78125 3.515625 
Q 48.734375 3.515625 50.734375 4.125 
Q 52.734375 4.734375 53.515625 6.109375 
L 43.109375 31 
L 22.90625 9.1875 
Q 22.75 8.84375 22.21875 8 
Q 21.6875 7.171875 21.6875 6.390625 
Q 21.6875 4.9375 23.046875 4.21875 
Q 24.421875 3.515625 25.984375 3.515625 
Q 27 3.515625 27 2.203125 
Q 26.65625 0.78125 26.453125 0.390625 
Q 26.265625 0 25.296875 0 
z
" id="Cmmi10-58"/>
     <path d="M 31 -24.8125 
Q 25.4375 -20.40625 21.40625 -14.71875 
Q 17.390625 -9.03125 14.8125 -2.578125 
Q 12.25 3.859375 10.984375 10.890625 
Q 9.71875 17.921875 9.71875 25 
Q 9.71875 32.171875 10.984375 39.203125 
Q 12.25 46.234375 14.859375 52.734375 
Q 17.484375 59.234375 21.53125 64.890625 
Q 25.59375 70.5625 31 74.8125 
Q 31 75 31.5 75 
L 32.421875 75 
Q 32.71875 75 32.953125 74.734375 
Q 33.203125 74.46875 33.203125 74.125 
Q 33.203125 73.6875 33.015625 73.484375 
Q 28.125 68.703125 24.875 63.234375 
Q 21.625 57.765625 19.640625 51.578125 
Q 17.671875 45.40625 16.796875 38.78125 
Q 15.921875 32.171875 15.921875 25 
Q 15.921875 -6.78125 32.90625 -23.296875 
Q 33.203125 -23.578125 33.203125 -24.125 
Q 33.203125 -24.359375 32.9375 -24.671875 
Q 32.671875 -25 32.421875 -25 
L 31.5 -25 
Q 31 -25 31 -24.8125 
z
" id="Cmr10-28"/>
     <path d="M 6.203125 8.109375 
Q 6.203125 9.578125 6.5 10.890625 
L 13.71875 39.59375 
L 3.21875 39.59375 
Q 2.203125 39.59375 2.203125 40.921875 
Q 2.59375 43.109375 3.515625 43.109375 
L 14.59375 43.109375 
L 18.609375 59.421875 
Q 19 60.75 20.171875 61.671875 
Q 21.34375 62.59375 22.796875 62.59375 
Q 24.078125 62.59375 24.921875 61.828125 
Q 25.78125 61.078125 25.78125 59.8125 
Q 25.78125 59.515625 25.75 59.34375 
Q 25.734375 59.1875 25.6875 58.984375 
L 21.6875 43.109375 
L 31.984375 43.109375 
Q 33.015625 43.109375 33.015625 41.796875 
Q 32.953125 41.546875 32.8125 40.953125 
Q 32.671875 40.375 32.421875 39.984375 
Q 32.171875 39.59375 31.6875 39.59375 
L 20.796875 39.59375 
L 13.625 10.6875 
Q 12.890625 7.859375 12.890625 5.8125 
Q 12.890625 1.515625 15.828125 1.515625 
Q 20.21875 1.515625 23.609375 5.640625 
Q 27 9.765625 28.8125 14.703125 
Q 29.203125 15.28125 29.59375 15.28125 
L 30.8125 15.28125 
Q 31.203125 15.28125 31.4375 15.015625 
Q 31.6875 14.75 31.6875 14.40625 
Q 31.6875 14.203125 31.59375 14.109375 
Q 29.390625 8.0625 25.1875 3.46875 
Q 21 -1.125 15.578125 -1.125 
Q 11.625 -1.125 8.90625 1.453125 
Q 6.203125 4.046875 6.203125 8.109375 
z
" id="Cmmi10-74"/>
     <path d="M 6.5 -25 
Q 5.609375 -25 5.609375 -24.125 
Q 5.609375 -23.6875 5.8125 -23.484375 
Q 22.90625 -6.78125 22.90625 25 
Q 22.90625 56.78125 6 73.296875 
Q 5.609375 73.53125 5.609375 74.125 
Q 5.609375 74.46875 5.875 74.734375 
Q 6.15625 75 6.5 75 
L 7.421875 75 
Q 7.71875 75 7.90625 74.8125 
Q 15.09375 69.140625 19.875 61.03125 
Q 24.65625 52.9375 26.875 43.75 
Q 29.109375 34.578125 29.109375 25 
Q 29.109375 17.921875 27.90625 11.0625 
Q 26.703125 4.203125 24.09375 -2.453125 
Q 21.484375 -9.125 17.484375 -14.765625 
Q 13.484375 -20.40625 7.90625 -24.8125 
Q 7.71875 -25 7.421875 -25 
z
" id="Cmr10-29"/>
    </defs>
    <g transform="translate(106.304659 303.628975)rotate(-336.899934)scale(0.12 -0.12)">
     <use xlink:href="#Cmmi10-58"/>
     <use transform="translate(82.8125 0)" xlink:href="#Cmr10-28"/>
     <use transform="translate(121.630859 0)" xlink:href="#Cmmi10-74"/>
     <use transform="translate(157.714844 0)" xlink:href="#Cmr10-29"/>
    </g>
   </g>
   <g id="xtick_1">
    <g id="line2d_2">
     <path d="M 97.481573 251.671852 
L 93.877739 253.0252 
" style="fill:none;stroke:#000000;stroke-linecap:square;stroke-width:0.8;"/>
    </g>
    <g id="text_2">
     <!-- -7000 -->
     <defs>
      <path d="M 4.390625 30.609375 
L 29.390625 30.609375 
L 29.390625 23 
L 4.390625 23 
z
" id="DejaVuSerif-2d"/>
      <path d="M 56.390625 67.921875 
L 27.875 0 
L 20.609375 0 
L 47.796875 64.890625 
L 14.109375 64.890625 
L 14.109375 55.90625 
L 8.40625 55.90625 
L 8.40625 72.90625 
L 56.390625 72.90625 
z
" id="DejaVuSerif-37"/>
      <path d="M 31.78125 3.421875 
Q 39.265625 3.421875 42.96875 11.625 
Q 46.6875 19.828125 46.6875 36.375 
Q 46.6875 52.984375 42.96875 61.1875 
Q 39.265625 69.390625 31.78125 69.390625 
Q 24.3125 69.390625 20.59375 61.1875 
Q 16.890625 52.984375 16.890625 36.375 
Q 16.890625 19.828125 20.59375 11.625 
Q 24.3125 3.421875 31.78125 3.421875 
z
M 31.78125 -1.421875 
Q 19.921875 -1.421875 13.25 8.53125 
Q 6.59375 18.5 6.59375 36.375 
Q 6.59375 54.296875 13.25 64.25 
Q 19.921875 74.21875 31.78125 74.21875 
Q 43.703125 74.21875 50.34375 64.25 
Q 56.984375 54.296875 56.984375 36.375 
Q 56.984375 18.5 50.34375 8.53125 
Q 43.703125 -1.421875 31.78125 -1.421875 
z
" id="DejaVuSerif-30"/>
     </defs>
     <g transform="translate(70.611055 275.555553)scale(0.1 -0.1)">
      <use xlink:href="#DejaVuSerif-2d"/>
      <use x="33.789062" xlink:href="#DejaVuSerif-37"/>
      <use x="97.412109" xlink:href="#DejaVuSerif-30"/>
      <use x="161.035156" xlink:href="#DejaVuSerif-30"/>
      <use x="224.658203" xlink:href="#DejaVuSerif-30"/>
     </g>
    </g>
   </g>
   <g id="xtick_2">
    <g id="line2d_3">
     <path d="M 141.594639 270.400271 
L 137.980893 271.836849 
" style="fill:none;stroke:#000000;stroke-linecap:square;stroke-width:0.8;"/>
    </g>
    <g id="text_3">
     <!-- 0 -->
     <g transform="translate(125.800553 294.873269)scale(0.1 -0.1)">
      <use xlink:href="#DejaVuSerif-30"/>
     </g>
    </g>
   </g>
   <g id="xtick_3">
    <g id="line2d_4">
     <path d="M 188.460431 290.297374 
L 184.842548 291.825102 
" style="fill:none;stroke:#000000;stroke-linecap:square;stroke-width:0.8;"/>
    </g>
    <g id="text_4">
     <!-- 7000 -->
     <g transform="translate(162.969837 315.402686)scale(0.1 -0.1)">
      <use xlink:href="#DejaVuSerif-37"/>
      <use x="63.623047" xlink:href="#DejaVuSerif-30"/>
      <use x="127.246094" xlink:href="#DejaVuSerif-30"/>
      <use x="190.869141" xlink:href="#DejaVuSerif-30"/>
     </g>
    </g>
   </g>
  </g>
  <g id="axis3d_2">
   <g id="line2d_5">
    <path d="M 298.266561 250.104696 
L 192.648649 295.154697 
" style="fill:none;stroke:#d3d3d3;stroke-linecap:square;stroke-width:0.8;"/>
   </g>
   <g id="text_5">
    <!-- $X(t-\tau)$ -->
    <defs>
     <path d="M 10.203125 23 
Q 9.375 23 8.828125 23.625 
Q 8.296875 24.265625 8.296875 25 
Q 8.296875 25.734375 8.828125 26.359375 
Q 9.375 27 10.203125 27 
L 67.578125 27 
Q 68.359375 27 68.875 26.359375 
Q 69.390625 25.734375 69.390625 25 
Q 69.390625 24.265625 68.875 23.625 
Q 68.359375 23 67.578125 23 
z
" id="Cmsy10-a1"/>
     <path d="M 15.578125 1.515625 
Q 15.578125 2.203125 15.71875 2.59375 
L 26.21875 36.921875 
L 17.1875 36.921875 
Q 13.53125 36.921875 10.34375 34.625 
Q 7.171875 32.328125 5.078125 28.8125 
Q 4.890625 28.421875 4.5 28.421875 
L 3.328125 28.421875 
Q 2.390625 28.421875 2.390625 29.390625 
Q 2.390625 29.59375 2.59375 29.984375 
Q 5.859375 35.546875 9.59375 39.328125 
Q 13.328125 43.109375 18.015625 43.109375 
L 48.6875 43.109375 
Q 49.75 43.109375 50.484375 42.375 
Q 51.21875 41.65625 51.21875 40.578125 
Q 51.21875 39.109375 50.171875 38.015625 
Q 49.125 36.921875 47.609375 36.921875 
L 29.5 36.921875 
L 22.796875 2.390625 
Q 22.40625 0.78125 21.328125 -0.265625 
Q 20.265625 -1.3125 18.609375 -1.3125 
Q 17.328125 -1.3125 16.453125 -0.5 
Q 15.578125 0.296875 15.578125 1.515625 
z
" id="Cmmi10-bf"/>
    </defs>
    <g transform="translate(248.583355 316.599675)rotate(-23.100066)scale(0.12 -0.12)">
     <use xlink:href="#Cmmi10-58"/>
     <use transform="translate(82.8125 0)" xlink:href="#Cmr10-28"/>
     <use transform="translate(121.630859 0)" xlink:href="#Cmmi10-74"/>
     <use transform="translate(175.273438 0)" xlink:href="#Cmsy10-a1"/>
     <use transform="translate(270.517578 0)" xlink:href="#Cmmi10-bf"/>
     <use transform="translate(314.21875 0)" xlink:href="#Cmr10-29"/>
    </g>
   </g>
   <g id="xtick_4">
    <g id="line2d_6">
     <path d="M 196.836866 290.297374 
L 200.45475 291.825102 
" style="fill:none;stroke:#000000;stroke-linecap:square;stroke-width:0.8;"/>
    </g>
    <g id="text_6">
     <!-- -7000 -->
     <g transform="translate(195.187617 315.402686)scale(0.1 -0.1)">
      <use xlink:href="#DejaVuSerif-2d"/>
      <use x="33.789062" xlink:href="#DejaVuSerif-37"/>
      <use x="97.412109" xlink:href="#DejaVuSerif-30"/>
      <use x="161.035156" xlink:href="#DejaVuSerif-30"/>
      <use x="224.658203" xlink:href="#DejaVuSerif-30"/>
     </g>
    </g>
   </g>
   <g id="xtick_5">
    <g id="line2d_7">
     <path d="M 243.702658 270.400271 
L 247.316404 271.836849 
" style="fill:none;stroke:#000000;stroke-linecap:square;stroke-width:0.8;"/>
    </g>
    <g id="text_7">
     <!-- 0 -->
     <g transform="translate(253.134245 294.873269)scale(0.1 -0.1)">
      <use xlink:href="#DejaVuSerif-30"/>
     </g>
    </g>
   </g>
   <g id="xtick_6">
    <g id="line2d_8">
     <path d="M 287.815724 251.671852 
L 291.419558 253.0252 
" style="fill:none;stroke:#000000;stroke-linecap:square;stroke-width:0.8;"/>
    </g>
    <g id="text_8">
     <!-- 7000 -->
     <g transform="translate(287.546399 275.555553)scale(0.1 -0.1)">
      <use xlink:href="#DejaVuSerif-37"/>
      <use x="63.623047" xlink:href="#DejaVuSerif-30"/>
      <use x="127.246094" xlink:href="#DejaVuSerif-30"/>
      <use x="190.869141" xlink:href="#DejaVuSerif-30"/>
     </g>
    </g>
   </g>
  </g>
  <g id="axis3d_3">
   <g id="line2d_9">
    <path d="M 298.266561 250.104696 
L 302.097666 103.3899 
" style="fill:none;stroke:#d3d3d3;stroke-linecap:square;stroke-width:0.8;"/>
   </g>
   <g id="text_9">
    <!-- $X(t-2\tau)$ -->
    <defs>
     <path d="M 4.984375 0 
L 4.984375 2.6875 
Q 4.984375 2.9375 5.171875 3.21875 
L 20.703125 20.40625 
Q 24.21875 24.21875 26.40625 26.796875 
Q 28.609375 29.390625 30.75 32.765625 
Q 32.90625 36.140625 34.15625 39.625 
Q 35.40625 43.109375 35.40625 47.015625 
Q 35.40625 51.125 33.890625 54.859375 
Q 32.375 58.59375 29.375 60.84375 
Q 26.375 63.09375 22.125 63.09375 
Q 17.78125 63.09375 14.3125 60.46875 
Q 10.84375 57.859375 9.421875 53.71875 
Q 9.8125 53.8125 10.5 53.8125 
Q 12.75 53.8125 14.328125 52.296875 
Q 15.921875 50.78125 15.921875 48.390625 
Q 15.921875 46.09375 14.328125 44.5 
Q 12.75 42.921875 10.5 42.921875 
Q 8.15625 42.921875 6.5625 44.546875 
Q 4.984375 46.1875 4.984375 48.390625 
Q 4.984375 52.15625 6.390625 55.4375 
Q 7.8125 58.734375 10.46875 61.296875 
Q 13.140625 63.875 16.484375 65.234375 
Q 19.828125 66.609375 23.578125 66.609375 
Q 29.296875 66.609375 34.21875 64.1875 
Q 39.15625 61.765625 42.03125 57.34375 
Q 44.921875 52.9375 44.921875 47.015625 
Q 44.921875 42.671875 43.015625 38.765625 
Q 41.109375 34.859375 38.125 31.65625 
Q 35.15625 28.46875 30.515625 24.40625 
Q 25.875 20.359375 24.421875 19 
L 13.09375 8.109375 
L 22.703125 8.109375 
Q 29.78125 8.109375 34.546875 8.21875 
Q 39.3125 8.34375 39.59375 8.59375 
Q 40.765625 9.859375 42 17.828125 
L 44.921875 17.828125 
L 42.09375 0 
z
" id="Cmr10-32"/>
    </defs>
    <g transform="translate(340.233282 202.364105)rotate(-88.504198)scale(0.12 -0.12)">
     <use xlink:href="#Cmmi10-58"/>
     <use transform="translate(82.8125 0)" xlink:href="#Cmr10-28"/>
     <use transform="translate(121.630859 0)" xlink:href="#Cmmi10-74"/>
     <use transform="translate(175.273438 0)" xlink:href="#Cmsy10-a1"/>
     <use transform="translate(270.517578 0)" xlink:href="#Cmr10-32"/>
     <use transform="translate(320.517578 0)" xlink:href="#Cmmi10-bf"/>
     <use transform="translate(364.21875 0)" xlink:href="#Cmr10-29"/>
    </g>
   </g>
   <g id="xtick_7">
    <g id="line2d_10">
     <path d="M 294.912068 238.956734 
L 298.523129 240.279245 
" style="fill:none;stroke:#000000;stroke-linecap:square;stroke-width:0.8;"/>
    </g>
    <g id="text_10">
     <!-- -7000 -->
     <g transform="translate(301.196797 247.877683)scale(0.1 -0.1)">
      <use xlink:href="#DejaVuSerif-2d"/>
      <use x="33.789062" xlink:href="#DejaVuSerif-37"/>
      <use x="97.412109" xlink:href="#DejaVuSerif-30"/>
      <use x="161.035156" xlink:href="#DejaVuSerif-30"/>
      <use x="224.658203" xlink:href="#DejaVuSerif-30"/>
     </g>
    </g>
   </g>
   <g id="xtick_8">
    <g id="line2d_11">
     <path d="M 296.478042 176.848807 
L 300.14799 178.054054 
" style="fill:none;stroke:#000000;stroke-linecap:square;stroke-width:0.8;"/>
    </g>
    <g id="text_11">
     <!-- 0 -->
     <g transform="translate(314.317511 185.652492)scale(0.1 -0.1)">
      <use xlink:href="#DejaVuSerif-30"/>
     </g>
    </g>
   </g>
   <g id="xtick_9">
    <g id="line2d_12">
     <path d="M 298.092722 112.809165 
L 301.823503 113.889147 
" style="fill:none;stroke:#000000;stroke-linecap:square;stroke-width:0.8;"/>
    </g>
    <g id="text_12">
     <!-- 7000 -->
     <g transform="translate(306.719708 121.487584)scale(0.1 -0.1)">
      <use xlink:href="#DejaVuSerif-37"/>
      <use x="63.623047" xlink:href="#DejaVuSerif-30"/>
      <use x="127.246094" xlink:href="#DejaVuSerif-30"/>
      <use x="190.869141" xlink:href="#DejaVuSerif-30"/>
     </g>
    </g>
   </g>
  </g>
  <g id="axes_1">
   <g id="Path3DCollection_1">
    <defs>
     <path d="M 0 2.236068 
C 0.593012 2.236068 1.161816 2.000462 1.581139 1.581139 
C 2.000462 1.161816 2.236068 0.593012 2.236068 0 
C 2.236068 -0.593012 2.000462 -1.161816 1.581139 -1.581139 
C 1.161816 -2.000462 0.593012 -2.236068 0 -2.236068 
C -0.593012 -2.236068 -1.161816 -2.000462 -1.581139 -1.581139 
C -2.000462 -1.161816 -2.236068 -0.593012 -2.236068 0 
C -2.236068 0.593012 -2.000462 1.161816 -1.581139 1.581139 
C -1.161816 2.000462 -0.593012 2.236068 0 2.236068 
z
" id="C0_0_2acb278b10"/>
    </defs>
    <g clip-path="url(#p36524ce1b2)">
     <use style="fill:#440154;" x="120.617061" xlink:href="#C0_0_2acb278b10" y="122.264475"/>
    </g>
    <g clip-path="url(#p36524ce1b2)">
     <use style="fill:#440154;" x="158.718887" xlink:href="#C0_0_2acb278b10" y="97.521031"/>
    </g>
    <g clip-path="url(#p36524ce1b2)">
     <use style="fill:#440154;" x="205.202847" xlink:href="#C0_0_2acb278b10" y="102.043435"/>
    </g>
    <g clip-path="url(#p36524ce1b2)">
     <use style="fill:#440154;" x="245.225793" xlink:href="#C0_0_2acb278b10" y="125.172662"/>
    </g>
    <g clip-path="url(#p36524ce1b2)">
     <use style="fill:#440154;" x="268.633786" xlink:href="#C0_0_2acb278b10" y="153.571273"/>
    </g>
    <g clip-path="url(#p36524ce1b2)">
     <use style="fill:#440154;" x="270.303058" xlink:href="#C0_0_2acb278b10" y="183.421577"/>
    </g>
    <g clip-path="url(#p36524ce1b2)">
     <use style="fill:#440154;" x="251.905441" xlink:href="#C0_0_2acb278b10" y="209.358726"/>
    </g>
    <g clip-path="url(#p36524ce1b2)">
     <use style="fill:#440154;" x="222.571712" xlink:href="#C0_0_2acb278b10" y="220.685641"/>
    </g>
    <g clip-path="url(#p36524ce1b2)">
     <use style="fill:#440154;" x="192.495848" xlink:href="#C0_0_2acb278b10" y="215.72532"/>
    </g>
    <g clip-path="url(#p36524ce1b2)">
     <use style="fill:#440154;" x="169.648895" xlink:href="#C0_0_2acb278b10" y="206.196636"/>
    </g>
    <g clip-path="url(#p36524ce1b2)">
     <use style="fill:#440154;" x="157.951871" xlink:href="#C0_0_2acb278b10" y="201.213198"/>
    </g>
    <g clip-path="url(#p36524ce1b2)">
     <use style="fill:#440154;" x="155.223885" xlink:href="#C0_0_2acb278b10" y="195.272758"/>
    </g>
    <g clip-path="url(#p36524ce1b2)">
     <use style="fill:#482878;" x="157.407639" xlink:href="#C0_0_2acb278b10" y="180.487999"/>
    </g>
    <g clip-path="url(#p36524ce1b2)">
     <use style="fill:#482878;" x="163.225535" xlink:href="#C0_0_2acb278b10" y="159.672558"/>
    </g>
    <g clip-path="url(#p36524ce1b2)">
     <use style="fill:#482878;" x="173.993315" xlink:href="#C0_0_2acb278b10" y="141.209985"/>
    </g>
    <g clip-path="url(#p36524ce1b2)">
     <use style="fill:#482878;" x="191.083441" xlink:href="#C0_0_2acb278b10" y="128.207398"/>
    </g>
    <g clip-path="url(#p36524ce1b2)">
     <use style="fill:#482878;" x="213.478518" xlink:href="#C0_0_2acb278b10" y="122.654191"/>
    </g>
    <g clip-path="url(#p36524ce1b2)">
     <use style="fill:#482878;" x="235.780776" xlink:href="#C0_0_2acb278b10" y="131.789793"/>
    </g>
    <g clip-path="url(#p36524ce1b2)">
     <use style="fill:#482878;" x="250.139438" xlink:href="#C0_0_2acb278b10" y="158.81939"/>
    </g>
    <g clip-path="url(#p36524ce1b2)">
     <use style="fill:#482878;" x="251.658172" xlink:href="#C0_0_2acb278b10" y="194.497471"/>
    </g>
    <g clip-path="url(#p36524ce1b2)">
     <use style="fill:#482878;" x="238.409191" xlink:href="#C0_0_2acb278b10" y="224.808061"/>
    </g>
    <g clip-path="url(#p36524ce1b2)">
     <use style="fill:#482878;" x="210.596571" xlink:href="#C0_0_2acb278b10" y="238.833262"/>
    </g>
    <g clip-path="url(#p36524ce1b2)">
     <use style="fill:#482878;" x="175.548338" xlink:href="#C0_0_2acb278b10" y="231.714359"/>
    </g>
    <g clip-path="url(#p36524ce1b2)">
     <use style="fill:#482878;" x="147.055593" xlink:href="#C0_0_2acb278b10" y="207.002912"/>
    </g>
    <g clip-path="url(#p36524ce1b2)">
     <use style="fill:#3e4989;" x="135.857911" xlink:href="#C0_0_2acb278b10" y="174.983911"/>
    </g>
    <g clip-path="url(#p36524ce1b2)">
     <use style="fill:#3e4989;" x="144.225284" xlink:href="#C0_0_2acb278b10" y="148.864349"/>
    </g>
    <g clip-path="url(#p36524ce1b2)">
     <use style="fill:#3e4989;" x="166.807182" xlink:href="#C0_0_2acb278b10" y="139.298874"/>
    </g>
    <g clip-path="url(#p36524ce1b2)">
     <use style="fill:#3e4989;" x="193.985232" xlink:href="#C0_0_2acb278b10" y="147.764023"/>
    </g>
    <g clip-path="url(#p36524ce1b2)">
     <use style="fill:#3e4989;" x="215.555603" xlink:href="#C0_0_2acb278b10" y="166.927689"/>
    </g>
    <g clip-path="url(#p36524ce1b2)">
     <use style="fill:#3e4989;" x="223.836801" xlink:href="#C0_0_2acb278b10" y="187.945364"/>
    </g>
    <g clip-path="url(#p36524ce1b2)">
     <use style="fill:#3e4989;" x="217.118257" xlink:href="#C0_0_2acb278b10" y="205.112874"/>
    </g>
    <g clip-path="url(#p36524ce1b2)">
     <use style="fill:#3e4989;" x="200.332634" xlink:href="#C0_0_2acb278b10" y="213.649915"/>
    </g>
    <g clip-path="url(#p36524ce1b2)">
     <use style="fill:#3e4989;" x="180.80651" xlink:href="#C0_0_2acb278b10" y="208.536003"/>
    </g>
    <g clip-path="url(#p36524ce1b2)">
     <use style="fill:#3e4989;" x="165.350282" xlink:href="#C0_0_2acb278b10" y="191.977574"/>
    </g>
    <g clip-path="url(#p36524ce1b2)">
     <use style="fill:#3e4989;" x="159.976192" xlink:href="#C0_0_2acb278b10" y="178.437819"/>
    </g>
    <g clip-path="url(#p36524ce1b2)">
     <use style="fill:#31688e;" x="165.831192" xlink:href="#C0_0_2acb278b10" y="181.185698"/>
    </g>
    <g clip-path="url(#p36524ce1b2)">
     <use style="fill:#31688e;" x="175.82232" xlink:href="#C0_0_2acb278b10" y="195.188063"/>
    </g>
    <g clip-path="url(#p36524ce1b2)">
     <use style="fill:#31688e;" x="180.279366" xlink:href="#C0_0_2acb278b10" y="204.353357"/>
    </g>
    <g clip-path="url(#p36524ce1b2)">
     <use style="fill:#31688e;" x="175.472576" xlink:href="#C0_0_2acb278b10" y="199.779152"/>
    </g>
    <g clip-path="url(#p36524ce1b2)">
     <use style="fill:#31688e;" x="166.931457" xlink:href="#C0_0_2acb278b10" y="184.360924"/>
    </g>
    <g clip-path="url(#p36524ce1b2)">
     <use style="fill:#31688e;" x="164.087211" xlink:href="#C0_0_2acb278b10" y="164.4991"/>
    </g>
    <g clip-path="url(#p36524ce1b2)">
     <use style="fill:#31688e;" x="172.13438" xlink:href="#C0_0_2acb278b10" y="146.706723"/>
    </g>
    <g clip-path="url(#p36524ce1b2)">
     <use style="fill:#31688e;" x="189.779762" xlink:href="#C0_0_2acb278b10" y="141.598709"/>
    </g>
    <g clip-path="url(#p36524ce1b2)">
     <use style="fill:#31688e;" x="209.769904" xlink:href="#C0_0_2acb278b10" y="156.26223"/>
    </g>
    <g clip-path="url(#p36524ce1b2)">
     <use style="fill:#31688e;" x="222.52877" xlink:href="#C0_0_2acb278b10" y="181.063103"/>
    </g>
    <g clip-path="url(#p36524ce1b2)">
     <use style="fill:#31688e;" x="222.133089" xlink:href="#C0_0_2acb278b10" y="197.349767"/>
    </g>
    <g clip-path="url(#p36524ce1b2)">
     <use style="fill:#31688e;" x="209.036031" xlink:href="#C0_0_2acb278b10" y="194.372534"/>
    </g>
    <g clip-path="url(#p36524ce1b2)">
     <use style="fill:#26828e;" x="191.468111" xlink:href="#C0_0_2acb278b10" y="173.929716"/>
    </g>
    <g clip-path="url(#p36524ce1b2)">
     <use style="fill:#26828e;" x="182.199607" xlink:href="#C0_0_2acb278b10" y="145.524781"/>
    </g>
    <g clip-path="url(#p36524ce1b2)">
     <use style="fill:#26828e;" x="189.371136" xlink:href="#C0_0_2acb278b10" y="122.096295"/>
    </g>
    <g clip-path="url(#p36524ce1b2)">
     <use style="fill:#26828e;" x="211.260703" xlink:href="#C0_0_2acb278b10" y="118.843878"/>
    </g>
    <g clip-path="url(#p36524ce1b2)">
     <use style="fill:#26828e;" x="236.766218" xlink:href="#C0_0_2acb278b10" y="144.057144"/>
    </g>
    <g clip-path="url(#p36524ce1b2)">
     <use style="fill:#26828e;" x="251.774581" xlink:href="#C0_0_2acb278b10" y="188.769394"/>
    </g>
    <g clip-path="url(#p36524ce1b2)">
     <use style="fill:#26828e;" x="246.546408" xlink:href="#C0_0_2acb278b10" y="234.572542"/>
    </g>
    <g clip-path="url(#p36524ce1b2)">
     <use style="fill:#26828e;" x="218.130123" xlink:href="#C0_0_2acb278b10" y="265.400647"/>
    </g>
    <g clip-path="url(#p36524ce1b2)">
     <use style="fill:#26828e;" x="173.611659" xlink:href="#C0_0_2acb278b10" y="269.971909"/>
    </g>
    <g clip-path="url(#p36524ce1b2)">
     <use style="fill:#26828e;" x="129.691614" xlink:href="#C0_0_2acb278b10" y="244.640331"/>
    </g>
    <g clip-path="url(#p36524ce1b2)">
     <use style="fill:#26828e;" x="103.180447" xlink:href="#C0_0_2acb278b10" y="196.759218"/>
    </g>
    <g clip-path="url(#p36524ce1b2)">
     <use style="fill:#1f9e89;" x="103.898429" xlink:href="#C0_0_2acb278b10" y="143.944887"/>
    </g>
    <g clip-path="url(#p36524ce1b2)">
     <use style="fill:#1f9e89;" x="131.77292" xlink:href="#C0_0_2acb278b10" y="107.000596"/>
    </g>
    <g clip-path="url(#p36524ce1b2)">
     <use style="fill:#1f9e89;" x="176.743255" xlink:href="#C0_0_2acb278b10" y="96.880225"/>
    </g>
    <g clip-path="url(#p36524ce1b2)">
     <use style="fill:#1f9e89;" x="224.12141" xlink:href="#C0_0_2acb278b10" y="110.854411"/>
    </g>
    <g clip-path="url(#p36524ce1b2)">
     <use style="fill:#1f9e89;" x="259.348866" xlink:href="#C0_0_2acb278b10" y="139.987198"/>
    </g>
    <g clip-path="url(#p36524ce1b2)">
     <use style="fill:#1f9e89;" x="271.926956" xlink:href="#C0_0_2acb278b10" y="173.858622"/>
    </g>
    <g clip-path="url(#p36524ce1b2)">
     <use style="fill:#1f9e89;" x="260.949719" xlink:href="#C0_0_2acb278b10" y="201.673849"/>
    </g>
    <g clip-path="url(#p36524ce1b2)">
     <use style="fill:#1f9e89;" x="234.589731" xlink:href="#C0_0_2acb278b10" y="214.915057"/>
    </g>
    <g clip-path="url(#p36524ce1b2)">
     <use style="fill:#1f9e89;" x="203.767425" xlink:href="#C0_0_2acb278b10" y="211.358586"/>
    </g>
    <g clip-path="url(#p36524ce1b2)">
     <use style="fill:#1f9e89;" x="178.611152" xlink:href="#C0_0_2acb278b10" y="198.328195"/>
    </g>
    <g clip-path="url(#p36524ce1b2)">
     <use style="fill:#1f9e89;" x="166.065048" xlink:href="#C0_0_2acb278b10" y="189.018695"/>
    </g>
    <g clip-path="url(#p36524ce1b2)">
     <use style="fill:#1f9e89;" x="165.813605" xlink:href="#C0_0_2acb278b10" y="190.063148"/>
    </g>
    <g clip-path="url(#p36524ce1b2)">
     <use style="fill:#35b779;" x="170.482449" xlink:href="#C0_0_2acb278b10" y="194.465188"/>
    </g>
    <g clip-path="url(#p36524ce1b2)">
     <use style="fill:#35b779;" x="172.497214" xlink:href="#C0_0_2acb278b10" y="189.615343"/>
    </g>
    <g clip-path="url(#p36524ce1b2)">
     <use style="fill:#35b779;" x="171.236258" xlink:href="#C0_0_2acb278b10" y="170.846021"/>
    </g>
    <g clip-path="url(#p36524ce1b2)">
     <use style="fill:#35b779;" x="173.39555" xlink:href="#C0_0_2acb278b10" y="146.086935"/>
    </g>
    <g clip-path="url(#p36524ce1b2)">
     <use style="fill:#35b779;" x="185.472623" xlink:href="#C0_0_2acb278b10" y="127.249849"/>
    </g>
    <g clip-path="url(#p36524ce1b2)">
     <use style="fill:#35b779;" x="207.091991" xlink:href="#C0_0_2acb278b10" y="121.488711"/>
    </g>
    <g clip-path="url(#p36524ce1b2)">
     <use style="fill:#35b779;" x="231.375685" xlink:href="#C0_0_2acb278b10" y="132.048882"/>
    </g>
    <g clip-path="url(#p36524ce1b2)">
     <use style="fill:#35b779;" x="248.865484" xlink:href="#C0_0_2acb278b10" y="159.054526"/>
    </g>
    <g clip-path="url(#p36524ce1b2)">
     <use style="fill:#35b779;" x="251.999662" xlink:href="#C0_0_2acb278b10" y="195.404756"/>
    </g>
    <g clip-path="url(#p36524ce1b2)">
     <use style="fill:#35b779;" x="237.878121" xlink:href="#C0_0_2acb278b10" y="226.787036"/>
    </g>
    <g clip-path="url(#p36524ce1b2)">
     <use style="fill:#35b779;" x="208.831593" xlink:href="#C0_0_2acb278b10" y="238.899922"/>
    </g>
    <g clip-path="url(#p36524ce1b2)">
     <use style="fill:#35b779;" x="173.684239" xlink:href="#C0_0_2acb278b10" y="226.157761"/>
    </g>
    <g clip-path="url(#p36524ce1b2)">
     <use style="fill:#6ece58;" x="146.588344" xlink:href="#C0_0_2acb278b10" y="196.295385"/>
    </g>
    <g clip-path="url(#p36524ce1b2)">
     <use style="fill:#6ece58;" x="138.911299" xlink:href="#C0_0_2acb278b10" y="165.181924"/>
    </g>
    <g clip-path="url(#p36524ce1b2)">
     <use style="fill:#6ece58;" x="151.752492" xlink:href="#C0_0_2acb278b10" y="146.056429"/>
    </g>
    <g clip-path="url(#p36524ce1b2)">
     <use style="fill:#6ece58;" x="176.763186" xlink:href="#C0_0_2acb278b10" y="144.070043"/>
    </g>
    <g clip-path="url(#p36524ce1b2)">
     <use style="fill:#6ece58;" x="201.968871" xlink:href="#C0_0_2acb278b10" y="157.075588"/>
    </g>
    <g clip-path="url(#p36524ce1b2)">
     <use style="fill:#6ece58;" x="217.518473" xlink:href="#C0_0_2acb278b10" y="178.537949"/>
    </g>
    <g clip-path="url(#p36524ce1b2)">
     <use style="fill:#6ece58;" x="218.867715" xlink:href="#C0_0_2acb278b10" y="200.460514"/>
    </g>
    <g clip-path="url(#p36524ce1b2)">
     <use style="fill:#6ece58;" x="207.060722" xlink:href="#C0_0_2acb278b10" y="214.996093"/>
    </g>
    <g clip-path="url(#p36524ce1b2)">
     <use style="fill:#6ece58;" x="187.437789" xlink:href="#C0_0_2acb278b10" y="215.686257"/>
    </g>
    <g clip-path="url(#p36524ce1b2)">
     <use style="fill:#6ece58;" x="167.907237" xlink:href="#C0_0_2acb278b10" y="201.200943"/>
    </g>
    <g clip-path="url(#p36524ce1b2)">
     <use style="fill:#6ece58;" x="156.788695" xlink:href="#C0_0_2acb278b10" y="179.896247"/>
    </g>
    <g clip-path="url(#p36524ce1b2)">
     <use style="fill:#b5de2b;" x="159.052654" xlink:href="#C0_0_2acb278b10" y="166.885361"/>
    </g>
    <g clip-path="url(#p36524ce1b2)">
     <use style="fill:#b5de2b;" x="172.095369" xlink:href="#C0_0_2acb278b10" y="170.904287"/>
    </g>
    <g clip-path="url(#p36524ce1b2)">
     <use style="fill:#b5de2b;" x="186.511478" xlink:href="#C0_0_2acb278b10" y="185.576198"/>
    </g>
    <g clip-path="url(#p36524ce1b2)">
     <use style="fill:#b5de2b;" x="192.794153" xlink:href="#C0_0_2acb278b10" y="197.003038"/>
    </g>
    <g clip-path="url(#p36524ce1b2)">
     <use style="fill:#b5de2b;" x="188.163508" xlink:href="#C0_0_2acb278b10" y="196.839106"/>
    </g>
    <g clip-path="url(#p36524ce1b2)">
     <use style="fill:#b5de2b;" x="178.503869" xlink:href="#C0_0_2acb278b10" y="186.34738"/>
    </g>
    <g clip-path="url(#p36524ce1b2)">
     <use style="fill:#b5de2b;" x="172.899304" xlink:href="#C0_0_2acb278b10" y="171.058723"/>
    </g>
    <g clip-path="url(#p36524ce1b2)">
     <use style="fill:#b5de2b;" x="176.373432" xlink:href="#C0_0_2acb278b10" y="157.622727"/>
    </g>
    <g clip-path="url(#p36524ce1b2)">
     <use style="fill:#b5de2b;" x="188.049586" xlink:href="#C0_0_2acb278b10" y="155.330466"/>
    </g>
    <g clip-path="url(#p36524ce1b2)">
     <use style="fill:#b5de2b;" x="202.149179" xlink:href="#C0_0_2acb278b10" y="169.579919"/>
    </g>
    <g clip-path="url(#p36524ce1b2)">
     <use style="fill:#b5de2b;" x="210.464" xlink:href="#C0_0_2acb278b10" y="190.658837"/>
    </g>
    <g clip-path="url(#p36524ce1b2)">
     <use style="fill:#b5de2b;" x="207.296777" xlink:href="#C0_0_2acb278b10" y="198.963029"/>
    </g>
    <g clip-path="url(#p36524ce1b2)">
     <use style="fill:#fde725;" x="194.279191" xlink:href="#C0_0_2acb278b10" y="183.23994"/>
    </g>
    <g clip-path="url(#p36524ce1b2)">
     <use style="fill:#fde725;" x="182.137003" xlink:href="#C0_0_2acb278b10" y="151.004159"/>
    </g>
    <g clip-path="url(#p36524ce1b2)">
     <use style="fill:#fde725;" x="183.768967" xlink:href="#C0_0_2acb278b10" y="120.411121"/>
    </g>
    <g clip-path="url(#p36524ce1b2)">
     <use style="fill:#fde725;" x="203.159794" xlink:href="#C0_0_2acb278b10" y="105.600932"/>
    </g>
    <g clip-path="url(#p36524ce1b2)">
     <use style="fill:#fde725;" x="233.242001" xlink:href="#C0_0_2acb278b10" y="115.95002"/>
    </g>
    <g clip-path="url(#p36524ce1b2)">
     <use style="fill:#fde725;" x="259.659193" xlink:href="#C0_0_2acb278b10" y="155.314911"/>
    </g>
    <g clip-path="url(#p36524ce1b2)">
     <use style="fill:#fde725;" x="267.398313" xlink:href="#C0_0_2acb278b10" y="211.61675"/>
    </g>
    <g clip-path="url(#p36524ce1b2)">
     <use style="fill:#fde725;" x="248.578241" xlink:href="#C0_0_2acb278b10" y="260.397257"/>
    </g>
    <g clip-path="url(#p36524ce1b2)">
     <use style="fill:#fde725;" x="205.337688" xlink:href="#C0_0_2acb278b10" y="282.405681"/>
    </g>
    <g clip-path="url(#p36524ce1b2)">
     <use style="fill:#fde725;" x="151.459187" xlink:href="#C0_0_2acb278b10" y="272.081413"/>
    </g>
    <g clip-path="url(#p36524ce1b2)">
     <use style="fill:#fde725;" x="108.06535" xlink:href="#C0_0_2acb278b10" y="234.680956"/>
    </g>
    <g clip-path="url(#p36524ce1b2)">
     <use style="fill:#fde725;" x="90.049895" xlink:href="#C0_0_2acb278b10" y="180.44422"/>
    </g>
   </g>
   <g id="line2d_13">
    <path clip-path="url(#p36524ce1b2)" d="M 120.617061 122.264475 
L 129.235664 113.451015 
L 138.943829 106.132378 
L 149.485914 100.586118 
L 160.596133 97.093856 
L 172.024888 95.790795 
L 183.589341 96.450724 
L 195.129975 98.792375 
L 206.501813 102.538578 
L 217.554676 107.423843 
L 228.094988 113.202566 
L 237.925993 119.639902 
L 246.854204 126.509635 
L 254.706815 133.691559 
L 261.34968 141.293956 
L 266.638357 149.453597 
L 270.403483 158.299948 
L 272.272296 167.878814 
L 271.679621 178.134661 
L 268.082916 188.938473 
L 261.533449 199.564339 
L 252.659648 208.752083 
L 242.126203 215.433905 
L 230.666899 219.43317 
L 218.994935 220.855836 
L 207.418864 219.885275 
L 195.661924 216.834653 
L 183.601549 212.154745 
L 172.572389 207.381427 
L 164.510097 204.381233 
L 159.392494 202.295109 
L 156.101779 198.684719 
L 155.270326 191.954887 
L 156.965045 182.463382 
L 159.293268 172.309505 
L 162.298376 162.127653 
L 166.842358 151.91164 
L 172.922253 142.531012 
L 180.210012 135.032584 
L 188.938083 129.287189 
L 199.476765 124.864444 
L 211.125681 122.681603 
L 222.631125 124.162808 
L 232.923418 129.414039 
L 241.062871 137.872129 
L 246.843427 148.622549 
L 250.560899 160.579412 
L 252.476373 172.874608 
L 252.673888 185.121309 
L 251.199998 197.02587 
L 248.054887 208.261249 
L 243.157135 218.385501 
L 236.41237 226.911786 
L 227.841666 233.404217 
L 217.693445 237.554522 
L 206.280087 239.065729 
L 194.14436 237.923558 
L 182.10782 234.523448 
L 170.985598 229.301843 
L 161.227369 222.567944 
L 152.846727 214.468428 
L 145.818577 205.132853 
L 140.284377 194.712461 
L 136.784033 183.427153 
L 135.908603 171.513099 
L 138.104248 159.709351 
L 143.564423 149.632776 
L 152.239738 142.776726 
L 163.000583 139.555527 
L 174.445058 139.974933 
L 185.700721 143.478982 
L 196.231997 149.170341 
L 205.598749 156.300228 
L 213.522981 164.401763 
L 219.685005 173.085868 
L 223.309089 182.416801 
L 223.339892 192.673891 
L 218.927216 202.899975 
L 209.780644 210.702469 
L 197.915689 213.78735 
L 186.013486 211.237178 
L 175.71515 204.830096 
L 167.622516 195.667915 
L 161.725334 184.414258 
L 160.147113 177.295294 
L 163.957445 179.200759 
L 170.232962 186.759789 
L 176.176647 195.781732 
L 179.719618 202.62259 
L 180.010029 205.098096 
L 176.920939 201.85721 
L 171.10763 192.61622 
L 165.74775 181.430802 
L 163.675665 171.756553 
L 164.599429 161.575536 
L 168.782595 150.66945 
L 177.927143 143.148015 
L 189.971386 141.627457 
L 200.483383 146.427288 
L 209.047199 155.321633 
L 216.099481 165.762832 
L 221.180787 176.61354 
L 223.574771 187.190066 
L 222.950413 195.623735 
L 219.297329 199.169481 
L 213.085224 197.276491 
L 205.154633 190.863554 
L 196.813067 181.458335 
L 189.784151 171.162895 
L 185.128408 161.16973 
L 182.686125 150.945539 
L 182.19471 139.828207 
L 184.411842 128.88949 
L 191.10135 120.906567 
L 202.32198 117.85964 
L 214.197626 119.836142 
L 223.918006 126.228175 
L 231.683187 135.592423 
L 238.023523 146.410331 
L 243.290972 157.604134 
L 247.456891 169.021652 
L 250.442911 180.637393 
L 252.168302 192.432647 
L 252.560182 204.306471 
L 251.55994 216.008409 
L 249.104153 227.265008 
L 245.124209 237.792137 
L 239.569268 247.31864 
L 232.42547 255.598577 
L 223.69155 262.373531 
L 213.389488 267.377209 
L 201.800334 270.441675 
L 189.497433 271.524658 
L 177.075245 270.601427 
L 165.099552 267.673137 
L 153.851094 262.901772 
L 143.441102 256.538442 
L 133.966805 248.832929 
L 125.514525 240.026385 
L 118.15369 230.300783 
L 111.943384 219.785158 
L 106.943454 208.60651 
L 103.214602 196.892269 
L 100.822912 184.790221 
L 99.854863 172.531303 
L 100.401385 160.370956 
L 102.55101 148.567937 
L 106.380001 137.384294 
L 111.836939 127.095339 
L 118.773624 117.979392 
L 127.041818 110.305314 
L 136.494773 104.326772 
L 146.917801 100.126659 
L 158.029632 97.614821 
L 169.558617 96.695072 
L 181.246821 97.275147 
L 192.877627 99.231657 
L 204.277675 102.396752 
L 215.272808 106.604177 
L 225.683898 111.691078 
L 235.36141 117.546891 
L 244.239425 124.190375 
L 252.259202 131.660571 
L 259.355518 139.996032 
L 265.36455 149.217139 
L 269.743933 159.272771 
L 271.846055 170.086071 
L 271.049865 181.511486 
L 267.152078 192.718247 
L 260.229283 202.426705 
L 250.588075 209.597687 
L 239.206394 213.985274 
L 227.160497 215.524076 
L 215.057708 214.432848 
L 203.168134 211.143831 
L 191.838583 206.181897 
L 181.667379 200.344343 
L 173.282319 194.507999 
L 167.051436 189.748249 
L 164.071445 187.969919 
L 170.40758 194.410385 
L 172.74063 191.599893 
L 171.750684 182.274434 
L 171.247212 171.532603 
L 171.482119 159.321404 
L 173.145712 147.125615 
L 177.007973 136.686799 
L 183.600308 128.668271 
L 193.209164 123.37812 
L 204.702662 121.41447 
L 216.386764 123.389567 
L 227.183727 128.843345 
L 236.27828 136.840918 
L 243.326053 146.650863 
L 248.401699 157.718672 
L 251.580557 169.521236 
L 252.858015 181.706107 
L 252.201871 193.98992 
L 249.572091 206.038413 
L 244.893233 217.173053 
L 238.071536 226.586427 
L 229.124013 233.552325 
L 218.585798 237.728906 
L 207.155838 238.867276 
L 195.492751 236.924593 
L 184.086511 232.414914 
L 173.403398 225.959185 
L 163.844098 218.129853 
L 155.557385 209.271091 
L 148.623682 199.673398 
L 143.14165 189.620176 
L 139.551779 179.344073 
L 138.509434 169.042005 
L 140.627821 158.969103 
L 146.147185 150.262516 
L 155.049727 144.647601 
L 166.554583 142.929819 
L 178.664077 144.520341 
L 189.798723 148.775602 
L 199.664 155.162686 
L 208.117481 163.191129 
L 214.746518 172.580674 
L 218.985737 183.15178 
L 220.035473 194.375915 
L 216.840595 205.251121 
L 209.194003 213.776124 
L 198.09428 217.17469 
L 186.09297 215.212694 
L 175.650786 209.016537 
L 166.985074 200.068771 
L 160.25413 189.723539 
L 156.601189 178.813195 
L 157.203444 169.296244 
L 162.709753 166.285663 
L 171.519184 170.486297 
L 180.521882 178.513868 
L 187.863951 187.407097 
L 192.164498 194.698281 
L 192.245239 198.513374 
L 187.181708 196.021338 
L 178.810113 186.770335 
L 173.91753 177.173283 
L 172.85148 166.308524 
L 177.666341 156.698654 
L 189.362223 155.699579 
L 198.128363 162.94949 
L 204.618297 174.286202 
L 209.442633 185.874865 
L 210.307428 194.977473 
L 207.239667 198.970762 
L 202.361155 195.999177 
L 196.749799 187.784977 
L 191.219097 176.974997 
L 186.394043 165.24898 
L 182.720115 153.418983 
L 180.622826 142.208678 
L 180.521328 131.893621 
L 182.817163 122.520593 
L 187.835631 114.218806 
L 195.410487 108.036459 
L 205.1635 105.453146 
L 216.442034 107.206832 
L 227.86571 112.377862 
L 237.961018 119.846594 
L 246.109444 128.86858 
L 252.587311 139.083727 
L 257.710272 150.147279 
L 261.781916 161.71868 
L 264.89494 173.5831 
L 266.957792 185.641478 
L 267.873098 197.80482 
L 267.542349 209.990484 
L 265.875474 222.094643 
L 262.846721 233.852508 
L 258.451745 244.934978 
L 252.682497 255.006857 
L 245.52943 263.728904 
L 237.058505 270.884403 
L 227.441363 276.415762 
L 216.868496 280.268401 
L 205.545717 282.384008 
L 193.699502 282.739282 
L 181.584737 281.460128 
L 169.46579 278.719166 
L 157.609529 274.697433 
L 146.282133 269.579597 
L 135.722214 263.45659 
L 126.131295 256.312143 
L 117.696547 248.123244 
L 110.593316 238.863803 
L 104.980883 228.512756 
L 100.912228 217.203095 
L 98.358797 205.191164 
L 97.290572 192.731725 
L 97.678875 180.074479 
L 99.496844 167.464421 
L 102.719898 155.142354 
L 107.326172 143.345563 
L 113.296945 132.308642 
L 120.617061 122.264475 
L 120.617061 122.264475 
" style="fill:none;opacity:0.8;stroke:#808080;stroke-linecap:square;"/>
   </g>
  </g>
 </g>
 <defs>
  <clipPath id="p36524ce1b2">
   <rect height="277.2" width="270" x="54" y="43.2"/>
  </clipPath>
 </defs>
</svg>
