<?xml version="1.0" encoding="utf-8" standalone="no"?>
<!DOCTYPE svg PUBLIC "-//W3C//DTD SVG 1.1//EN"
  "http://www.w3.org/Graphics/SVG/1.1/DTD/svg11.dtd">
<!-- Created with matplotlib (http://matplotlib.org/) -->
<svg height="360pt" version="1.1" viewBox="0 0 360 360" width="360pt" xmlns="http://www.w3.org/2000/svg" xmlns:xlink="http://www.w3.org/1999/xlink">
 <defs>
  <style type="text/css">
*{stroke-linecap:butt;stroke-linejoin:round;}
  </style>
 </defs>
 <g id="figure_1">
  <g id="patch_1">
   <path d="M 0 360 
L 360 360 
L 360 0 
L 0 0 
z
" style="fill:none;"/>
  </g>
  <g id="patch_2">
   <path d="M 54 320.4 
L 324 320.4 
L 324 43.2 
L 54 43.2 
z
" style="fill:none;"/>
  </g>
  <g id="pane3d_1">
   <g id="patch_3">
    <path d="M 87.030737 250.104696 
L 192.648649 210.791678 
L 192.648649 72.403141 
L 83.199631 103.3899 
" style="fill:#f2f2f2;opacity:0.5;stroke:#d3d3d3;stroke-linejoin:miter;"/>
   </g>
  </g>
  <g id="pane3d_2">
   <g id="patch_4">
    <path d="M 192.648649 210.791678 
L 298.266561 250.104696 
L 302.097666 103.3899 
L 192.648649 72.403141 
" style="fill:#ebebeb;opacity:0.92;stroke:#d3d3d3;stroke-linejoin:miter;"/>
   </g>
  </g>
  <g id="pane3d_3">
   <g id="patch_5">
    <path d="M 87.030737 250.104696 
L 192.648649 295.154697 
L 298.266561 250.104696 
L 192.648649 210.791678 
" style="fill:#f5f5f5;opacity:0.96;stroke:#d3d3d3;stroke-linejoin:miter;"/>
   </g>
  </g>
  <g id="axis3d_1">
   <g id="line2d_1">
    <path d="M 87.030737 250.104696 
L 192.648649 295.154697 
" style="fill:none;stroke:#d3d3d3;stroke-linecap:square;stroke-width:0.8;"/>
   </g>
   <g id="text_1">
    <!-- $X(t)$ -->
    <defs>
     <path d="M 3.609375 0 
Q 2.59375 0 2.59375 1.3125 
Q 2.640625 1.5625 2.8125 2.1875 
Q 2.984375 2.828125 3.25 3.171875 
Q 3.515625 3.515625 4 3.515625 
Q 13.09375 3.515625 19.578125 10.296875 
Q 19.671875 10.40625 19.796875 10.453125 
Q 19.921875 10.5 19.921875 10.5 
L 41.796875 34.078125 
L 29.890625 62.796875 
Q 28.859375 64.109375 26.5625 64.453125 
Q 24.265625 64.796875 21.1875 64.796875 
Q 20.21875 64.796875 20.21875 66.109375 
Q 20.5625 67.390625 20.75 67.84375 
Q 20.953125 68.3125 21.921875 68.3125 
L 46.921875 68.3125 
Q 47.90625 68.3125 47.90625 67 
Q 47.859375 66.75 47.6875 66.109375 
Q 47.515625 65.484375 47.234375 65.140625 
Q 46.96875 64.796875 46.484375 64.796875 
Q 44.625 64.796875 42.640625 64.1875 
Q 40.671875 63.578125 39.890625 62.203125 
L 48.484375 41.5 
L 64.890625 59.078125 
Q 65.046875 59.421875 65.578125 60.28125 
Q 66.109375 61.140625 66.109375 61.921875 
Q 66.109375 63.375 64.84375 64.078125 
Q 63.578125 64.796875 61.8125 64.796875 
Q 60.796875 64.796875 60.796875 66.109375 
Q 61.140625 67.390625 61.328125 67.84375 
Q 61.53125 68.3125 62.5 68.3125 
L 84.1875 68.3125 
Q 84.71875 68.3125 84.953125 67.921875 
Q 85.203125 67.53125 85.203125 67 
Q 85.15625 66.75 85 66.15625 
Q 84.859375 65.578125 84.609375 65.1875 
Q 84.375 64.796875 83.890625 64.796875 
Q 79.25 64.796875 75.359375 63.109375 
Q 71.484375 61.421875 68.21875 58.015625 
Q 68.171875 57.953125 68.09375 57.921875 
Q 68.015625 57.90625 67.921875 57.8125 
L 49.8125 38.28125 
L 63.484375 5.515625 
Q 65.09375 3.515625 72.21875 3.515625 
Q 73.1875 3.515625 73.1875 2.203125 
Q 72.859375 0.875 72.625 0.4375 
Q 72.40625 0 71.484375 0 
L 46.484375 0 
Q 45.515625 0 45.515625 1.3125 
Q 45.5625 1.5625 45.703125 2.171875 
Q 45.84375 2.78125 46.109375 3.140625 
Q 46.390625 3.515625 46.78125 3.515625 
Q 48.734375 3.515625 50.734375 4.125 
Q 52.734375 4.734375 53.515625 6.109375 
L 43.109375 31 
L 22.90625 9.1875 
Q 22.75 8.84375 22.21875 8 
Q 21.6875 7.171875 21.6875 6.390625 
Q 21.6875 4.9375 23.046875 4.21875 
Q 24.421875 3.515625 25.984375 3.515625 
Q 27 3.515625 27 2.203125 
Q 26.65625 0.78125 26.453125 0.390625 
Q 26.265625 0 25.296875 0 
z
" id="Cmmi10-58"/>
     <path d="M 31 -24.8125 
Q 25.4375 -20.40625 21.40625 -14.71875 
Q 17.390625 -9.03125 14.8125 -2.578125 
Q 12.25 3.859375 10.984375 10.890625 
Q 9.71875 17.921875 9.71875 25 
Q 9.71875 32.171875 10.984375 39.203125 
Q 12.25 46.234375 14.859375 52.734375 
Q 17.484375 59.234375 21.53125 64.890625 
Q 25.59375 70.5625 31 74.8125 
Q 31 75 31.5 75 
L 32.421875 75 
Q 32.71875 75 32.953125 74.734375 
Q 33.203125 74.46875 33.203125 74.125 
Q 33.203125 73.6875 33.015625 73.484375 
Q 28.125 68.703125 24.875 63.234375 
Q 21.625 57.765625 19.640625 51.578125 
Q 17.671875 45.40625 16.796875 38.78125 
Q 15.921875 32.171875 15.921875 25 
Q 15.921875 -6.78125 32.90625 -23.296875 
Q 33.203125 -23.578125 33.203125 -24.125 
Q 33.203125 -24.359375 32.9375 -24.671875 
Q 32.671875 -25 32.421875 -25 
L 31.5 -25 
Q 31 -25 31 -24.8125 
z
" id="Cmr10-28"/>
     <path d="M 6.203125 8.109375 
Q 6.203125 9.578125 6.5 10.890625 
L 13.71875 39.59375 
L 3.21875 39.59375 
Q 2.203125 39.59375 2.203125 40.921875 
Q 2.59375 43.109375 3.515625 43.109375 
L 14.59375 43.109375 
L 18.609375 59.421875 
Q 19 60.75 20.171875 61.671875 
Q 21.34375 62.59375 22.796875 62.59375 
Q 24.078125 62.59375 24.921875 61.828125 
Q 25.78125 61.078125 25.78125 59.8125 
Q 25.78125 59.515625 25.75 59.34375 
Q 25.734375 59.1875 25.6875 58.984375 
L 21.6875 43.109375 
L 31.984375 43.109375 
Q 33.015625 43.109375 33.015625 41.796875 
Q 32.953125 41.546875 32.8125 40.953125 
Q 32.671875 40.375 32.421875 39.984375 
Q 32.171875 39.59375 31.6875 39.59375 
L 20.796875 39.59375 
L 13.625 10.6875 
Q 12.890625 7.859375 12.890625 5.8125 
Q 12.890625 1.515625 15.828125 1.515625 
Q 20.21875 1.515625 23.609375 5.640625 
Q 27 9.765625 28.8125 14.703125 
Q 29.203125 15.28125 29.59375 15.28125 
L 30.8125 15.28125 
Q 31.203125 15.28125 31.4375 15.015625 
Q 31.6875 14.75 31.6875 14.40625 
Q 31.6875 14.203125 31.59375 14.109375 
Q 29.390625 8.0625 25.1875 3.46875 
Q 21 -1.125 15.578125 -1.125 
Q 11.625 -1.125 8.90625 1.453125 
Q 6.203125 4.046875 6.203125 8.109375 
z
" id="Cmmi10-74"/>
     <path d="M 6.5 -25 
Q 5.609375 -25 5.609375 -24.125 
Q 5.609375 -23.6875 5.8125 -23.484375 
Q 22.90625 -6.78125 22.90625 25 
Q 22.90625 56.78125 6 73.296875 
Q 5.609375 73.53125 5.609375 74.125 
Q 5.609375 74.46875 5.875 74.734375 
Q 6.15625 75 6.5 75 
L 7.421875 75 
Q 7.71875 75 7.90625 74.8125 
Q 15.09375 69.140625 19.875 61.03125 
Q 24.65625 52.9375 26.875 43.75 
Q 29.109375 34.578125 29.109375 25 
Q 29.109375 17.921875 27.90625 11.0625 
Q 26.703125 4.203125 24.09375 -2.453125 
Q 21.484375 -9.125 17.484375 -14.765625 
Q 13.484375 -20.40625 7.90625 -24.8125 
Q 7.71875 -25 7.421875 -25 
z
" id="Cmr10-29"/>
    </defs>
    <g transform="translate(106.304659 303.628975)rotate(-336.899934)scale(0.12 -0.12)">
     <use xlink:href="#Cmmi10-58"/>
     <use transform="translate(82.8125 0)" xlink:href="#Cmr10-28"/>
     <use transform="translate(121.630859 0)" xlink:href="#Cmmi10-74"/>
     <use transform="translate(157.714844 0)" xlink:href="#Cmr10-29"/>
    </g>
   </g>
   <g id="xtick_1">
    <g id="line2d_2">
     <path d="M 97.481573 251.671852 
L 93.877739 253.0252 
" style="fill:none;stroke:#000000;stroke-linecap:square;stroke-width:0.8;"/>
    </g>
    <g id="text_2">
     <!-- -7000 -->
     <defs>
      <path d="M 4.390625 30.609375 
L 29.390625 30.609375 
L 29.390625 23 
L 4.390625 23 
z
" id="DejaVuSerif-2d"/>
      <path d="M 56.390625 67.921875 
L 27.875 0 
L 20.609375 0 
L 47.796875 64.890625 
L 14.109375 64.890625 
L 14.109375 55.90625 
L 8.40625 55.90625 
L 8.40625 72.90625 
L 56.390625 72.90625 
z
" id="DejaVuSerif-37"/>
      <path d="M 31.78125 3.421875 
Q 39.265625 3.421875 42.96875 11.625 
Q 46.6875 19.828125 46.6875 36.375 
Q 46.6875 52.984375 42.96875 61.1875 
Q 39.265625 69.390625 31.78125 69.390625 
Q 24.3125 69.390625 20.59375 61.1875 
Q 16.890625 52.984375 16.890625 36.375 
Q 16.890625 19.828125 20.59375 11.625 
Q 24.3125 3.421875 31.78125 3.421875 
z
M 31.78125 -1.421875 
Q 19.921875 -1.421875 13.25 8.53125 
Q 6.59375 18.5 6.59375 36.375 
Q 6.59375 54.296875 13.25 64.25 
Q 19.921875 74.21875 31.78125 74.21875 
Q 43.703125 74.21875 50.34375 64.25 
Q 56.984375 54.296875 56.984375 36.375 
Q 56.984375 18.5 50.34375 8.53125 
Q 43.703125 -1.421875 31.78125 -1.421875 
z
" id="DejaVuSerif-30"/>
     </defs>
     <g transform="translate(70.611055 275.555553)scale(0.1 -0.1)">
      <use xlink:href="#DejaVuSerif-2d"/>
      <use x="33.789062" xlink:href="#DejaVuSerif-37"/>
      <use x="97.412109" xlink:href="#DejaVuSerif-30"/>
      <use x="161.035156" xlink:href="#DejaVuSerif-30"/>
      <use x="224.658203" xlink:href="#DejaVuSerif-30"/>
     </g>
    </g>
   </g>
   <g id="xtick_2">
    <g id="line2d_3">
     <path d="M 141.594639 270.400271 
L 137.980893 271.836849 
" style="fill:none;stroke:#000000;stroke-linecap:square;stroke-width:0.8;"/>
    </g>
    <g id="text_3">
     <!-- 0 -->
     <g transform="translate(125.800553 294.873269)scale(0.1 -0.1)">
      <use xlink:href="#DejaVuSerif-30"/>
     </g>
    </g>
   </g>
   <g id="xtick_3">
    <g id="line2d_4">
     <path d="M 188.460431 290.297374 
L 184.842548 291.825102 
" style="fill:none;stroke:#000000;stroke-linecap:square;stroke-width:0.8;"/>
    </g>
    <g id="text_4">
     <!-- 7000 -->
     <g transform="translate(162.969837 315.402686)scale(0.1 -0.1)">
      <use xlink:href="#DejaVuSerif-37"/>
      <use x="63.623047" xlink:href="#DejaVuSerif-30"/>
      <use x="127.246094" xlink:href="#DejaVuSerif-30"/>
      <use x="190.869141" xlink:href="#DejaVuSerif-30"/>
     </g>
    </g>
   </g>
  </g>
  <g id="axis3d_2">
   <g id="line2d_5">
    <path d="M 298.266561 250.104696 
L 192.648649 295.154697 
" style="fill:none;stroke:#d3d3d3;stroke-linecap:square;stroke-width:0.8;"/>
   </g>
   <g id="text_5">
    <!-- $X(t-\tau)$ -->
    <defs>
     <path d="M 10.203125 23 
Q 9.375 23 8.828125 23.625 
Q 8.296875 24.265625 8.296875 25 
Q 8.296875 25.734375 8.828125 26.359375 
Q 9.375 27 10.203125 27 
L 67.578125 27 
Q 68.359375 27 68.875 26.359375 
Q 69.390625 25.734375 69.390625 25 
Q 69.390625 24.265625 68.875 23.625 
Q 68.359375 23 67.578125 23 
z
" id="Cmsy10-a1"/>
     <path d="M 15.578125 1.515625 
Q 15.578125 2.203125 15.71875 2.59375 
L 26.21875 36.921875 
L 17.1875 36.921875 
Q 13.53125 36.921875 10.34375 34.625 
Q 7.171875 32.328125 5.078125 28.8125 
Q 4.890625 28.421875 4.5 28.421875 
L 3.328125 28.421875 
Q 2.390625 28.421875 2.390625 29.390625 
Q 2.390625 29.59375 2.59375 29.984375 
Q 5.859375 35.546875 9.59375 39.328125 
Q 13.328125 43.109375 18.015625 43.109375 
L 48.6875 43.109375 
Q 49.75 43.109375 50.484375 42.375 
Q 51.21875 41.65625 51.21875 40.578125 
Q 51.21875 39.109375 50.171875 38.015625 
Q 49.125 36.921875 47.609375 36.921875 
L 29.5 36.921875 
L 22.796875 2.390625 
Q 22.40625 0.78125 21.328125 -0.265625 
Q 20.265625 -1.3125 18.609375 -1.3125 
Q 17.328125 -1.3125 16.453125 -0.5 
Q 15.578125 0.296875 15.578125 1.515625 
z
" id="Cmmi10-bf"/>
    </defs>
    <g transform="translate(248.583355 316.599675)rotate(-23.100066)scale(0.12 -0.12)">
     <use xlink:href="#Cmmi10-58"/>
     <use transform="translate(82.8125 0)" xlink:href="#Cmr10-28"/>
     <use transform="translate(121.630859 0)" xlink:href="#Cmmi10-74"/>
     <use transform="translate(175.273438 0)" xlink:href="#Cmsy10-a1"/>
     <use transform="translate(270.517578 0)" xlink:href="#Cmmi10-bf"/>
     <use transform="translate(314.21875 0)" xlink:href="#Cmr10-29"/>
    </g>
   </g>
   <g id="xtick_4">
    <g id="line2d_6">
     <path d="M 196.836866 290.297374 
L 200.45475 291.825102 
" style="fill:none;stroke:#000000;stroke-linecap:square;stroke-width:0.8;"/>
    </g>
    <g id="text_6">
     <!-- -7000 -->
     <g transform="translate(195.187617 315.402686)scale(0.1 -0.1)">
      <use xlink:href="#DejaVuSerif-2d"/>
      <use x="33.789062" xlink:href="#DejaVuSerif-37"/>
      <use x="97.412109" xlink:href="#DejaVuSerif-30"/>
      <use x="161.035156" xlink:href="#DejaVuSerif-30"/>
      <use x="224.658203" xlink:href="#DejaVuSerif-30"/>
     </g>
    </g>
   </g>
   <g id="xtick_5">
    <g id="line2d_7">
     <path d="M 243.702658 270.400271 
L 247.316404 271.836849 
" style="fill:none;stroke:#000000;stroke-linecap:square;stroke-width:0.8;"/>
    </g>
    <g id="text_7">
     <!-- 0 -->
     <g transform="translate(253.134245 294.873269)scale(0.1 -0.1)">
      <use xlink:href="#DejaVuSerif-30"/>
     </g>
    </g>
   </g>
   <g id="xtick_6">
    <g id="line2d_8">
     <path d="M 287.815724 251.671852 
L 291.419558 253.0252 
" style="fill:none;stroke:#000000;stroke-linecap:square;stroke-width:0.8;"/>
    </g>
    <g id="text_8">
     <!-- 7000 -->
     <g transform="translate(287.546399 275.555553)scale(0.1 -0.1)">
      <use xlink:href="#DejaVuSerif-37"/>
      <use x="63.623047" xlink:href="#DejaVuSerif-30"/>
      <use x="127.246094" xlink:href="#DejaVuSerif-30"/>
      <use x="190.869141" xlink:href="#DejaVuSerif-30"/>
     </g>
    </g>
   </g>
  </g>
  <g id="axis3d_3">
   <g id="line2d_9">
    <path d="M 298.266561 250.104696 
L 302.097666 103.3899 
" style="fill:none;stroke:#d3d3d3;stroke-linecap:square;stroke-width:0.8;"/>
   </g>
   <g id="text_9">
    <!-- $X(t-2\tau)$ -->
    <defs>
     <path d="M 4.984375 0 
L 4.984375 2.6875 
Q 4.984375 2.9375 5.171875 3.21875 
L 20.703125 20.40625 
Q 24.21875 24.21875 26.40625 26.796875 
Q 28.609375 29.390625 30.75 32.765625 
Q 32.90625 36.140625 34.15625 39.625 
Q 35.40625 43.109375 35.40625 47.015625 
Q 35.40625 51.125 33.890625 54.859375 
Q 32.375 58.59375 29.375 60.84375 
Q 26.375 63.09375 22.125 63.09375 
Q 17.78125 63.09375 14.3125 60.46875 
Q 10.84375 57.859375 9.421875 53.71875 
Q 9.8125 53.8125 10.5 53.8125 
Q 12.75 53.8125 14.328125 52.296875 
Q 15.921875 50.78125 15.921875 48.390625 
Q 15.921875 46.09375 14.328125 44.5 
Q 12.75 42.921875 10.5 42.921875 
Q 8.15625 42.921875 6.5625 44.546875 
Q 4.984375 46.1875 4.984375 48.390625 
Q 4.984375 52.15625 6.390625 55.4375 
Q 7.8125 58.734375 10.46875 61.296875 
Q 13.140625 63.875 16.484375 65.234375 
Q 19.828125 66.609375 23.578125 66.609375 
Q 29.296875 66.609375 34.21875 64.1875 
Q 39.15625 61.765625 42.03125 57.34375 
Q 44.921875 52.9375 44.921875 47.015625 
Q 44.921875 42.671875 43.015625 38.765625 
Q 41.109375 34.859375 38.125 31.65625 
Q 35.15625 28.46875 30.515625 24.40625 
Q 25.875 20.359375 24.421875 19 
L 13.09375 8.109375 
L 22.703125 8.109375 
Q 29.78125 8.109375 34.546875 8.21875 
Q 39.3125 8.34375 39.59375 8.59375 
Q 40.765625 9.859375 42 17.828125 
L 44.921875 17.828125 
L 42.09375 0 
z
" id="Cmr10-32"/>
    </defs>
    <g transform="translate(340.233282 202.364105)rotate(-88.504198)scale(0.12 -0.12)">
     <use xlink:href="#Cmmi10-58"/>
     <use transform="translate(82.8125 0)" xlink:href="#Cmr10-28"/>
     <use transform="translate(121.630859 0)" xlink:href="#Cmmi10-74"/>
     <use transform="translate(175.273438 0)" xlink:href="#Cmsy10-a1"/>
     <use transform="translate(270.517578 0)" xlink:href="#Cmr10-32"/>
     <use transform="translate(320.517578 0)" xlink:href="#Cmmi10-bf"/>
     <use transform="translate(364.21875 0)" xlink:href="#Cmr10-29"/>
    </g>
   </g>
   <g id="xtick_7">
    <g id="line2d_10">
     <path d="M 294.912068 238.956734 
L 298.523129 240.279245 
" style="fill:none;stroke:#000000;stroke-linecap:square;stroke-width:0.8;"/>
    </g>
    <g id="text_10">
     <!-- -7000 -->
     <g transform="translate(301.196797 247.877683)scale(0.1 -0.1)">
      <use xlink:href="#DejaVuSerif-2d"/>
      <use x="33.789062" xlink:href="#DejaVuSerif-37"/>
      <use x="97.412109" xlink:href="#DejaVuSerif-30"/>
      <use x="161.035156" xlink:href="#DejaVuSerif-30"/>
      <use x="224.658203" xlink:href="#DejaVuSerif-30"/>
     </g>
    </g>
   </g>
   <g id="xtick_8">
    <g id="line2d_11">
     <path d="M 296.478042 176.848807 
L 300.14799 178.054054 
" style="fill:none;stroke:#000000;stroke-linecap:square;stroke-width:0.8;"/>
    </g>
    <g id="text_11">
     <!-- 0 -->
     <g transform="translate(314.317511 185.652492)scale(0.1 -0.1)">
      <use xlink:href="#DejaVuSerif-30"/>
     </g>
    </g>
   </g>
   <g id="xtick_9">
    <g id="line2d_12">
     <path d="M 298.092722 112.809165 
L 301.823503 113.889147 
" style="fill:none;stroke:#000000;stroke-linecap:square;stroke-width:0.8;"/>
    </g>
    <g id="text_12">
     <!-- 7000 -->
     <g transform="translate(306.719708 121.487584)scale(0.1 -0.1)">
      <use xlink:href="#DejaVuSerif-37"/>
      <use x="63.623047" xlink:href="#DejaVuSerif-30"/>
      <use x="127.246094" xlink:href="#DejaVuSerif-30"/>
      <use x="190.869141" xlink:href="#DejaVuSerif-30"/>
     </g>
    </g>
   </g>
  </g>
  <g id="axes_1">
   <g id="Path3DCollection_1">
    <defs>
     <path d="M 0 2.236068 
C 0.593012 2.236068 1.161816 2.000462 1.581139 1.581139 
C 2.000462 1.161816 2.236068 0.593012 2.236068 0 
C 2.236068 -0.593012 2.000462 -1.161816 1.581139 -1.581139 
C 1.161816 -2.000462 0.593012 -2.236068 0 -2.236068 
C -0.593012 -2.236068 -1.161816 -2.000462 -1.581139 -1.581139 
C -2.000462 -1.161816 -2.236068 -0.593012 -2.236068 0 
C -2.236068 0.593012 -2.000462 1.161816 -1.581139 1.581139 
C -1.161816 2.000462 -0.593012 2.236068 0 2.236068 
z
" id="C0_0_97a359aec3"/>
    </defs>
    <g clip-path="url(#p8de4089e84)">
     <use style="fill:#440154;" x="122.778334" xlink:href="#C0_0_97a359aec3" y="131.373191"/>
    </g>
    <g clip-path="url(#p8de4089e84)">
     <use style="fill:#440154;" x="156.125793" xlink:href="#C0_0_97a359aec3" y="107.956541"/>
    </g>
    <g clip-path="url(#p8de4089e84)">
     <use style="fill:#440154;" x="198.340162" xlink:href="#C0_0_97a359aec3" y="107.859704"/>
    </g>
    <g clip-path="url(#p8de4089e84)">
     <use style="fill:#440154;" x="236.284888" xlink:href="#C0_0_97a359aec3" y="126.133445"/>
    </g>
    <g clip-path="url(#p8de4089e84)">
     <use style="fill:#440154;" x="259.715851" xlink:href="#C0_0_97a359aec3" y="154.707699"/>
    </g>
    <g clip-path="url(#p8de4089e84)">
     <use style="fill:#440154;" x="262.944091" xlink:href="#C0_0_97a359aec3" y="185.20996"/>
    </g>
    <g clip-path="url(#p8de4089e84)">
     <use style="fill:#482878;" x="247.031969" xlink:href="#C0_0_97a359aec3" y="207.369929"/>
    </g>
    <g clip-path="url(#p8de4089e84)">
     <use style="fill:#482878;" x="219.858078" xlink:href="#C0_0_97a359aec3" y="213.566798"/>
    </g>
    <g clip-path="url(#p8de4089e84)">
     <use style="fill:#482878;" x="192.051892" xlink:href="#C0_0_97a359aec3" y="205.47055"/>
    </g>
    <g clip-path="url(#p8de4089e84)">
     <use style="fill:#482878;" x="172.690113" xlink:href="#C0_0_97a359aec3" y="192.832814"/>
    </g>
    <g clip-path="url(#p8de4089e84)">
     <use style="fill:#482878;" x="165.679796" xlink:href="#C0_0_97a359aec3" y="185.031303"/>
    </g>
    <g clip-path="url(#p8de4089e84)">
     <use style="fill:#482878;" x="168.470483" xlink:href="#C0_0_97a359aec3" y="184.309188"/>
    </g>
    <g clip-path="url(#p8de4089e84)">
     <use style="fill:#3e4989;" x="174.646273" xlink:href="#C0_0_97a359aec3" y="185.813861"/>
    </g>
    <g clip-path="url(#p8de4089e84)">
     <use style="fill:#3e4989;" x="178.462021" xlink:href="#C0_0_97a359aec3" y="181.531558"/>
    </g>
    <g clip-path="url(#p8de4089e84)">
     <use style="fill:#3e4989;" x="179.44058" xlink:href="#C0_0_97a359aec3" y="167.103514"/>
    </g>
    <g clip-path="url(#p8de4089e84)">
     <use style="fill:#3e4989;" x="182.805025" xlink:href="#C0_0_97a359aec3" y="147.405666"/>
    </g>
    <g clip-path="url(#p8de4089e84)">
     <use style="fill:#3e4989;" x="193.637608" xlink:href="#C0_0_97a359aec3" y="132.93878"/>
    </g>
    <g clip-path="url(#p8de4089e84)">
     <use style="fill:#3e4989;" x="211.246144" xlink:href="#C0_0_97a359aec3" y="130.888337"/>
    </g>
    <g clip-path="url(#p8de4089e84)">
     <use style="fill:#31688e;" x="229.85314" xlink:href="#C0_0_97a359aec3" y="142.848803"/>
    </g>
    <g clip-path="url(#p8de4089e84)">
     <use style="fill:#31688e;" x="242.299964" xlink:href="#C0_0_97a359aec3" y="167.907065"/>
    </g>
    <g clip-path="url(#p8de4089e84)">
     <use style="fill:#31688e;" x="242.353172" xlink:href="#C0_0_97a359aec3" y="200.512198"/>
    </g>
    <g clip-path="url(#p8de4089e84)">
     <use style="fill:#31688e;" x="227.037747" xlink:href="#C0_0_97a359aec3" y="227.5465"/>
    </g>
    <g clip-path="url(#p8de4089e84)">
     <use style="fill:#31688e;" x="199.093496" xlink:href="#C0_0_97a359aec3" y="235.465324"/>
    </g>
    <g clip-path="url(#p8de4089e84)">
     <use style="fill:#31688e;" x="167.633833" xlink:href="#C0_0_97a359aec3" y="221.070791"/>
    </g>
    <g clip-path="url(#p8de4089e84)">
     <use style="fill:#26828e;" x="145.30656" xlink:href="#C0_0_97a359aec3" y="193.798001"/>
    </g>
    <g clip-path="url(#p8de4089e84)">
     <use style="fill:#26828e;" x="140.841128" xlink:href="#C0_0_97a359aec3" y="167.478997"/>
    </g>
    <g clip-path="url(#p8de4089e84)">
     <use style="fill:#26828e;" x="153.817012" xlink:href="#C0_0_97a359aec3" y="151.236489"/>
    </g>
    <g clip-path="url(#p8de4089e84)">
     <use style="fill:#26828e;" x="176.638386" xlink:href="#C0_0_97a359aec3" y="148.369704"/>
    </g>
    <g clip-path="url(#p8de4089e84)">
     <use style="fill:#26828e;" x="199.101759" xlink:href="#C0_0_97a359aec3" y="158.163545"/>
    </g>
    <g clip-path="url(#p8de4089e84)">
     <use style="fill:#1f9e89;" x="213.124204" xlink:href="#C0_0_97a359aec3" y="176.401712"/>
    </g>
    <g clip-path="url(#p8de4089e84)">
     <use style="fill:#1f9e89;" x="215.430971" xlink:href="#C0_0_97a359aec3" y="196.381492"/>
    </g>
    <g clip-path="url(#p8de4089e84)">
     <use style="fill:#1f9e89;" x="206.481559" xlink:href="#C0_0_97a359aec3" y="209.972051"/>
    </g>
    <g clip-path="url(#p8de4089e84)">
     <use style="fill:#1f9e89;" x="189.689731" xlink:href="#C0_0_97a359aec3" y="210.27003"/>
    </g>
    <g clip-path="url(#p8de4089e84)">
     <use style="fill:#1f9e89;" x="172.154061" xlink:href="#C0_0_97a359aec3" y="197.77752"/>
    </g>
    <g clip-path="url(#p8de4089e84)">
     <use style="fill:#1f9e89;" x="162.324411" xlink:href="#C0_0_97a359aec3" y="182.721321"/>
    </g>
    <g clip-path="url(#p8de4089e84)">
     <use style="fill:#35b779;" x="163.977437" xlink:href="#C0_0_97a359aec3" y="176.647378"/>
    </g>
    <g clip-path="url(#p8de4089e84)">
     <use style="fill:#35b779;" x="173.091086" xlink:href="#C0_0_97a359aec3" y="181.734781"/>
    </g>
    <g clip-path="url(#p8de4089e84)">
     <use style="fill:#35b779;" x="181.6482" xlink:href="#C0_0_97a359aec3" y="190.559104"/>
    </g>
    <g clip-path="url(#p8de4089e84)">
     <use style="fill:#35b779;" x="183.82169" xlink:href="#C0_0_97a359aec3" y="193.920527"/>
    </g>
    <g clip-path="url(#p8de4089e84)">
     <use style="fill:#35b779;" x="179.802545" xlink:href="#C0_0_97a359aec3" y="187.460552"/>
    </g>
    <g clip-path="url(#p8de4089e84)">
     <use style="fill:#35b779;" x="175.39646" xlink:href="#C0_0_97a359aec3" y="173.724754"/>
    </g>
    <g clip-path="url(#p8de4089e84)">
     <use style="fill:#6ece58;" x="176.983414" xlink:href="#C0_0_97a359aec3" y="159.683951"/>
    </g>
    <g clip-path="url(#p8de4089e84)">
     <use style="fill:#6ece58;" x="186.354374" xlink:href="#C0_0_97a359aec3" y="152.735236"/>
    </g>
    <g clip-path="url(#p8de4089e84)">
     <use style="fill:#6ece58;" x="199.958645" xlink:href="#C0_0_97a359aec3" y="157.963817"/>
    </g>
    <g clip-path="url(#p8de4089e84)">
     <use style="fill:#6ece58;" x="211.518728" xlink:href="#C0_0_97a359aec3" y="174.896617"/>
    </g>
    <g clip-path="url(#p8de4089e84)">
     <use style="fill:#6ece58;" x="214.946529" xlink:href="#C0_0_97a359aec3" y="193.905207"/>
    </g>
    <g clip-path="url(#p8de4089e84)">
     <use style="fill:#6ece58;" x="207.189384" xlink:href="#C0_0_97a359aec3" y="199.069224"/>
    </g>
    <g clip-path="url(#p8de4089e84)">
     <use style="fill:#b5de2b;" x="191.943335" xlink:href="#C0_0_97a359aec3" y="180.820161"/>
    </g>
    <g clip-path="url(#p8de4089e84)">
     <use style="fill:#b5de2b;" x="180.659277" xlink:href="#C0_0_97a359aec3" y="147.533817"/>
    </g>
    <g clip-path="url(#p8de4089e84)">
     <use style="fill:#b5de2b;" x="184.909396" xlink:href="#C0_0_97a359aec3" y="119.754229"/>
    </g>
    <g clip-path="url(#p8de4089e84)">
     <use style="fill:#b5de2b;" x="205.988995" xlink:href="#C0_0_97a359aec3" y="112.42475"/>
    </g>
    <g clip-path="url(#p8de4089e84)">
     <use style="fill:#b5de2b;" x="234.485609" xlink:href="#C0_0_97a359aec3" y="129.942173"/>
    </g>
    <g clip-path="url(#p8de4089e84)">
     <use style="fill:#b5de2b;" x="256.216134" xlink:href="#C0_0_97a359aec3" y="170.431924"/>
    </g>
    <g clip-path="url(#p8de4089e84)">
     <use style="fill:#fde725;" x="257.971042" xlink:href="#C0_0_97a359aec3" y="221.53429"/>
    </g>
    <g clip-path="url(#p8de4089e84)">
     <use style="fill:#fde725;" x="234.151112" xlink:href="#C0_0_97a359aec3" y="260.724043"/>
    </g>
    <g clip-path="url(#p8de4089e84)">
     <use style="fill:#fde725;" x="190.498947" xlink:href="#C0_0_97a359aec3" y="271.063888"/>
    </g>
    <g clip-path="url(#p8de4089e84)">
     <use style="fill:#fde725;" x="143.009625" xlink:href="#C0_0_97a359aec3" y="252.162412"/>
    </g>
    <g clip-path="url(#p8de4089e84)">
     <use style="fill:#fde725;" x="110.478166" xlink:href="#C0_0_97a359aec3" y="214.185738"/>
    </g>
    <g clip-path="url(#p8de4089e84)">
     <use style="fill:#fde725;" x="102.884795" xlink:href="#C0_0_97a359aec3" y="167.038768"/>
    </g>
   </g>
   <g id="line2d_13">
    <path clip-path="url(#p8de4089e84)" d="M 122.778334 131.373191 
L 126.195696 127.283764 
L 129.885513 123.486222 
L 133.826253 119.998502 
L 137.996528 116.83844 
L 142.375107 114.023781 
L 146.940917 111.572199 
L 151.673049 109.501313 
L 156.550756 107.828703 
L 161.552341 106.564309 
L 166.652886 105.694507 
L 171.827144 105.201218 
L 177.050214 105.066511 
L 182.297531 105.272626 
L 187.544851 105.802013 
L 192.768231 106.637352 
L 197.944002 107.761576 
L 203.049722 109.158386 
L 208.068066 110.814268 
L 212.983249 112.716716 
L 217.779414 114.853428 
L 222.440609 117.212287 
L 226.950761 119.78135 
L 231.293653 122.548833 
L 235.452902 125.503098 
L 239.41201 128.633875 
L 243.154826 131.940274 
L 246.665032 135.42561 
L 249.925827 139.09314 
L 252.919946 142.946018 
L 255.629682 146.987263 
L 258.036914 151.219733 
L 260.123073 155.646034 
L 261.856479 160.257591 
L 263.177151 165.021446 
L 264.020873 169.900686 
L 264.32299 174.857534 
L 264.0186 179.85333 
L 263.042782 184.848545 
L 261.346927 189.790396 
L 258.96288 194.56367 
L 255.947995 199.033794 
L 252.360196 203.066214 
L 248.257789 206.526512 
L 243.701677 209.29162 
L 238.775663 211.345607 
L 233.576343 212.732455 
L 228.200511 213.497198 
L 222.744944 213.685183 
L 217.304962 213.341964 
L 211.939275 212.512842 
L 206.66796 211.243 
L 201.510471 209.578221 
L 196.487529 207.565122 
L 191.620993 205.251303 
L 186.942282 202.69314 
L 182.509192 199.971259 
L 178.383466 197.170607 
L 174.625538 194.375577 
L 171.29704 191.670501 
L 168.541267 189.162961 
L 166.598143 186.988813 
L 165.709664 185.284779 
L 166.164028 184.232862 
L 168.619142 184.344513 
L 173.048509 185.564413 
L 176.529624 185.46633 
L 178.101079 183.164834 
L 178.75495 179.33034 
L 179.097914 174.520706 
L 179.669604 163.616431 
L 180.253878 158.12712 
L 181.231193 152.758838 
L 182.740149 147.584401 
L 184.895852 142.702182 
L 187.71355 138.325838 
L 191.180725 134.698366 
L 195.283158 132.056674 
L 199.922676 130.519639 
L 204.888619 130.048591 
L 209.966118 130.594151 
L 214.952592 132.101803 
L 219.721497 134.458703 
L 224.183886 137.522234 
L 228.2496 141.150389 
L 231.830687 145.204112 
L 234.902049 149.591985 
L 237.491111 154.262051 
L 239.626195 159.162879 
L 241.335109 164.242187 
L 242.645184 169.446865 
L 243.570439 174.734085 
L 244.102229 180.080049 
L 244.229743 185.463003 
L 243.942217 190.861345 
L 243.228891 196.253645 
L 242.078982 201.618513 
L 240.48317 206.910229 
L 238.435364 212.02961 
L 235.929659 216.870489 
L 232.959784 221.326709 
L 229.51901 225.291988 
L 225.600779 228.66055 
L 221.236512 231.368841 
L 216.514603 233.415465 
L 211.528962 234.803394 
L 206.37468 235.535187 
L 201.148141 235.613251 
L 195.944259 235.042128 
L 190.818376 233.856156 
L 185.795727 232.112618 
L 180.901321 229.87019 
L 176.160634 227.188441 
L 171.599525 224.127852 
L 167.244141 220.749797 
L 163.119896 217.111264 
L 159.249276 213.253894 
L 155.653715 209.216504 
L 152.354054 205.037958 
L 149.370512 200.757061 
L 146.722665 196.412453 
L 144.429978 192.042199 
L 142.5322 187.67189 
L 141.095194 183.310889 
L 140.185419 178.966846 
L 139.868203 174.646737 
L 140.207867 170.356873 
L 141.267379 166.103885 
L 143.075741 161.956221 
L 145.60957 158.079307 
L 148.842793 154.644187 
L 152.752206 151.819506 
L 157.305118 149.756517 
L 162.359347 148.46745 
L 167.71572 147.895839 
L 173.173366 147.986772 
L 178.530773 148.686793 
L 183.659326 149.954822 
L 188.538409 151.767201 
L 193.155259 154.101649 
L 197.496452 156.935731 
L 201.545547 160.245828 
L 205.251175 163.995493 
L 208.536299 168.139076 
L 211.323377 172.631071 
L 213.534822 177.426322 
L 215.09335 182.459037 
L 215.922386 187.617836 
L 215.944724 192.785549 
L 215.082393 197.84407 
L 213.288404 202.589961 
L 210.571115 206.669999 
L 206.945051 209.711722 
L 202.466902 211.401704 
L 197.423955 211.7789 
L 192.187055 211.007622 
L 187.121962 209.254833 
L 182.406134 206.682847 
L 178.03352 203.448846 
L 173.989479 199.71102 
L 170.263845 195.629376 
L 166.962954 191.389769 
L 164.304558 187.203608 
L 162.509243 183.28419 
L 161.785582 179.881997 
L 162.284395 177.48235 
L 164.131412 176.651964 
L 167.292419 177.717342 
L 171.210033 180.240901 
L 175.240943 183.641635 
L 178.892384 187.339485 
L 181.792553 190.741941 
L 183.599653 193.238429 
L 184.086458 194.179595 
L 183.076563 192.938154 
L 180.983113 189.652899 
L 178.731525 185.143791 
L 176.878069 180.032764 
L 175.567092 174.692398 
L 174.936599 169.451524 
L 175.255046 164.491569 
L 176.845629 159.933046 
L 179.913235 155.989885 
L 184.11055 153.324727 
L 188.933578 152.693374 
L 193.921058 154.118463 
L 198.648171 156.941126 
L 202.723206 160.517581 
L 206.086941 164.597005 
L 208.876733 169.161049 
L 211.231807 174.194932 
L 213.242574 179.63543 
L 214.710289 185.128203 
L 215.328603 190.213542 
L 214.788072 194.432594 
L 212.964857 197.409886 
L 210.238754 198.989566 
L 207.07885 199.044412 
L 203.881985 197.52351 
L 200.751451 194.664263 
L 197.72311 190.774243 
L 194.832279 186.165535 
L 192.113636 181.153118 
L 189.600174 176.01251 
L 187.319485 170.820396 
L 185.297423 165.593296 
L 183.559519 160.348085 
L 182.130869 155.101964 
L 181.036009 149.872403 
L 180.299501 144.679205 
L 179.958013 139.581043 
L 180.058486 134.669552 
L 180.647121 130.035801 
L 181.769061 125.768982 
L 183.468492 121.956345 
L 185.787788 118.682909 
L 188.714787 116.016062 
L 192.15769 113.997916 
L 196.020416 112.667395 
L 200.209594 112.062854 
L 204.634744 112.222859 
L 209.208988 113.178784 
L 213.854821 114.879233 
L 218.499125 117.225048 
L 223.068197 120.117815 
L 227.48747 123.459869 
L 231.681348 127.153763 
L 235.573521 131.102193 
L 239.119689 135.237089 
L 242.332692 139.541988 
L 245.230775 144.005458 
L 247.831842 148.615831 
L 250.153515 153.361164 
L 252.2132 158.229207 
L 254.02814 163.207377 
L 255.615459 168.282729 
L 256.99116 173.441926 
L 258.154278 178.671099 
L 259.090174 183.956188 
L 259.783817 189.283239 
L 260.220167 194.638405 
L 260.384151 200.007957 
L 260.260645 205.378282 
L 259.834452 210.73588 
L 259.09028 216.067364 
L 258.012709 221.359453 
L 256.589645 226.594221 
L 254.824223 231.732788 
L 252.723734 236.73033 
L 250.295396 241.541835 
L 247.546348 246.122072 
L 244.483661 250.425568 
L 241.11433 254.406583 
L 237.445279 258.019082 
L 233.48338 261.21675 
L 229.241821 263.967772 
L 224.749715 266.276727 
L 220.039022 268.153541 
L 215.142221 269.608002 
L 210.092358 270.64984 
L 204.923076 271.288809 
L 199.668634 271.534766 
L 194.363909 271.397745 
L 189.044319 270.888056 
L 183.739075 270.01959 
L 178.465442 268.812538 
L 173.239624 267.288111 
L 168.078037 265.467913 
L 162.997282 263.373935 
L 158.01411 261.028559 
L 153.145385 258.454537 
L 148.408041 255.674979 
L 143.819038 252.71333 
L 139.395785 249.590775 
L 135.158709 246.310875 
L 131.128932 242.869536 
L 127.326811 239.262424 
L 123.771975 235.484953 
L 120.48337 231.532247 
L 117.479321 227.399096 
L 114.777602 223.079905 
L 112.395519 218.568655 
L 110.349999 213.858846 
L 108.653455 208.951118 
L 107.304396 203.870725 
L 106.298657 198.647854 
L 105.632223 193.312567 
L 105.301214 187.894831 
L 105.301866 182.424531 
L 105.630523 176.931487 
L 106.283615 171.44547 
L 107.257649 165.996212 
L 108.549192 160.613416 
L 110.154859 155.326761 
L 112.071301 150.16591 
L 114.29519 145.160507 
L 116.823207 140.340183 
L 119.652033 135.734548 
L 122.778334 131.373191 
L 122.778334 131.373191 
" style="fill:none;opacity:0.8;stroke:#808080;stroke-linecap:square;"/>
   </g>
  </g>
 </g>
 <defs>
  <clipPath id="p8de4089e84">
   <rect height="277.2" width="270" x="54" y="43.2"/>
  </clipPath>
 </defs>
</svg>
