<?xml version="1.0" encoding="utf-8" standalone="no"?>
<!DOCTYPE svg PUBLIC "-//W3C//DTD SVG 1.1//EN"
  "http://www.w3.org/Graphics/SVG/1.1/DTD/svg11.dtd">
<!-- Created with matplotlib (http://matplotlib.org/) -->
<svg height="333.041875pt" version="1.1" viewBox="0 0 355.17625 333.041875" width="355.17625pt" xmlns="http://www.w3.org/2000/svg" xmlns:xlink="http://www.w3.org/1999/xlink">
 <defs>
  <style type="text/css">
*{stroke-linecap:butt;stroke-linejoin:round;}
  </style>
 </defs>
 <g id="figure_1">
  <g id="patch_1">
   <path d="M 0 333.041875 
L 355.17625 333.041875 
L 355.17625 0 
L 0 0 
z
" style="fill:none;"/>
  </g>
  <g id="axes_1">
   <g id="patch_2">
    <path d="M 61.62625 293.55 
L 344.47625 293.55 
L 344.47625 10.7 
L 61.62625 10.7 
z
" style="fill:none;"/>
   </g>
   <g id="PathCollection_1">
    <defs>
     <path d="M 0 2.236068 
C 0.593012 2.236068 1.161816 2.000462 1.581139 1.581139 
C 2.000462 1.161816 2.236068 0.593012 2.236068 0 
C 2.236068 -0.593012 2.000462 -1.161816 1.581139 -1.581139 
C 1.161816 -2.000462 0.593012 -2.236068 0 -2.236068 
C -0.593012 -2.236068 -1.161816 -2.000462 -1.581139 -1.581139 
C -2.000462 -1.161816 -2.236068 -0.593012 -2.236068 0 
C -2.236068 0.593012 -2.000462 1.161816 -1.581139 1.581139 
C -1.161816 2.000462 -0.593012 2.236068 0 2.236068 
z
" id="C0_0_59e762e1b1"/>
    </defs>
    <g clip-path="url(#p3474316dcd)">
     <use style="fill:#4a7ca5;" x="299.20277" xlink:href="#C0_0_59e762e1b1" y="54.215385"/>
    </g>
    <g clip-path="url(#p3474316dcd)">
     <use style="fill:#4a7ca5;" x="293.467246" xlink:href="#C0_0_59e762e1b1" y="57.471312"/>
    </g>
    <g clip-path="url(#p3474316dcd)">
     <use style="fill:#4a7ca5;" x="290.5706" xlink:href="#C0_0_59e762e1b1" y="63.603778"/>
    </g>
    <g clip-path="url(#p3474316dcd)">
     <use style="fill:#4a7ca5;" x="290.559337" xlink:href="#C0_0_59e762e1b1" y="63.572891"/>
    </g>
    <g clip-path="url(#p3474316dcd)">
     <use style="fill:#4a7ca5;" x="288.550964" xlink:href="#C0_0_59e762e1b1" y="66.474166"/>
    </g>
    <g clip-path="url(#p3474316dcd)">
     <use style="fill:#4a7ca5;" x="288.513754" xlink:href="#C0_0_59e762e1b1" y="60.79133"/>
    </g>
    <g clip-path="url(#p3474316dcd)">
     <use style="fill:#4a7ca5;" x="287.489528" xlink:href="#C0_0_59e762e1b1" y="62.612755"/>
    </g>
    <g clip-path="url(#p3474316dcd)">
     <use style="fill:#4a7ca5;" x="285.772547" xlink:href="#C0_0_59e762e1b1" y="62.778766"/>
    </g>
    <g clip-path="url(#p3474316dcd)">
     <use style="fill:#4a7ca5;" x="285.516776" xlink:href="#C0_0_59e762e1b1" y="63.447717"/>
    </g>
    <g clip-path="url(#p3474316dcd)">
     <use style="fill:#4a7ca5;" x="285.451477" xlink:href="#C0_0_59e762e1b1" y="68.682202"/>
    </g>
    <g clip-path="url(#p3474316dcd)">
     <use style="fill:#4a7ca5;" x="284.970683" xlink:href="#C0_0_59e762e1b1" y="63.161473"/>
    </g>
    <g clip-path="url(#p3474316dcd)">
     <use style="fill:#4a7ca5;" x="283.557532" xlink:href="#C0_0_59e762e1b1" y="68.871154"/>
    </g>
    <g clip-path="url(#p3474316dcd)">
     <use style="fill:#4a7ca5;" x="283.515831" xlink:href="#C0_0_59e762e1b1" y="62.246321"/>
    </g>
    <g clip-path="url(#p3474316dcd)">
     <use style="fill:#4a7ca5;" x="283.372899" xlink:href="#C0_0_59e762e1b1" y="71.581577"/>
    </g>
    <g clip-path="url(#p3474316dcd)">
     <use style="fill:#4a7ca5;" x="282.882984" xlink:href="#C0_0_59e762e1b1" y="67.789749"/>
    </g>
    <g clip-path="url(#p3474316dcd)">
     <use style="fill:#4a7ca5;" x="280.679578" xlink:href="#C0_0_59e762e1b1" y="73.769159"/>
    </g>
    <g clip-path="url(#p3474316dcd)">
     <use style="fill:#4a7ca5;" x="280.66676" xlink:href="#C0_0_59e762e1b1" y="73.615655"/>
    </g>
    <g clip-path="url(#p3474316dcd)">
     <use style="fill:#4a7ca5;" x="280.473938" xlink:href="#C0_0_59e762e1b1" y="69.550228"/>
    </g>
    <g clip-path="url(#p3474316dcd)">
     <use style="fill:#4a7ca5;" x="278.482529" xlink:href="#C0_0_59e762e1b1" y="75.663277"/>
    </g>
    <g clip-path="url(#p3474316dcd)">
     <use style="fill:#4a7ca5;" x="276.781579" xlink:href="#C0_0_59e762e1b1" y="74.539997"/>
    </g>
    <g clip-path="url(#p3474316dcd)">
     <use style="fill:#4a7ca5;" x="276.764477" xlink:href="#C0_0_59e762e1b1" y="78.273747"/>
    </g>
    <g clip-path="url(#p3474316dcd)">
     <use style="fill:#4a7ca5;" x="276.05987" xlink:href="#C0_0_59e762e1b1" y="78.982638"/>
    </g>
    <g clip-path="url(#p3474316dcd)">
     <use style="fill:#4a7ca5;" x="275.947895" xlink:href="#C0_0_59e762e1b1" y="71.528543"/>
    </g>
    <g clip-path="url(#p3474316dcd)">
     <use style="fill:#4a7ca5;" x="275.1622" xlink:href="#C0_0_59e762e1b1" y="65.027052"/>
    </g>
    <g clip-path="url(#p3474316dcd)">
     <use style="fill:#4a7ca5;" x="275.047461" xlink:href="#C0_0_59e762e1b1" y="79.631135"/>
    </g>
    <g clip-path="url(#p3474316dcd)">
     <use style="fill:#4a7ca5;" x="275.041207" xlink:href="#C0_0_59e762e1b1" y="74.430509"/>
    </g>
    <g clip-path="url(#p3474316dcd)">
     <use style="fill:#4a7ca5;" x="274.84576" xlink:href="#C0_0_59e762e1b1" y="75.616704"/>
    </g>
    <g clip-path="url(#p3474316dcd)">
     <use style="fill:#4a7ca5;" x="274.591509" xlink:href="#C0_0_59e762e1b1" y="78.815728"/>
    </g>
    <g clip-path="url(#p3474316dcd)">
     <use style="fill:#4a7ca5;" x="274.067321" xlink:href="#C0_0_59e762e1b1" y="76.245992"/>
    </g>
    <g clip-path="url(#p3474316dcd)">
     <use style="fill:#4a7ca5;" x="273.953411" xlink:href="#C0_0_59e762e1b1" y="79.132618"/>
    </g>
    <g clip-path="url(#p3474316dcd)">
     <use style="fill:#4a7ca5;" x="273.020085" xlink:href="#C0_0_59e762e1b1" y="80.201205"/>
    </g>
    <g clip-path="url(#p3474316dcd)">
     <use style="fill:#4a7ca5;" x="271.912077" xlink:href="#C0_0_59e762e1b1" y="80.029217"/>
    </g>
    <g clip-path="url(#p3474316dcd)">
     <use style="fill:#4a7ca5;" x="271.820244" xlink:href="#C0_0_59e762e1b1" y="82.45419"/>
    </g>
    <g clip-path="url(#p3474316dcd)">
     <use style="fill:#4a7ca5;" x="271.698974" xlink:href="#C0_0_59e762e1b1" y="82.018933"/>
    </g>
    <g clip-path="url(#p3474316dcd)">
     <use style="fill:#4a7ca5;" x="271.681769" xlink:href="#C0_0_59e762e1b1" y="81.509049"/>
    </g>
    <g clip-path="url(#p3474316dcd)">
     <use style="fill:#4a7ca5;" x="271.376868" xlink:href="#C0_0_59e762e1b1" y="83.238503"/>
    </g>
    <g clip-path="url(#p3474316dcd)">
     <use style="fill:#4a7ca5;" x="270.942233" xlink:href="#C0_0_59e762e1b1" y="81.904678"/>
    </g>
    <g clip-path="url(#p3474316dcd)">
     <use style="fill:#4a7ca5;" x="270.688051" xlink:href="#C0_0_59e762e1b1" y="75.592968"/>
    </g>
    <g clip-path="url(#p3474316dcd)">
     <use style="fill:#4a7ca5;" x="270.427511" xlink:href="#C0_0_59e762e1b1" y="84.420378"/>
    </g>
    <g clip-path="url(#p3474316dcd)">
     <use style="fill:#4a7ca5;" x="270.24768" xlink:href="#C0_0_59e762e1b1" y="84.215741"/>
    </g>
    <g clip-path="url(#p3474316dcd)">
     <use style="fill:#4a7ca5;" x="270.197065" xlink:href="#C0_0_59e762e1b1" y="84.887456"/>
    </g>
    <g clip-path="url(#p3474316dcd)">
     <use style="fill:#4a7ca5;" x="270.072168" xlink:href="#C0_0_59e762e1b1" y="84.374116"/>
    </g>
    <g clip-path="url(#p3474316dcd)">
     <use style="fill:#4a7ca5;" x="269.90702" xlink:href="#C0_0_59e762e1b1" y="84.489754"/>
    </g>
    <g clip-path="url(#p3474316dcd)">
     <use style="fill:#4a7ca5;" x="269.570679" xlink:href="#C0_0_59e762e1b1" y="84.438759"/>
    </g>
    <g clip-path="url(#p3474316dcd)">
     <use style="fill:#4a7ca5;" x="269.173461" xlink:href="#C0_0_59e762e1b1" y="85.7418"/>
    </g>
    <g clip-path="url(#p3474316dcd)">
     <use style="fill:#4a7ca5;" x="269.050603" xlink:href="#C0_0_59e762e1b1" y="85.418726"/>
    </g>
    <g clip-path="url(#p3474316dcd)">
     <use style="fill:#4a7ca5;" x="268.558546" xlink:href="#C0_0_59e762e1b1" y="85.231432"/>
    </g>
    <g clip-path="url(#p3474316dcd)">
     <use style="fill:#4a7ca5;" x="268.399272" xlink:href="#C0_0_59e762e1b1" y="84.584524"/>
    </g>
    <g clip-path="url(#p3474316dcd)">
     <use style="fill:#4a7ca5;" x="267.675629" xlink:href="#C0_0_59e762e1b1" y="87.297469"/>
    </g>
    <g clip-path="url(#p3474316dcd)">
     <use style="fill:#4a7ca5;" x="267.310508" xlink:href="#C0_0_59e762e1b1" y="86.946721"/>
    </g>
    <g clip-path="url(#p3474316dcd)">
     <use style="fill:#4a7ca5;" x="266.822804" xlink:href="#C0_0_59e762e1b1" y="84.008201"/>
    </g>
    <g clip-path="url(#p3474316dcd)">
     <use style="fill:#4a7ca5;" x="266.682878" xlink:href="#C0_0_59e762e1b1" y="87.871546"/>
    </g>
    <g clip-path="url(#p3474316dcd)">
     <use style="fill:#4a7ca5;" x="266.681773" xlink:href="#C0_0_59e762e1b1" y="78.06714"/>
    </g>
    <g clip-path="url(#p3474316dcd)">
     <use style="fill:#4a7ca5;" x="266.305838" xlink:href="#C0_0_59e762e1b1" y="83.127356"/>
    </g>
    <g clip-path="url(#p3474316dcd)">
     <use style="fill:#4a7ca5;" x="265.906374" xlink:href="#C0_0_59e762e1b1" y="82.653162"/>
    </g>
    <g clip-path="url(#p3474316dcd)">
     <use style="fill:#4a7ca5;" x="265.845498" xlink:href="#C0_0_59e762e1b1" y="87.753456"/>
    </g>
    <g clip-path="url(#p3474316dcd)">
     <use style="fill:#4a7ca5;" x="265.416252" xlink:href="#C0_0_59e762e1b1" y="87.570964"/>
    </g>
    <g clip-path="url(#p3474316dcd)">
     <use style="fill:#4a7ca5;" x="263.511839" xlink:href="#C0_0_59e762e1b1" y="85.251402"/>
    </g>
    <g clip-path="url(#p3474316dcd)">
     <use style="fill:#4a7ca5;" x="263.431338" xlink:href="#C0_0_59e762e1b1" y="91.300568"/>
    </g>
    <g clip-path="url(#p3474316dcd)">
     <use style="fill:#4a7ca5;" x="262.116965" xlink:href="#C0_0_59e762e1b1" y="84.989446"/>
    </g>
    <g clip-path="url(#p3474316dcd)">
     <use style="fill:#4a7ca5;" x="261.997354" xlink:href="#C0_0_59e762e1b1" y="89.937099"/>
    </g>
    <g clip-path="url(#p3474316dcd)">
     <use style="fill:#4a7ca5;" x="261.915885" xlink:href="#C0_0_59e762e1b1" y="92.391302"/>
    </g>
    <g clip-path="url(#p3474316dcd)">
     <use style="fill:#4a7ca5;" x="261.823776" xlink:href="#C0_0_59e762e1b1" y="89.892496"/>
    </g>
    <g clip-path="url(#p3474316dcd)">
     <use style="fill:#4a7ca5;" x="261.641077" xlink:href="#C0_0_59e762e1b1" y="93.448833"/>
    </g>
    <g clip-path="url(#p3474316dcd)">
     <use style="fill:#4a7ca5;" x="260.963575" xlink:href="#C0_0_59e762e1b1" y="91.845831"/>
    </g>
    <g clip-path="url(#p3474316dcd)">
     <use style="fill:#4a7ca5;" x="260.649138" xlink:href="#C0_0_59e762e1b1" y="93.429105"/>
    </g>
    <g clip-path="url(#p3474316dcd)">
     <use style="fill:#4a7ca5;" x="260.521011" xlink:href="#C0_0_59e762e1b1" y="94.124176"/>
    </g>
    <g clip-path="url(#p3474316dcd)">
     <use style="fill:#4a7ca5;" x="260.464816" xlink:href="#C0_0_59e762e1b1" y="92.829841"/>
    </g>
    <g clip-path="url(#p3474316dcd)">
     <use style="fill:#4a7ca5;" x="260.374088" xlink:href="#C0_0_59e762e1b1" y="93.59294"/>
    </g>
    <g clip-path="url(#p3474316dcd)">
     <use style="fill:#4a7ca5;" x="260.124657" xlink:href="#C0_0_59e762e1b1" y="93.194375"/>
    </g>
    <g clip-path="url(#p3474316dcd)">
     <use style="fill:#4a7ca5;" x="259.960632" xlink:href="#C0_0_59e762e1b1" y="85.743528"/>
    </g>
    <g clip-path="url(#p3474316dcd)">
     <use style="fill:#4a7ca5;" x="259.852457" xlink:href="#C0_0_59e762e1b1" y="85.452861"/>
    </g>
    <g clip-path="url(#p3474316dcd)">
     <use style="fill:#4a7ca5;" x="259.033353" xlink:href="#C0_0_59e762e1b1" y="78.203439"/>
    </g>
    <g clip-path="url(#p3474316dcd)">
     <use style="fill:#4a7ca5;" x="258.57265" xlink:href="#C0_0_59e762e1b1" y="94.513551"/>
    </g>
    <g clip-path="url(#p3474316dcd)">
     <use style="fill:#4a7ca5;" x="258.513363" xlink:href="#C0_0_59e762e1b1" y="95.610002"/>
    </g>
    <g clip-path="url(#p3474316dcd)">
     <use style="fill:#4a7ca5;" x="258.474374" xlink:href="#C0_0_59e762e1b1" y="95.887436"/>
    </g>
    <g clip-path="url(#p3474316dcd)">
     <use style="fill:#4a7ca5;" x="258.370828" xlink:href="#C0_0_59e762e1b1" y="93.446104"/>
    </g>
    <g clip-path="url(#p3474316dcd)">
     <use style="fill:#4a7ca5;" x="258.316223" xlink:href="#C0_0_59e762e1b1" y="88.224748"/>
    </g>
    <g clip-path="url(#p3474316dcd)">
     <use style="fill:#4a7ca5;" x="258.297324" xlink:href="#C0_0_59e762e1b1" y="90.332728"/>
    </g>
    <g clip-path="url(#p3474316dcd)">
     <use style="fill:#4a7ca5;" x="258.236862" xlink:href="#C0_0_59e762e1b1" y="79.31314"/>
    </g>
    <g clip-path="url(#p3474316dcd)">
     <use style="fill:#4a7ca5;" x="258.071594" xlink:href="#C0_0_59e762e1b1" y="97.103171"/>
    </g>
    <g clip-path="url(#p3474316dcd)">
     <use style="fill:#4a7ca5;" x="257.91707" xlink:href="#C0_0_59e762e1b1" y="84.498253"/>
    </g>
    <g clip-path="url(#p3474316dcd)">
     <use style="fill:#4a7ca5;" x="257.850666" xlink:href="#C0_0_59e762e1b1" y="96.127885"/>
    </g>
    <g clip-path="url(#p3474316dcd)">
     <use style="fill:#4a7ca5;" x="257.719671" xlink:href="#C0_0_59e762e1b1" y="87.441368"/>
    </g>
    <g clip-path="url(#p3474316dcd)">
     <use style="fill:#4a7ca5;" x="256.929243" xlink:href="#C0_0_59e762e1b1" y="92.819994"/>
    </g>
    <g clip-path="url(#p3474316dcd)">
     <use style="fill:#4a7ca5;" x="256.827857" xlink:href="#C0_0_59e762e1b1" y="84.944566"/>
    </g>
    <g clip-path="url(#p3474316dcd)">
     <use style="fill:#4a7ca5;" x="256.791303" xlink:href="#C0_0_59e762e1b1" y="97.466132"/>
    </g>
    <g clip-path="url(#p3474316dcd)">
     <use style="fill:#4a7ca5;" x="256.590431" xlink:href="#C0_0_59e762e1b1" y="94.923103"/>
    </g>
    <g clip-path="url(#p3474316dcd)">
     <use style="fill:#4a7ca5;" x="256.546139" xlink:href="#C0_0_59e762e1b1" y="96.151085"/>
    </g>
    <g clip-path="url(#p3474316dcd)">
     <use style="fill:#4a7ca5;" x="256.314794" xlink:href="#C0_0_59e762e1b1" y="84.468299"/>
    </g>
    <g clip-path="url(#p3474316dcd)">
     <use style="fill:#4a7ca5;" x="256.171136" xlink:href="#C0_0_59e762e1b1" y="94.390329"/>
    </g>
    <g clip-path="url(#p3474316dcd)">
     <use style="fill:#4a7ca5;" x="256.166524" xlink:href="#C0_0_59e762e1b1" y="91.777665"/>
    </g>
    <g clip-path="url(#p3474316dcd)">
     <use style="fill:#4a7ca5;" x="255.794821" xlink:href="#C0_0_59e762e1b1" y="79.267707"/>
    </g>
    <g clip-path="url(#p3474316dcd)">
     <use style="fill:#4a7ca5;" x="255.501788" xlink:href="#C0_0_59e762e1b1" y="98.109966"/>
    </g>
    <g clip-path="url(#p3474316dcd)">
     <use style="fill:#4a7ca5;" x="255.24866" xlink:href="#C0_0_59e762e1b1" y="83.28017"/>
    </g>
    <g clip-path="url(#p3474316dcd)">
     <use style="fill:#4a7ca5;" x="254.729343" xlink:href="#C0_0_59e762e1b1" y="90.573021"/>
    </g>
    <g clip-path="url(#p3474316dcd)">
     <use style="fill:#4a7ca5;" x="254.702256" xlink:href="#C0_0_59e762e1b1" y="99.153591"/>
    </g>
    <g clip-path="url(#p3474316dcd)">
     <use style="fill:#4a7ca5;" x="254.614051" xlink:href="#C0_0_59e762e1b1" y="99.169708"/>
    </g>
    <g clip-path="url(#p3474316dcd)">
     <use style="fill:#4a7ca5;" x="253.999671" xlink:href="#C0_0_59e762e1b1" y="94.707392"/>
    </g>
    <g clip-path="url(#p3474316dcd)">
     <use style="fill:#4a7ca5;" x="253.876536" xlink:href="#C0_0_59e762e1b1" y="99.636008"/>
    </g>
    <g clip-path="url(#p3474316dcd)">
     <use style="fill:#4a7ca5;" x="253.847359" xlink:href="#C0_0_59e762e1b1" y="88.078154"/>
    </g>
    <g clip-path="url(#p3474316dcd)">
     <use style="fill:#4a7ca5;" x="252.751115" xlink:href="#C0_0_59e762e1b1" y="82.93298"/>
    </g>
    <g clip-path="url(#p3474316dcd)">
     <use style="fill:#4a7ca5;" x="251.594253" xlink:href="#C0_0_59e762e1b1" y="94.707392"/>
    </g>
    <g clip-path="url(#p3474316dcd)">
     <use style="fill:#4a7ca5;" x="246.191114" xlink:href="#C0_0_59e762e1b1" y="107.585424"/>
    </g>
    <g clip-path="url(#p3474316dcd)">
     <use style="fill:#4a7ca5;" x="245.944101" xlink:href="#C0_0_59e762e1b1" y="106.96835"/>
    </g>
    <g clip-path="url(#p3474316dcd)">
     <use style="fill:#4a7ca5;" x="244.607132" xlink:href="#C0_0_59e762e1b1" y="92.512433"/>
    </g>
    <g clip-path="url(#p3474316dcd)">
     <use style="fill:#4a7ca5;" x="243.378873" xlink:href="#C0_0_59e762e1b1" y="92.239421"/>
    </g>
    <g clip-path="url(#p3474316dcd)">
     <use style="fill:#4a7ca5;" x="242.848484" xlink:href="#C0_0_59e762e1b1" y="84.286049"/>
    </g>
    <g clip-path="url(#p3474316dcd)">
     <use style="fill:#4a7ca5;" x="242.533218" xlink:href="#C0_0_59e762e1b1" y="111.595071"/>
    </g>
    <g clip-path="url(#p3474316dcd)">
     <use style="fill:#4a7ca5;" x="241.462333" xlink:href="#C0_0_59e762e1b1" y="106.06016"/>
    </g>
    <g clip-path="url(#p3474316dcd)">
     <use style="fill:#4a7ca5;" x="240.44348" xlink:href="#C0_0_59e762e1b1" y="96.759902"/>
    </g>
    <g clip-path="url(#p3474316dcd)">
     <use style="fill:#4a7ca5;" x="239.664678" xlink:href="#C0_0_59e762e1b1" y="101.569702"/>
    </g>
    <g clip-path="url(#p3474316dcd)">
     <use style="fill:#4a7ca5;" x="239.012916" xlink:href="#C0_0_59e762e1b1" y="93.373653"/>
    </g>
    <g clip-path="url(#p3474316dcd)">
     <use style="fill:#4a7ca5;" x="238.649816" xlink:href="#C0_0_59e762e1b1" y="91.672772"/>
    </g>
    <g clip-path="url(#p3474316dcd)">
     <use style="fill:#4a7ca5;" x="238.593103" xlink:href="#C0_0_59e762e1b1" y="88.065232"/>
    </g>
    <g clip-path="url(#p3474316dcd)">
     <use style="fill:#4a7ca5;" x="237.127522" xlink:href="#C0_0_59e762e1b1" y="117.788137"/>
    </g>
    <g clip-path="url(#p3474316dcd)">
     <use style="fill:#4a7ca5;" x="236.915508" xlink:href="#C0_0_59e762e1b1" y="91.156392"/>
    </g>
    <g clip-path="url(#p3474316dcd)">
     <use style="fill:#4a7ca5;" x="236.498096" xlink:href="#C0_0_59e762e1b1" y="89.350549"/>
    </g>
    <g clip-path="url(#p3474316dcd)">
     <use style="fill:#4a7ca5;" x="235.487259" xlink:href="#C0_0_59e762e1b1" y="82.255219"/>
    </g>
    <g clip-path="url(#p3474316dcd)">
     <use style="fill:#4a7ca5;" x="231.696053" xlink:href="#C0_0_59e762e1b1" y="96.875143"/>
    </g>
    <g clip-path="url(#p3474316dcd)">
     <use style="fill:#4a7ca5;" x="231.651103" xlink:href="#C0_0_59e762e1b1" y="100.130466"/>
    </g>
    <g clip-path="url(#p3474316dcd)">
     <use style="fill:#4a7ca5;" x="230.953148" xlink:href="#C0_0_59e762e1b1" y="102.83505"/>
    </g>
    <g clip-path="url(#p3474316dcd)">
     <use style="fill:#4a7ca5;" x="228.235798" xlink:href="#C0_0_59e762e1b1" y="81.838584"/>
    </g>
    <g clip-path="url(#p3474316dcd)">
     <use style="fill:#4a7ca5;" x="227.740994" xlink:href="#C0_0_59e762e1b1" y="71.327809"/>
    </g>
    <g clip-path="url(#p3474316dcd)">
     <use style="fill:#4a7ca5;" x="124.03208" xlink:href="#C0_0_59e762e1b1" y="230.100632"/>
    </g>
    <g clip-path="url(#p3474316dcd)">
     <use style="fill:#4a7ca5;" x="122.642474" xlink:href="#C0_0_59e762e1b1" y="228.277186"/>
    </g>
    <g clip-path="url(#p3474316dcd)">
     <use style="fill:#4a7ca5;" x="121.236578" xlink:href="#C0_0_59e762e1b1" y="231.374772"/>
    </g>
    <g clip-path="url(#p3474316dcd)">
     <use style="fill:#4a7ca5;" x="118.593493" xlink:href="#C0_0_59e762e1b1" y="235.771807"/>
    </g>
    <g clip-path="url(#p3474316dcd)">
     <use style="fill:#4a7ca5;" x="118.269831" xlink:href="#C0_0_59e762e1b1" y="236.862126"/>
    </g>
    <g clip-path="url(#p3474316dcd)">
     <use style="fill:#4a7ca5;" x="117.748649" xlink:href="#C0_0_59e762e1b1" y="233.474219"/>
    </g>
    <g clip-path="url(#p3474316dcd)">
     <use style="fill:#4a7ca5;" x="117.567125" xlink:href="#C0_0_59e762e1b1" y="236.45057"/>
    </g>
    <g clip-path="url(#p3474316dcd)">
     <use style="fill:#4a7ca5;" x="116.908366" xlink:href="#C0_0_59e762e1b1" y="229.928471"/>
    </g>
    <g clip-path="url(#p3474316dcd)">
     <use style="fill:#4a7ca5;" x="116.547927" xlink:href="#C0_0_59e762e1b1" y="220.690178"/>
    </g>
    <g clip-path="url(#p3474316dcd)">
     <use style="fill:#4a7ca5;" x="116.175256" xlink:href="#C0_0_59e762e1b1" y="222.03632"/>
    </g>
    <g clip-path="url(#p3474316dcd)">
     <use style="fill:#4a7ca5;" x="115.549518" xlink:href="#C0_0_59e762e1b1" y="220.775084"/>
    </g>
    <g clip-path="url(#p3474316dcd)">
     <use style="fill:#4a7ca5;" x="115.250698" xlink:href="#C0_0_59e762e1b1" y="236.945598"/>
    </g>
    <g clip-path="url(#p3474316dcd)">
     <use style="fill:#4a7ca5;" x="115.2188" xlink:href="#C0_0_59e762e1b1" y="230.249835"/>
    </g>
    <g clip-path="url(#p3474316dcd)">
     <use style="fill:#4a7ca5;" x="115.203166" xlink:href="#C0_0_59e762e1b1" y="229.315248"/>
    </g>
    <g clip-path="url(#p3474316dcd)">
     <use style="fill:#4a7ca5;" x="114.851019" xlink:href="#C0_0_59e762e1b1" y="228.975366"/>
    </g>
    <g clip-path="url(#p3474316dcd)">
     <use style="fill:#4a7ca5;" x="114.784165" xlink:href="#C0_0_59e762e1b1" y="229.916724"/>
    </g>
    <g clip-path="url(#p3474316dcd)">
     <use style="fill:#4a7ca5;" x="114.760749" xlink:href="#C0_0_59e762e1b1" y="229.760386"/>
    </g>
    <g clip-path="url(#p3474316dcd)">
     <use style="fill:#4a7ca5;" x="113.275743" xlink:href="#C0_0_59e762e1b1" y="239.178518"/>
    </g>
    <g clip-path="url(#p3474316dcd)">
     <use style="fill:#4a7ca5;" x="113.110457" xlink:href="#C0_0_59e762e1b1" y="234.89352"/>
    </g>
    <g clip-path="url(#p3474316dcd)">
     <use style="fill:#4a7ca5;" x="111.239462" xlink:href="#C0_0_59e762e1b1" y="232.028625"/>
    </g>
    <g clip-path="url(#p3474316dcd)">
     <use style="fill:#4a7ca5;" x="110.49274" xlink:href="#C0_0_59e762e1b1" y="243.996386"/>
    </g>
    <g clip-path="url(#p3474316dcd)">
     <use style="fill:#4a7ca5;" x="109.732975" xlink:href="#C0_0_59e762e1b1" y="243.274487"/>
    </g>
    <g clip-path="url(#p3474316dcd)">
     <use style="fill:#4a7ca5;" x="109.076574" xlink:href="#C0_0_59e762e1b1" y="243.896529"/>
    </g>
    <g clip-path="url(#p3474316dcd)">
     <use style="fill:#4a7ca5;" x="108.775215" xlink:href="#C0_0_59e762e1b1" y="238.199234"/>
    </g>
    <g clip-path="url(#p3474316dcd)">
     <use style="fill:#4a7ca5;" x="108.772304" xlink:href="#C0_0_59e762e1b1" y="238.203034"/>
    </g>
    <g clip-path="url(#p3474316dcd)">
     <use style="fill:#4a7ca5;" x="108.400955" xlink:href="#C0_0_59e762e1b1" y="246.393901"/>
    </g>
    <g clip-path="url(#p3474316dcd)">
     <use style="fill:#4a7ca5;" x="108.342195" xlink:href="#C0_0_59e762e1b1" y="244.121888"/>
    </g>
    <g clip-path="url(#p3474316dcd)">
     <use style="fill:#4a7ca5;" x="107.878305" xlink:href="#C0_0_59e762e1b1" y="237.635434"/>
    </g>
    <g clip-path="url(#p3474316dcd)">
     <use style="fill:#4a7ca5;" x="107.87193" xlink:href="#C0_0_59e762e1b1" y="243.314142"/>
    </g>
    <g clip-path="url(#p3474316dcd)">
     <use style="fill:#4a7ca5;" x="107.807383" xlink:href="#C0_0_59e762e1b1" y="243.809679"/>
    </g>
    <g clip-path="url(#p3474316dcd)">
     <use style="fill:#4a7ca5;" x="107.518617" xlink:href="#C0_0_59e762e1b1" y="244.111531"/>
    </g>
    <g clip-path="url(#p3474316dcd)">
     <use style="fill:#4a7ca5;" x="104.773376" xlink:href="#C0_0_59e762e1b1" y="250.241129"/>
    </g>
    <g clip-path="url(#p3474316dcd)">
     <use style="fill:#4a7ca5;" x="104.748457" xlink:href="#C0_0_59e762e1b1" y="249.543925"/>
    </g>
    <g clip-path="url(#p3474316dcd)">
     <use style="fill:#4a7ca5;" x="104.714538" xlink:href="#C0_0_59e762e1b1" y="249.335539"/>
    </g>
    <g clip-path="url(#p3474316dcd)">
     <use style="fill:#4a7ca5;" x="104.681906" xlink:href="#C0_0_59e762e1b1" y="231.783495"/>
    </g>
    <g clip-path="url(#p3474316dcd)">
     <use style="fill:#4a7ca5;" x="103.64989" xlink:href="#C0_0_59e762e1b1" y="247.133903"/>
    </g>
    <g clip-path="url(#p3474316dcd)">
     <use style="fill:#4a7ca5;" x="103.584971" xlink:href="#C0_0_59e762e1b1" y="247.07136"/>
    </g>
    <g clip-path="url(#p3474316dcd)">
     <use style="fill:#4a7ca5;" x="102.917583" xlink:href="#C0_0_59e762e1b1" y="245.13003"/>
    </g>
    <g clip-path="url(#p3474316dcd)">
     <use style="fill:#4a7ca5;" x="102.678154" xlink:href="#C0_0_59e762e1b1" y="243.951998"/>
    </g>
    <g clip-path="url(#p3474316dcd)">
     <use style="fill:#4a7ca5;" x="102.61466" xlink:href="#C0_0_59e762e1b1" y="251.124625"/>
    </g>
    <g clip-path="url(#p3474316dcd)">
     <use style="fill:#4a7ca5;" x="101.405784" xlink:href="#C0_0_59e762e1b1" y="252.035424"/>
    </g>
    <g clip-path="url(#p3474316dcd)">
     <use style="fill:#4a7ca5;" x="101.358442" xlink:href="#C0_0_59e762e1b1" y="251.069423"/>
    </g>
    <g clip-path="url(#p3474316dcd)">
     <use style="fill:#4a7ca5;" x="101.339397" xlink:href="#C0_0_59e762e1b1" y="247.523926"/>
    </g>
    <g clip-path="url(#p3474316dcd)">
     <use style="fill:#4a7ca5;" x="101.320584" xlink:href="#C0_0_59e762e1b1" y="244.901415"/>
    </g>
    <g clip-path="url(#p3474316dcd)">
     <use style="fill:#4a7ca5;" x="101.294327" xlink:href="#C0_0_59e762e1b1" y="252.969786"/>
    </g>
    <g clip-path="url(#p3474316dcd)">
     <use style="fill:#4a7ca5;" x="101.148976" xlink:href="#C0_0_59e762e1b1" y="253.281242"/>
    </g>
    <g clip-path="url(#p3474316dcd)">
     <use style="fill:#4a7ca5;" x="101.10483" xlink:href="#C0_0_59e762e1b1" y="249.98585"/>
    </g>
    <g clip-path="url(#p3474316dcd)">
     <use style="fill:#4a7ca5;" x="100.726347" xlink:href="#C0_0_59e762e1b1" y="251.154735"/>
    </g>
    <g clip-path="url(#p3474316dcd)">
     <use style="fill:#4a7ca5;" x="100.597745" xlink:href="#C0_0_59e762e1b1" y="249.898966"/>
    </g>
    <g clip-path="url(#p3474316dcd)">
     <use style="fill:#4a7ca5;" x="100.588537" xlink:href="#C0_0_59e762e1b1" y="252.005383"/>
    </g>
    <g clip-path="url(#p3474316dcd)">
     <use style="fill:#4a7ca5;" x="100.568645" xlink:href="#C0_0_59e762e1b1" y="253.259398"/>
    </g>
    <g clip-path="url(#p3474316dcd)">
     <use style="fill:#4a7ca5;" x="100.563221" xlink:href="#C0_0_59e762e1b1" y="250.62952"/>
    </g>
    <g clip-path="url(#p3474316dcd)">
     <use style="fill:#4a7ca5;" x="100.108573" xlink:href="#C0_0_59e762e1b1" y="254.204894"/>
    </g>
    <g clip-path="url(#p3474316dcd)">
     <use style="fill:#4a7ca5;" x="100.083913" xlink:href="#C0_0_59e762e1b1" y="254.939904"/>
    </g>
    <g clip-path="url(#p3474316dcd)">
     <use style="fill:#4a7ca5;" x="100.052309" xlink:href="#C0_0_59e762e1b1" y="251.9138"/>
    </g>
    <g clip-path="url(#p3474316dcd)">
     <use style="fill:#4a7ca5;" x="100.02929" xlink:href="#C0_0_59e762e1b1" y="252.622233"/>
    </g>
    <g clip-path="url(#p3474316dcd)">
     <use style="fill:#4a7ca5;" x="99.859323" xlink:href="#C0_0_59e762e1b1" y="251.051527"/>
    </g>
    <g clip-path="url(#p3474316dcd)">
     <use style="fill:#4a7ca5;" x="99.752461" xlink:href="#C0_0_59e762e1b1" y="254.356092"/>
    </g>
    <g clip-path="url(#p3474316dcd)">
     <use style="fill:#4a7ca5;" x="99.033767" xlink:href="#C0_0_59e762e1b1" y="251.346175"/>
    </g>
    <g clip-path="url(#p3474316dcd)">
     <use style="fill:#4a7ca5;" x="98.823135" xlink:href="#C0_0_59e762e1b1" y="247.046225"/>
    </g>
    <g clip-path="url(#p3474316dcd)">
     <use style="fill:#4a7ca5;" x="98.714113" xlink:href="#C0_0_59e762e1b1" y="249.248361"/>
    </g>
    <g clip-path="url(#p3474316dcd)">
     <use style="fill:#4a7ca5;" x="98.129014" xlink:href="#C0_0_59e762e1b1" y="250.269607"/>
    </g>
    <g clip-path="url(#p3474316dcd)">
     <use style="fill:#4a7ca5;" x="97.77513" xlink:href="#C0_0_59e762e1b1" y="256.469297"/>
    </g>
    <g clip-path="url(#p3474316dcd)">
     <use style="fill:#4a7ca5;" x="97.530346" xlink:href="#C0_0_59e762e1b1" y="252.078456"/>
    </g>
    <g clip-path="url(#p3474316dcd)">
     <use style="fill:#4a7ca5;" x="97.506455" xlink:href="#C0_0_59e762e1b1" y="249.072521"/>
    </g>
    <g clip-path="url(#p3474316dcd)">
     <use style="fill:#4a7ca5;" x="97.4997" xlink:href="#C0_0_59e762e1b1" y="249.247903"/>
    </g>
    <g clip-path="url(#p3474316dcd)">
     <use style="fill:#4a7ca5;" x="97.171461" xlink:href="#C0_0_59e762e1b1" y="251.245584"/>
    </g>
    <g clip-path="url(#p3474316dcd)">
     <use style="fill:#4a7ca5;" x="97.002815" xlink:href="#C0_0_59e762e1b1" y="255.598844"/>
    </g>
    <g clip-path="url(#p3474316dcd)">
     <use style="fill:#4a7ca5;" x="96.99017" xlink:href="#C0_0_59e762e1b1" y="248.210946"/>
    </g>
    <g clip-path="url(#p3474316dcd)">
     <use style="fill:#4a7ca5;" x="96.364372" xlink:href="#C0_0_59e762e1b1" y="257.178654"/>
    </g>
    <g clip-path="url(#p3474316dcd)">
     <use style="fill:#4a7ca5;" x="96.084718" xlink:href="#C0_0_59e762e1b1" y="256.918452"/>
    </g>
    <g clip-path="url(#p3474316dcd)">
     <use style="fill:#4a7ca5;" x="95.56091" xlink:href="#C0_0_59e762e1b1" y="257.371277"/>
    </g>
    <g clip-path="url(#p3474316dcd)">
     <use style="fill:#4a7ca5;" x="95.286948" xlink:href="#C0_0_59e762e1b1" y="259.119751"/>
    </g>
    <g clip-path="url(#p3474316dcd)">
     <use style="fill:#4a7ca5;" x="95.051838" xlink:href="#C0_0_59e762e1b1" y="255.447845"/>
    </g>
    <g clip-path="url(#p3474316dcd)">
     <use style="fill:#4a7ca5;" x="94.924643" xlink:href="#C0_0_59e762e1b1" y="259.279871"/>
    </g>
    <g clip-path="url(#p3474316dcd)">
     <use style="fill:#4a7ca5;" x="94.893652" xlink:href="#C0_0_59e762e1b1" y="260.181609"/>
    </g>
    <g clip-path="url(#p3474316dcd)">
     <use style="fill:#4a7ca5;" x="94.561517" xlink:href="#C0_0_59e762e1b1" y="260.409335"/>
    </g>
    <g clip-path="url(#p3474316dcd)">
     <use style="fill:#4a7ca5;" x="94.464225" xlink:href="#C0_0_59e762e1b1" y="252.209494"/>
    </g>
    <g clip-path="url(#p3474316dcd)">
     <use style="fill:#4a7ca5;" x="94.330147" xlink:href="#C0_0_59e762e1b1" y="242.559896"/>
    </g>
    <g clip-path="url(#p3474316dcd)">
     <use style="fill:#4a7ca5;" x="94.268173" xlink:href="#C0_0_59e762e1b1" y="247.207494"/>
    </g>
    <g clip-path="url(#p3474316dcd)">
     <use style="fill:#4a7ca5;" x="94.154772" xlink:href="#C0_0_59e762e1b1" y="255.534573"/>
    </g>
    <g clip-path="url(#p3474316dcd)">
     <use style="fill:#4a7ca5;" x="93.752536" xlink:href="#C0_0_59e762e1b1" y="260.938602"/>
    </g>
    <g clip-path="url(#p3474316dcd)">
     <use style="fill:#4a7ca5;" x="93.525009" xlink:href="#C0_0_59e762e1b1" y="260.628803"/>
    </g>
    <g clip-path="url(#p3474316dcd)">
     <use style="fill:#4a7ca5;" x="91.71179" xlink:href="#C0_0_59e762e1b1" y="256.570649"/>
    </g>
    <g clip-path="url(#p3474316dcd)">
     <use style="fill:#4a7ca5;" x="91.566889" xlink:href="#C0_0_59e762e1b1" y="240.666081"/>
    </g>
    <g clip-path="url(#p3474316dcd)">
     <use style="fill:#4a7ca5;" x="91.48593" xlink:href="#C0_0_59e762e1b1" y="246.824804"/>
    </g>
    <g clip-path="url(#p3474316dcd)">
     <use style="fill:#4a7ca5;" x="91.240688" xlink:href="#C0_0_59e762e1b1" y="241.435969"/>
    </g>
    <g clip-path="url(#p3474316dcd)">
     <use style="fill:#4a7ca5;" x="91.192776" xlink:href="#C0_0_59e762e1b1" y="260.266196"/>
    </g>
    <g clip-path="url(#p3474316dcd)">
     <use style="fill:#4a7ca5;" x="91.060382" xlink:href="#C0_0_59e762e1b1" y="247.778989"/>
    </g>
    <g clip-path="url(#p3474316dcd)">
     <use style="fill:#4a7ca5;" x="91.002692" xlink:href="#C0_0_59e762e1b1" y="237.837809"/>
    </g>
    <g clip-path="url(#p3474316dcd)">
     <use style="fill:#4a7ca5;" x="90.635291" xlink:href="#C0_0_59e762e1b1" y="247.669397"/>
    </g>
    <g clip-path="url(#p3474316dcd)">
     <use style="fill:#4a7ca5;" x="90.634021" xlink:href="#C0_0_59e762e1b1" y="257.765887"/>
    </g>
    <g clip-path="url(#p3474316dcd)">
     <use style="fill:#4a7ca5;" x="90.413879" xlink:href="#C0_0_59e762e1b1" y="247.014672"/>
    </g>
    <g clip-path="url(#p3474316dcd)">
     <use style="fill:#4a7ca5;" x="90.141429" xlink:href="#C0_0_59e762e1b1" y="246.670341"/>
    </g>
    <g clip-path="url(#p3474316dcd)">
     <use style="fill:#4a7ca5;" x="89.862725" xlink:href="#C0_0_59e762e1b1" y="68.261767"/>
    </g>
    <g clip-path="url(#p3474316dcd)">
     <use style="fill:#4a7ca5;" x="88.892052" xlink:href="#C0_0_59e762e1b1" y="258.251085"/>
    </g>
    <g clip-path="url(#p3474316dcd)">
     <use style="fill:#4a7ca5;" x="88.8695" xlink:href="#C0_0_59e762e1b1" y="265.436176"/>
    </g>
    <g clip-path="url(#p3474316dcd)">
     <use style="fill:#4a7ca5;" x="88.80053" xlink:href="#C0_0_59e762e1b1" y="258.810851"/>
    </g>
    <g clip-path="url(#p3474316dcd)">
     <use style="fill:#4a7ca5;" x="88.499965" xlink:href="#C0_0_59e762e1b1" y="262.135791"/>
    </g>
    <g clip-path="url(#p3474316dcd)">
     <use style="fill:#4a7ca5;" x="88.244263" xlink:href="#C0_0_59e762e1b1" y="259.403758"/>
    </g>
    <g clip-path="url(#p3474316dcd)">
     <use style="fill:#4a7ca5;" x="88.228059" xlink:href="#C0_0_59e762e1b1" y="265.272747"/>
    </g>
    <g clip-path="url(#p3474316dcd)">
     <use style="fill:#4a7ca5;" x="87.709071" xlink:href="#C0_0_59e762e1b1" y="261.403338"/>
    </g>
    <g clip-path="url(#p3474316dcd)">
     <use style="fill:#4a7ca5;" x="87.666765" xlink:href="#C0_0_59e762e1b1" y="249.145714"/>
    </g>
    <g clip-path="url(#p3474316dcd)">
     <use style="fill:#4a7ca5;" x="87.066939" xlink:href="#C0_0_59e762e1b1" y="261.373081"/>
    </g>
    <g clip-path="url(#p3474316dcd)">
     <use style="fill:#4a7ca5;" x="86.222665" xlink:href="#C0_0_59e762e1b1" y="259.418666"/>
    </g>
    <g clip-path="url(#p3474316dcd)">
     <use style="fill:#4a7ca5;" x="86.203033" xlink:href="#C0_0_59e762e1b1" y="265.929934"/>
    </g>
    <g clip-path="url(#p3474316dcd)">
     <use style="fill:#4a7ca5;" x="85.605694" xlink:href="#C0_0_59e762e1b1" y="260.517501"/>
    </g>
    <g clip-path="url(#p3474316dcd)">
     <use style="fill:#4a7ca5;" x="85.147531" xlink:href="#C0_0_59e762e1b1" y="266.869763"/>
    </g>
    <g clip-path="url(#p3474316dcd)">
     <use style="fill:#4a7ca5;" x="84.728253" xlink:href="#C0_0_59e762e1b1" y="265.549283"/>
    </g>
    <g clip-path="url(#p3474316dcd)">
     <use style="fill:#4a7ca5;" x="84.313018" xlink:href="#C0_0_59e762e1b1" y="264.735275"/>
    </g>
    <g clip-path="url(#p3474316dcd)">
     <use style="fill:#4a7ca5;" x="84.312845" xlink:href="#C0_0_59e762e1b1" y="265.816525"/>
    </g>
    <g clip-path="url(#p3474316dcd)">
     <use style="fill:#4a7ca5;" x="84.022481" xlink:href="#C0_0_59e762e1b1" y="265.707953"/>
    </g>
    <g clip-path="url(#p3474316dcd)">
     <use style="fill:#4a7ca5;" x="83.383942" xlink:href="#C0_0_59e762e1b1" y="264.025176"/>
    </g>
   </g>
   <g id="matplotlib.axis_1">
    <g id="xtick_1">
     <g id="line2d_1">
      <defs>
       <path d="M 0 0 
L 0 3.5 
" id="m199151724f" style="stroke:#000000;stroke-width:0.8;"/>
      </defs>
      <g>
       <use style="stroke:#000000;stroke-width:0.8;" x="148.206167" xlink:href="#m199151724f" y="293.55"/>
      </g>
     </g>
     <g id="text_1">
      <!-- 10000 -->
      <defs>
       <path d="M 14.203125 0 
L 14.203125 5.171875 
L 26.90625 5.171875 
L 26.90625 65.828125 
L 12.203125 56.296875 
L 12.203125 62.703125 
L 29.984375 74.21875 
L 36.71875 74.21875 
L 36.71875 5.171875 
L 49.421875 5.171875 
L 49.421875 0 
z
" id="DejaVuSerif-31"/>
       <path d="M 31.78125 3.421875 
Q 39.265625 3.421875 42.96875 11.625 
Q 46.6875 19.828125 46.6875 36.375 
Q 46.6875 52.984375 42.96875 61.1875 
Q 39.265625 69.390625 31.78125 69.390625 
Q 24.3125 69.390625 20.59375 61.1875 
Q 16.890625 52.984375 16.890625 36.375 
Q 16.890625 19.828125 20.59375 11.625 
Q 24.3125 3.421875 31.78125 3.421875 
z
M 31.78125 -1.421875 
Q 19.921875 -1.421875 13.25 8.53125 
Q 6.59375 18.5 6.59375 36.375 
Q 6.59375 54.296875 13.25 64.25 
Q 19.921875 74.21875 31.78125 74.21875 
Q 43.703125 74.21875 50.34375 64.25 
Q 56.984375 54.296875 56.984375 36.375 
Q 56.984375 18.5 50.34375 8.53125 
Q 43.703125 -1.421875 31.78125 -1.421875 
z
" id="DejaVuSerif-30"/>
      </defs>
      <g transform="translate(132.299917 308.148437)scale(0.1 -0.1)">
       <use xlink:href="#DejaVuSerif-31"/>
       <use x="63.623047" xlink:href="#DejaVuSerif-30"/>
       <use x="127.246094" xlink:href="#DejaVuSerif-30"/>
       <use x="190.869141" xlink:href="#DejaVuSerif-30"/>
       <use x="254.492188" xlink:href="#DejaVuSerif-30"/>
      </g>
     </g>
    </g>
    <g id="xtick_2">
     <g id="line2d_2">
      <g>
       <use style="stroke:#000000;stroke-width:0.8;" x="236.653362" xlink:href="#m199151724f" y="293.55"/>
      </g>
     </g>
     <g id="text_2">
      <!-- 15000 -->
      <defs>
       <path d="M 50.296875 72.90625 
L 50.296875 64.890625 
L 16.890625 64.890625 
L 16.890625 44 
Q 19.4375 45.75 22.828125 46.625 
Q 26.21875 47.515625 30.421875 47.515625 
Q 42.234375 47.515625 49.0625 40.96875 
Q 55.90625 34.421875 55.90625 23.09375 
Q 55.90625 11.53125 49 5.046875 
Q 42.09375 -1.421875 29.59375 -1.421875 
Q 24.5625 -1.421875 19.28125 -0.1875 
Q 14.015625 1.03125 8.5 3.515625 
L 8.5 17.671875 
L 14.015625 17.671875 
Q 14.453125 10.75 18.421875 7.078125 
Q 22.40625 3.421875 29.59375 3.421875 
Q 37.3125 3.421875 41.453125 8.5 
Q 45.609375 13.578125 45.609375 23.09375 
Q 45.609375 32.5625 41.484375 37.609375 
Q 37.359375 42.671875 29.59375 42.671875 
Q 25.203125 42.671875 21.84375 41.109375 
Q 18.5 39.546875 15.921875 36.28125 
L 11.71875 36.28125 
L 11.71875 72.90625 
z
" id="DejaVuSerif-35"/>
      </defs>
      <g transform="translate(220.747112 308.148437)scale(0.1 -0.1)">
       <use xlink:href="#DejaVuSerif-31"/>
       <use x="63.623047" xlink:href="#DejaVuSerif-35"/>
       <use x="127.246094" xlink:href="#DejaVuSerif-30"/>
       <use x="190.869141" xlink:href="#DejaVuSerif-30"/>
       <use x="254.492188" xlink:href="#DejaVuSerif-30"/>
      </g>
     </g>
    </g>
    <g id="xtick_3">
     <g id="line2d_3">
      <g>
       <use style="stroke:#000000;stroke-width:0.8;" x="325.100558" xlink:href="#m199151724f" y="293.55"/>
      </g>
     </g>
     <g id="text_3">
      <!-- 20000 -->
      <defs>
       <path d="M 12.796875 55.515625 
L 7.328125 55.515625 
L 7.328125 68.5 
Q 12.546875 71.296875 17.84375 72.75 
Q 23.140625 74.21875 28.21875 74.21875 
Q 39.59375 74.21875 46.1875 68.703125 
Q 52.78125 63.1875 52.78125 53.71875 
Q 52.78125 43.015625 37.84375 28.125 
Q 36.671875 27 36.078125 26.421875 
L 17.671875 8.015625 
L 48.09375 8.015625 
L 48.09375 17 
L 53.8125 17 
L 53.8125 0 
L 6.78125 0 
L 6.78125 5.328125 
L 28.90625 27.390625 
Q 36.234375 34.71875 39.359375 40.84375 
Q 42.484375 46.96875 42.484375 53.71875 
Q 42.484375 61.078125 38.640625 65.234375 
Q 34.8125 69.390625 28.078125 69.390625 
Q 21.09375 69.390625 17.28125 65.921875 
Q 13.484375 62.453125 12.796875 55.515625 
z
" id="DejaVuSerif-32"/>
      </defs>
      <g transform="translate(309.194308 308.148437)scale(0.1 -0.1)">
       <use xlink:href="#DejaVuSerif-32"/>
       <use x="63.623047" xlink:href="#DejaVuSerif-30"/>
       <use x="127.246094" xlink:href="#DejaVuSerif-30"/>
       <use x="190.869141" xlink:href="#DejaVuSerif-30"/>
       <use x="254.492188" xlink:href="#DejaVuSerif-30"/>
      </g>
     </g>
    </g>
    <g id="text_4">
     <!-- Birth -->
     <defs>
      <path d="M 24.703125 5.171875 
L 39.3125 5.171875 
Q 48.09375 5.171875 52.140625 8.984375 
Q 56.203125 12.796875 56.203125 21.09375 
Q 56.203125 29.34375 52.171875 33.125 
Q 48.140625 36.921875 39.3125 36.921875 
L 24.703125 36.921875 
z
M 24.703125 42.09375 
L 37.109375 42.09375 
Q 45.125 42.09375 48.796875 45.171875 
Q 52.484375 48.25 52.484375 54.890625 
Q 52.484375 61.578125 48.796875 64.625 
Q 45.125 67.671875 37.109375 67.671875 
L 24.703125 67.671875 
z
M 5.515625 0 
L 5.515625 5.171875 
L 14.796875 5.171875 
L 14.796875 67.671875 
L 5.515625 67.671875 
L 5.515625 72.90625 
L 41.5 72.90625 
Q 52.546875 72.90625 58.125 68.390625 
Q 63.71875 63.875 63.71875 54.890625 
Q 63.71875 48.390625 59.828125 44.53125 
Q 55.953125 40.671875 48.484375 39.796875 
Q 57.765625 38.625 62.578125 33.859375 
Q 67.390625 29.109375 67.390625 21.09375 
Q 67.390625 10.25 60.546875 5.125 
Q 53.71875 0 39.203125 0 
z
" id="DejaVuSerif-42"/>
      <path d="M 9.71875 68.015625 
Q 9.71875 70.265625 11.34375 71.921875 
Q 12.984375 73.578125 15.28125 73.578125 
Q 17.53125 73.578125 19.15625 71.921875 
Q 20.796875 70.265625 20.796875 68.015625 
Q 20.796875 65.71875 19.1875 64.109375 
Q 17.578125 62.5 15.28125 62.5 
Q 12.984375 62.5 11.34375 64.109375 
Q 9.71875 65.71875 9.71875 68.015625 
z
M 21.1875 5.171875 
L 29.6875 5.171875 
L 29.6875 0 
L 3.609375 0 
L 3.609375 5.171875 
L 12.203125 5.171875 
L 12.203125 46.6875 
L 3.609375 46.6875 
L 3.609375 51.90625 
L 21.1875 51.90625 
z
" id="DejaVuSerif-69"/>
      <path d="M 47.796875 52 
L 47.796875 39.015625 
L 42.625 39.015625 
Q 42.390625 42.875 40.484375 44.78125 
Q 38.578125 46.6875 34.90625 46.6875 
Q 28.265625 46.6875 24.71875 42.09375 
Q 21.1875 37.5 21.1875 28.90625 
L 21.1875 5.171875 
L 31.59375 5.171875 
L 31.59375 0 
L 4.109375 0 
L 4.109375 5.171875 
L 12.203125 5.171875 
L 12.203125 46.78125 
L 3.609375 46.78125 
L 3.609375 51.90625 
L 21.1875 51.90625 
L 21.1875 42.671875 
Q 23.828125 48.09375 27.96875 50.703125 
Q 32.125 53.328125 38.09375 53.328125 
Q 40.28125 53.328125 42.703125 52.984375 
Q 45.125 52.640625 47.796875 52 
z
" id="DejaVuSerif-72"/>
      <path d="M 10.796875 46.6875 
L 2.875 46.6875 
L 2.875 51.90625 
L 10.796875 51.90625 
L 10.796875 68.015625 
L 19.828125 68.015625 
L 19.828125 51.90625 
L 36.71875 51.90625 
L 36.71875 46.6875 
L 19.828125 46.6875 
L 19.828125 13.71875 
Q 19.828125 7.125 21.09375 5.265625 
Q 22.359375 3.421875 25.78125 3.421875 
Q 29.296875 3.421875 30.90625 5.484375 
Q 32.515625 7.5625 32.625 12.203125 
L 39.40625 12.203125 
Q 39.015625 5.125 35.546875 1.84375 
Q 32.078125 -1.421875 25 -1.421875 
Q 17.234375 -1.421875 14.015625 2.015625 
Q 10.796875 5.46875 10.796875 13.71875 
z
" id="DejaVuSerif-74"/>
      <path d="M 4.109375 0 
L 4.109375 5.171875 
L 12.203125 5.171875 
L 12.203125 70.796875 
L 3.609375 70.796875 
L 3.609375 75.984375 
L 21.1875 75.984375 
L 21.1875 42.671875 
Q 23.6875 47.953125 27.65625 50.640625 
Q 31.640625 53.328125 36.921875 53.328125 
Q 45.515625 53.328125 49.5625 48.390625 
Q 53.609375 43.453125 53.609375 33.015625 
L 53.609375 5.171875 
L 61.625 5.171875 
L 61.625 0 
L 36.8125 0 
L 36.8125 5.171875 
L 44.578125 5.171875 
L 44.578125 30.171875 
Q 44.578125 39.703125 42.25 43.1875 
Q 39.9375 46.6875 33.984375 46.6875 
Q 27.734375 46.6875 24.453125 42.140625 
Q 21.1875 37.59375 21.1875 28.90625 
L 21.1875 5.171875 
L 29 5.171875 
L 29 0 
z
" id="DejaVuSerif-68"/>
     </defs>
     <g transform="translate(187.579688 323.34625)scale(0.12 -0.12)">
      <use xlink:href="#DejaVuSerif-42"/>
      <use x="73.486328" xlink:href="#DejaVuSerif-69"/>
      <use x="105.46875" xlink:href="#DejaVuSerif-72"/>
      <use x="153.271484" xlink:href="#DejaVuSerif-74"/>
      <use x="193.457031" xlink:href="#DejaVuSerif-68"/>
     </g>
    </g>
   </g>
   <g id="matplotlib.axis_2">
    <g id="ytick_1">
     <g id="line2d_4">
      <defs>
       <path d="M 0 0 
L -3.5 0 
" id="m70ce02dea8" style="stroke:#000000;stroke-width:0.8;"/>
      </defs>
      <g>
       <use style="stroke:#000000;stroke-width:0.8;" x="61.62625" xlink:href="#m70ce02dea8" y="206.970083"/>
      </g>
     </g>
     <g id="text_5">
      <!-- 10000 -->
      <g transform="translate(22.81375 210.769302)scale(0.1 -0.1)">
       <use xlink:href="#DejaVuSerif-31"/>
       <use x="63.623047" xlink:href="#DejaVuSerif-30"/>
       <use x="127.246094" xlink:href="#DejaVuSerif-30"/>
       <use x="190.869141" xlink:href="#DejaVuSerif-30"/>
       <use x="254.492188" xlink:href="#DejaVuSerif-30"/>
      </g>
     </g>
    </g>
    <g id="ytick_2">
     <g id="line2d_5">
      <g>
       <use style="stroke:#000000;stroke-width:0.8;" x="61.62625" xlink:href="#m70ce02dea8" y="118.522888"/>
      </g>
     </g>
     <g id="text_6">
      <!-- 15000 -->
      <g transform="translate(22.81375 122.322106)scale(0.1 -0.1)">
       <use xlink:href="#DejaVuSerif-31"/>
       <use x="63.623047" xlink:href="#DejaVuSerif-35"/>
       <use x="127.246094" xlink:href="#DejaVuSerif-30"/>
       <use x="190.869141" xlink:href="#DejaVuSerif-30"/>
       <use x="254.492188" xlink:href="#DejaVuSerif-30"/>
      </g>
     </g>
    </g>
    <g id="ytick_3">
     <g id="line2d_6">
      <g>
       <use style="stroke:#000000;stroke-width:0.8;" x="61.62625" xlink:href="#m70ce02dea8" y="30.075692"/>
      </g>
     </g>
     <g id="text_7">
      <!-- 20000 -->
      <g transform="translate(22.81375 33.874911)scale(0.1 -0.1)">
       <use xlink:href="#DejaVuSerif-32"/>
       <use x="63.623047" xlink:href="#DejaVuSerif-30"/>
       <use x="127.246094" xlink:href="#DejaVuSerif-30"/>
       <use x="190.869141" xlink:href="#DejaVuSerif-30"/>
       <use x="254.492188" xlink:href="#DejaVuSerif-30"/>
      </g>
     </g>
    </g>
    <g id="text_8">
     <!-- Death -->
     <defs>
      <path d="M 24.703125 5.171875 
L 33.796875 5.171875 
Q 48 5.171875 55.59375 13.28125 
Q 63.1875 21.390625 63.1875 36.53125 
Q 63.1875 51.65625 55.609375 59.65625 
Q 48.046875 67.671875 33.796875 67.671875 
L 24.703125 67.671875 
z
M 5.515625 0 
L 5.515625 5.171875 
L 14.796875 5.171875 
L 14.796875 67.671875 
L 5.515625 67.671875 
L 5.515625 72.90625 
L 34.515625 72.90625 
Q 53.375 72.90625 63.890625 63.28125 
Q 74.421875 53.65625 74.421875 36.53125 
Q 74.421875 19.34375 63.875 9.671875 
Q 53.328125 0 34.515625 0 
z
" id="DejaVuSerif-44"/>
      <path d="M 54.203125 25 
L 15.484375 25 
L 15.484375 24.609375 
Q 15.484375 14.109375 19.4375 8.765625 
Q 23.390625 3.421875 31.109375 3.421875 
Q 37.015625 3.421875 40.796875 6.515625 
Q 44.578125 9.625 46.09375 15.71875 
L 53.328125 15.71875 
Q 51.171875 7.171875 45.375 2.875 
Q 39.59375 -1.421875 30.171875 -1.421875 
Q 18.796875 -1.421875 11.890625 6.078125 
Q 4.984375 13.578125 4.984375 25.984375 
Q 4.984375 38.28125 11.765625 45.796875 
Q 18.5625 53.328125 29.59375 53.328125 
Q 41.359375 53.328125 47.65625 46.0625 
Q 53.953125 38.8125 54.203125 25 
z
M 43.609375 30.171875 
Q 43.3125 39.265625 39.765625 43.875 
Q 36.234375 48.484375 29.59375 48.484375 
Q 23.390625 48.484375 19.828125 43.84375 
Q 16.265625 39.203125 15.484375 30.171875 
z
" id="DejaVuSerif-65"/>
      <path d="M 39.796875 16.3125 
L 39.796875 27.296875 
L 28.21875 27.296875 
Q 21.53125 27.296875 18.25 24.40625 
Q 14.984375 21.53125 14.984375 15.578125 
Q 14.984375 10.15625 18.296875 6.984375 
Q 21.625 3.8125 27.296875 3.8125 
Q 32.90625 3.8125 36.34375 7.28125 
Q 39.796875 10.75 39.796875 16.3125 
z
M 48.78125 32.421875 
L 48.78125 5.171875 
L 56.78125 5.171875 
L 56.78125 0 
L 39.796875 0 
L 39.796875 5.609375 
Q 36.8125 2 32.90625 0.28125 
Q 29 -1.421875 23.78125 -1.421875 
Q 15.140625 -1.421875 10.0625 3.171875 
Q 4.984375 7.765625 4.984375 15.578125 
Q 4.984375 23.640625 10.796875 28.078125 
Q 16.609375 32.515625 27.203125 32.515625 
L 39.796875 32.515625 
L 39.796875 36.078125 
Q 39.796875 42 36.203125 45.234375 
Q 32.625 48.484375 26.125 48.484375 
Q 20.75 48.484375 17.578125 46.046875 
Q 14.40625 43.609375 13.625 38.8125 
L 8.984375 38.8125 
L 8.984375 49.3125 
Q 13.671875 51.3125 18.09375 52.3125 
Q 22.515625 53.328125 26.703125 53.328125 
Q 37.5 53.328125 43.140625 47.96875 
Q 48.78125 42.625 48.78125 32.421875 
z
" id="DejaVuSerif-61"/>
     </defs>
     <g transform="translate(16.318125 170.339687)rotate(-90)scale(0.12 -0.12)">
      <use xlink:href="#DejaVuSerif-44"/>
      <use x="80.175781" xlink:href="#DejaVuSerif-65"/>
      <use x="139.355469" xlink:href="#DejaVuSerif-61"/>
      <use x="198.974609" xlink:href="#DejaVuSerif-74"/>
      <use x="239.160156" xlink:href="#DejaVuSerif-68"/>
     </g>
    </g>
   </g>
   <g id="line2d_7">
    <path clip-path="url(#p3474316dcd)" d="M 61.62625 293.55 
L 344.47625 10.7 
" style="fill:none;stroke:#000000;stroke-dasharray:5.55,2.4;stroke-dashoffset:0;stroke-width:1.5;"/>
   </g>
   <g id="patch_3">
    <path d="M 61.62625 293.55 
L 61.62625 10.7 
" style="fill:none;stroke:#000000;stroke-linecap:square;stroke-linejoin:miter;stroke-width:0.8;"/>
   </g>
   <g id="patch_4">
    <path d="M 344.47625 293.55 
L 344.47625 10.7 
" style="fill:none;stroke:#000000;stroke-linecap:square;stroke-linejoin:miter;stroke-width:0.8;"/>
   </g>
   <g id="patch_5">
    <path d="M 61.62625 293.55 
L 344.47625 293.55 
" style="fill:none;stroke:#000000;stroke-linecap:square;stroke-linejoin:miter;stroke-width:0.8;"/>
   </g>
   <g id="patch_6">
    <path d="M 61.62625 10.7 
L 344.47625 10.7 
" style="fill:none;stroke:#000000;stroke-linecap:square;stroke-linejoin:miter;stroke-width:0.8;"/>
   </g>
  </g>
 </g>
 <defs>
  <clipPath id="p3474316dcd">
   <rect height="282.85" width="282.85" x="61.62625" y="10.7"/>
  </clipPath>
 </defs>
</svg>
